G04*
G04 #@! TF.GenerationSoftware,Altium Limited,Altium Designer,20.0.10 (225)*
G04*
G04 Layer_Physical_Order=2*
G04 Layer_Color=16711680*
%FSTAX44Y44*%
%MOMM*%
G71*
G01*
G75*
%ADD10C,0.6000*%
%ADD11C,1.0000*%
%ADD12C,0.7000*%
%ADD13C,0.9000*%
%ADD14C,2.0000*%
%ADD15C,1.5000*%
%ADD16C,0.8000*%
%ADD18C,1.6000*%
%ADD25R,0.7000X1.2502*%
%ADD26R,0.7000X1.2500*%
%ADD27R,1.2502X0.7000*%
%ADD28R,1.2500X0.7000*%
%ADD31R,0.8000X1.2000*%
%ADD35R,1.2000X0.8000*%
%ADD36R,1.5500X0.6000*%
%ADD37C,1.1000*%
%ADD43O,4.2000X2.6000*%
%ADD44O,1.2000X1.6000*%
%ADD45C,1.6000*%
%ADD46R,1.6000X1.6000*%
%ADD47C,2.0000*%
%ADD48R,1.6000X1.6000*%
%ADD49C,3.5000*%
%ADD50C,2.5000*%
%ADD51C,5.1200*%
%ADD52O,1.4000X2.5000*%
%ADD53R,1.4000X2.5000*%
%ADD54O,2.5000X1.4000*%
%ADD55R,2.5000X1.4000*%
%ADD56C,3.0000*%
%ADD57R,3.0000X3.0000*%
%ADD58C,2.0000*%
%ADD59R,2.0000X2.0000*%
%ADD60R,2.0000X2.0000*%
%ADD61C,1.8000*%
%ADD62C,0.6000*%
%ADD63C,1.2000*%
%ADD64C,3.0000*%
%ADD65R,1.6000X1.8000*%
%ADD66R,3.8200X3.0300*%
%ADD67R,3.8200X3.0300*%
%ADD68R,1.1000X2.2000*%
%ADD69R,1.1000X2.2000*%
%ADD70R,3.5000X2.2000*%
%ADD71R,0.7000X1.0000*%
%ADD72R,3.6000X2.7000*%
%ADD73R,1.2500X3.2000*%
%ADD74R,3.2000X1.2500*%
%ADD75C,1.3000*%
%ADD76C,3.2000*%
%ADD77R,1.6961X2.3994*%
G36*
X0129Y00891999D02*
X01309899Y00888041D01*
X01326769Y00876769D01*
X01338041Y00859899D01*
X01341999Y0084D01*
X01342423D01*
X01342423Y0006D01*
X01341999D01*
X01338041Y00040101D01*
X01326769Y00023231D01*
X01309899Y00011959D01*
X0129Y00008001D01*
Y00007577D01*
X0006D01*
Y00008001D01*
X00040101Y00011959D01*
X00023231Y00023231D01*
X00011959Y00040101D01*
X00008001Y0006D01*
X00007577D01*
X00007577Y0006D01*
X00007577Y00837D01*
X00008001Y0084D01*
X00008001D01*
X00008001Y0084D01*
X00011959Y00859899D01*
X00023231Y00876769D01*
X00040101Y00888041D01*
X0006Y00891999D01*
Y00892423D01*
X00271129Y00892423D01*
Y00808D01*
X00272556Y00804556D01*
X00276Y00803129D01*
X005395Y00803129D01*
X00542944Y00804556D01*
X00544371Y00808D01*
Y00892423D01*
X0129Y00892423D01*
Y00891999D01*
D02*
G37*
%LPC*%
G36*
X00655413Y00876301D02*
X00646993Y00872814D01*
X00645036Y00868088D01*
X00641789D01*
X00639832Y00872814D01*
X00631413Y00876301D01*
X00622993Y00872814D01*
X00619506Y00864395D01*
X00622993Y00855975D01*
X00625464Y00854952D01*
X00625575Y00854867D01*
X00625609Y00854829D01*
X00625696Y00854688D01*
X00625812Y00854429D01*
X00625877Y00854231D01*
Y00852566D01*
X00625777Y00850248D01*
X00625673Y00849997D01*
X00625537Y00849794D01*
X00623729D01*
X00625877Y00844608D01*
Y00836972D01*
X00625453D01*
X00625319Y00834942D01*
X00625453Y00834617D01*
Y00824972D01*
X00641453D01*
Y00833972D01*
X00641453Y00834618D01*
X00641588Y00834942D01*
X00641453Y00836972D01*
X0064103Y00839797D01*
Y00849794D01*
X00641047D01*
X0064103Y00849834D01*
Y00858869D01*
X00641789Y00860701D01*
X00645036D01*
X00646993Y00855975D01*
X00647423Y00855798D01*
Y00837463D01*
X00647344Y00837034D01*
X00647327Y00836972D01*
X00646453Y00836972D01*
X00646319Y00834942D01*
X00646441Y00834648D01*
X00646439Y00834232D01*
X00646453Y00834215D01*
Y00824972D01*
X00654452D01*
X00655Y00824745D01*
X00655548Y00824972D01*
X00662453D01*
Y00832024D01*
X00662577Y00832322D01*
Y00834915D01*
X00662588Y00834942D01*
X00662577Y00834968D01*
Y00835009D01*
X00662586Y00835033D01*
X00662577Y00835247D01*
Y00855403D01*
X00662582Y00855423D01*
X00662596Y00855464D01*
X00663831Y00855975D01*
X00667319Y00864395D01*
X00663831Y00872814D01*
X00655413Y00876301D01*
D02*
G37*
G36*
X00570412Y00875887D02*
Y00865395D01*
X00580905D01*
X00577831Y00872814D01*
X00570412Y00875887D01*
D02*
G37*
G36*
X00568412Y00875887D02*
X00560993Y00872814D01*
X0055792Y00865395D01*
X00568412D01*
Y00875887D01*
D02*
G37*
G36*
X00718412Y00875887D02*
Y00865395D01*
X00728905D01*
X00725832Y00872814D01*
X00718412Y00875887D01*
D02*
G37*
G36*
X00716413D02*
X00708994Y00872814D01*
X0070592Y00865395D01*
X00716413D01*
Y00875887D01*
D02*
G37*
G36*
X00568412Y00863395D02*
X0055792D01*
X00560993Y00855975D01*
X00568412Y00852903D01*
Y00863395D01*
D02*
G37*
G36*
X00728905Y00863395D02*
X00718412D01*
Y00852903D01*
X00725832Y00855975D01*
X00728905Y00863395D01*
D02*
G37*
G36*
X00716413D02*
X0070592D01*
X00708994Y00855975D01*
X00716413Y00852903D01*
Y00863395D01*
D02*
G37*
G36*
X00580905Y00863395D02*
X00570412D01*
Y00852902D01*
X00577831Y00855975D01*
X00580905Y00863395D01*
D02*
G37*
G36*
X0078Y00850997D02*
X00773D01*
Y00845997D01*
X0078D01*
Y00850997D01*
D02*
G37*
G36*
X00767D02*
X0076D01*
Y00845997D01*
X00767D01*
Y00850997D01*
D02*
G37*
G36*
X00758D02*
X00751D01*
Y00845997D01*
X00758D01*
Y00850997D01*
D02*
G37*
G36*
X0078Y00843997D02*
X00773D01*
Y00838997D01*
X0078D01*
Y00843997D01*
D02*
G37*
G36*
X00767Y00843997D02*
X0076D01*
Y00838997D01*
X00767D01*
Y00843997D01*
D02*
G37*
G36*
X00758D02*
X00751D01*
Y00838997D01*
X00758D01*
Y00843997D01*
D02*
G37*
G36*
X001935Y00847572D02*
Y00835997D01*
X00205074D01*
X00201684Y00844182D01*
X001935Y00847572D01*
D02*
G37*
G36*
X001915D02*
X00183316Y00844182D01*
X00179925Y00835997D01*
X001915D01*
Y00847572D01*
D02*
G37*
G36*
X006895Y00888324D02*
X00684143Y00886105D01*
X00681923Y00880747D01*
Y00839878D01*
X00681423Y00837107D01*
X00681099Y00836972D01*
X00667454D01*
Y00824972D01*
X00680453D01*
X00681099Y00824972D01*
X00681423Y00824838D01*
X00681678Y00824855D01*
X00681682Y00824854D01*
X00683453Y00824972D01*
X00686434Y00825019D01*
X00687186D01*
X006895Y00824061D01*
X0069285Y00825448D01*
X0069585Y00823444D01*
Y00819497D01*
X0069585Y00819165D01*
X00695788Y00819084D01*
X00695797Y00818724D01*
X00695716Y00818528D01*
X0069585Y00816497D01*
X00697315Y00813606D01*
Y00807783D01*
X006973Y00807747D01*
X00697315Y00807711D01*
Y00801135D01*
X00696765D01*
Y00791435D01*
X00696765Y00791135D01*
Y00788435D01*
X00696765Y00788135D01*
Y00779147D01*
X00696765Y00778435D01*
X00695046Y00776147D01*
X00673737D01*
Y00776578D01*
X00665902Y00773333D01*
X00662657Y00765497D01*
X00663088D01*
Y0074435D01*
X0066175Y00743565D01*
X00660731Y00743933D01*
X00659098Y00745488D01*
X00659203Y00745741D01*
Y008062D01*
X00659365Y00806807D01*
X00659564Y00807294D01*
X00659676Y00807478D01*
X00675453D01*
X00676647Y00807972D01*
X00683453D01*
Y00819972D01*
X00676647D01*
X00675453Y00820467D01*
X00654454D01*
X0065326Y00819972D01*
X00646453D01*
Y00810972D01*
X00646453Y00810668D01*
X00646405Y00810608D01*
X00646412Y00810224D01*
X00646319Y00809997D01*
X00646453Y00807972D01*
X00647297Y0080498D01*
Y00745741D01*
X00647749Y00744647D01*
Y00737491D01*
X00647749Y00737491D01*
X00647749D01*
X00645224Y00736124D01*
X00643208Y00735289D01*
X00641506Y0073118D01*
X00640716Y00730234D01*
X00639849Y0072931D01*
X00639574Y0072905D01*
X00639511Y00728998D01*
X0063825Y00728998D01*
X00638116Y00726984D01*
X00638209Y00726755D01*
X00638202Y00726363D01*
X0063825Y00726303D01*
X0063525Y00724924D01*
X00634744Y00725352D01*
Y00806277D01*
X00635594Y00806628D01*
X00636151Y00807972D01*
X00641453D01*
Y00819972D01*
X00634707D01*
X00633453Y00820492D01*
Y00820895D01*
X00632478Y00820492D01*
X006125D01*
X00611307Y00819997D01*
X006045D01*
Y00807997D01*
X00611307D01*
X006125Y00807503D01*
X00621756D01*
Y0072426D01*
X00620969Y00723934D01*
X0061825Y00723257D01*
Y00723257D01*
X00608874Y00719373D01*
X00604991Y00709997D01*
X00605506D01*
Y00703934D01*
X00603675Y00701631D01*
X00602671Y00701567D01*
X00601751Y00701948D01*
X00600499Y00701429D01*
X00599127Y00701341D01*
X00598461Y00700585D01*
X00597542Y00700204D01*
X00597023Y00698951D01*
X00596116Y00697922D01*
X0059618Y00696917D01*
X00595798Y00695994D01*
X00595186Y00695177D01*
X00592259Y00695042D01*
X00591853Y00696023D01*
X00579955Y00700951D01*
Y00700082D01*
X00576129Y00698497D01*
X00574543Y0069467D01*
X00576129Y00690843D01*
X00579955Y00689258D01*
Y00687962D01*
X00582668Y00686838D01*
X00583792Y00684125D01*
X00585088D01*
Y00666248D01*
X00582088Y00664818D01*
X0057875Y006662D01*
X0057454Y00664457D01*
X00572797Y00660247D01*
Y00626997D01*
X00572014D01*
X0057551Y00618558D01*
X00573214Y00616262D01*
X0057156Y00616947D01*
X00561993Y00612984D01*
X0055803Y00603417D01*
X00560172Y00598246D01*
X00559Y00597074D01*
X00555703Y00595708D01*
X00552703Y00597713D01*
Y00658997D01*
X00553713D01*
X00548085Y00672582D01*
X005345Y0067821D01*
Y006772D01*
X004535D01*
X00449291Y00675457D01*
X00447547Y00671247D01*
X00449291Y00667038D01*
X004535Y00665294D01*
X00453949D01*
X00455701Y00662294D01*
X00454547Y00659507D01*
X00456291Y00655297D01*
X004605Y00653554D01*
X00515885D01*
X00516482Y00650554D01*
X00515041Y00649957D01*
X00513297Y00645747D01*
X00515041Y00641538D01*
X0051925Y00639794D01*
Y0063868D01*
X00523268Y00637015D01*
X00524933Y00632997D01*
X00526047D01*
Y00612497D01*
X0052779Y00608288D01*
X00532Y00606544D01*
X0053621Y00608288D01*
X00537953Y00612497D01*
X00540797Y0061212D01*
Y00587631D01*
X00537797Y00586721D01*
X00531459Y00596206D01*
X00520742Y00603367D01*
X005081Y00605882D01*
Y00605824D01*
X00479097D01*
X00477315Y00608824D01*
X00477707Y00609544D01*
X0050725D01*
X0051146Y00611288D01*
X00513203Y00615497D01*
X0051146Y00619707D01*
X0050725Y0062145D01*
X00475D01*
Y00622276D01*
X00468303Y0062505D01*
X00465529Y00631747D01*
X00464703D01*
X0046296Y00635957D01*
X0045875Y006377D01*
X0045454Y00635957D01*
X00452797Y00631747D01*
X00451458D01*
X00458353Y00615101D01*
X00472Y00609448D01*
X00473506Y00608824D01*
X00473194Y00607252D01*
D01*
X00473158Y00607075D01*
D01*
X00472923Y00605892D01*
X0047175Y00605824D01*
X00470215Y00605188D01*
X00466393Y00603605D01*
X00464173Y00598247D01*
X00466393Y0059289D01*
X0046675Y00590039D01*
X0046375Y00589269D01*
X00452098Y00594095D01*
X00446899Y00606647D01*
X00446827D01*
Y00620597D01*
X00446885D01*
X0044437Y00633239D01*
X00437209Y00643956D01*
X00426492Y00651117D01*
X00425669Y00651281D01*
X00424089Y00654654D01*
X00425577Y00658247D01*
Y00709473D01*
X00425649D01*
X00430848Y00722025D01*
X004434Y00727225D01*
Y00727297D01*
X00489438D01*
X00494796Y00729516D01*
X00497015Y00734873D01*
X00494796Y00740231D01*
X00489438Y0074245D01*
X004434D01*
Y00742508D01*
X00430758Y00739993D01*
X00420041Y00732832D01*
X0041288Y00722115D01*
X00410365Y00709473D01*
X00410423D01*
Y00658247D01*
X00411326Y00656068D01*
X00409659Y00653574D01*
X0039937D01*
X00397366Y00656574D01*
X00398577Y00659497D01*
Y00731097D01*
X00398649D01*
X00403848Y00743649D01*
X004164Y00748848D01*
Y00748921D01*
X0048725D01*
X00492608Y0075114D01*
X00494827Y00756497D01*
X00492608Y00761855D01*
X00491242Y00762421D01*
X00491838Y00765421D01*
X005411D01*
Y00765362D01*
X00553742Y00767877D01*
X00564459Y00775038D01*
X0057162Y00785755D01*
X00574135Y00798397D01*
X00574077D01*
Y00816747D01*
X00572068Y00821597D01*
X00573285Y00824597D01*
X00598444D01*
X00599524Y00825044D01*
X006045D01*
X006045Y00824997D01*
X00606271Y00824878D01*
X00606276Y0082488D01*
X00606531Y00824863D01*
X00606855Y00824997D01*
X006205D01*
Y00836997D01*
X006075D01*
X00606855Y00836997D01*
X00606531Y00837132D01*
X00606276Y00837115D01*
X00606271Y00837116D01*
X006045Y00836997D01*
X00601519Y0083695D01*
X005985D01*
X0059742Y00836503D01*
X0057D01*
Y00837721D01*
X00554477Y00831291D01*
X00548048Y00815769D01*
X00549266D01*
Y00811147D01*
X00549194D01*
X00543519Y00797447D01*
X00529819Y00791772D01*
Y007917D01*
X0034275D01*
X00342038Y00791405D01*
X00313546Y00791159D01*
X0025275D01*
Y00792479D01*
X002505Y00793411D01*
Y00801997D01*
X002345D01*
Y00792479D01*
X00234377Y00792254D01*
X00234409Y00792147D01*
X00234366Y00792044D01*
X00234357Y0079085D01*
X00232684Y00786813D01*
X002235Y00783008D01*
Y00782409D01*
X00111018D01*
X00110567Y00782529D01*
X00110192Y00782681D01*
X00109985Y00782806D01*
X00109913Y00782873D01*
X00109907Y00782881D01*
X00109905Y00782887D01*
X00109872Y00783195D01*
X0010975Y0078342D01*
Y00784997D01*
X00107719Y00785131D01*
X00107667Y0078511D01*
X00107491Y00785119D01*
X00107266Y00784997D01*
X0009775D01*
Y00768997D01*
X0010675D01*
X00107266Y00768997D01*
X00107491Y00768875D01*
X00107667Y00768884D01*
X00107719Y00768863D01*
X0010975Y00768997D01*
Y0076911D01*
X00112331Y00771585D01*
X002235D01*
Y0077002D01*
X00241869Y00777628D01*
X00244121Y00783065D01*
X0025275Y00779491D01*
Y00780335D01*
X00313546D01*
X00333531Y00780163D01*
X00335143Y00777149D01*
X00333423Y00772997D01*
X00335643Y0076764D01*
X00341Y00765421D01*
X00407501D01*
X00407796Y00762421D01*
X00403758Y00761617D01*
X00393041Y00754456D01*
X0038588Y00743739D01*
X00383365Y00731097D01*
X00383423D01*
Y00659497D01*
X00384634Y00656574D01*
X0038263Y00653574D01*
X00355D01*
X00349642Y00651355D01*
X00348451Y00648478D01*
X00345451Y00649074D01*
Y00671373D01*
X00343232Y00676731D01*
X00337874Y0067895D01*
X00332517Y00676731D01*
X00330297Y00671373D01*
Y00657613D01*
X00327297Y00657318D01*
X0032487Y0066952D01*
X00317709Y00680237D01*
X00317668Y00680196D01*
X00308434Y00689431D01*
X00303076Y0069165D01*
X00297719Y00689431D01*
X00295499Y00684073D01*
X00297719Y00678716D01*
X00306953Y00669481D01*
X00306902Y0066943D01*
X00312101Y00656878D01*
X00312173D01*
Y006245D01*
X0031214D01*
X00314557Y00612349D01*
X0032144Y00602048D01*
X00321464Y00602071D01*
X00321464Y00602071D01*
X00440703Y00482832D01*
X00440652Y00482781D01*
X00443136Y00476784D01*
X00441469Y0047429D01*
X00438205D01*
Y00459789D01*
Y00445289D01*
X00445923D01*
Y00421268D01*
X00445977Y00421139D01*
X00448126Y00410335D01*
X00454319Y00401066D01*
X00463588Y00394873D01*
X00467141Y00394166D01*
X00466846Y00391166D01*
X00448649D01*
X00448634Y00391168D01*
X00447318Y0039147D01*
X00446291Y00391828D01*
X00445681Y00392144D01*
X00444094Y00395978D01*
X00437205Y00398831D01*
X00430317Y00395978D01*
X00427464Y0038909D01*
Y00378089D01*
X00430317Y00371201D01*
X00433642Y00369824D01*
X00433045Y00366824D01*
X00416365D01*
X00415769Y00369824D01*
X00419094Y00371201D01*
X00421947Y00378089D01*
Y00382589D01*
X00412205D01*
X00402464D01*
Y00378089D01*
X00404472Y0037324D01*
X00402507Y0037123D01*
X00399717Y00372059D01*
X00396947Y00378747D01*
Y0038909D01*
X00394094Y00395978D01*
X00387205Y00398831D01*
X00380317Y00395978D01*
X00377464Y0038909D01*
Y00378089D01*
X00380317Y00371201D01*
X0038192Y00370537D01*
X00386316Y00364936D01*
X00388951Y00360993D01*
X00398861Y00354371D01*
X00398727Y00352399D01*
X00398362Y00351371D01*
X00395867D01*
X00388979Y00348518D01*
X00386126Y0034163D01*
X00388979Y00334742D01*
X00395867Y00331888D01*
X00406867D01*
X00408759Y00332672D01*
X00408787Y00332668D01*
X004094Y0033283D01*
X00412367Y00332909D01*
Y00332909D01*
X00414981Y00331777D01*
X00416029Y00329247D01*
X00417173D01*
Y00323107D01*
X00414173Y0032251D01*
X00413756Y00323518D01*
X00406867Y00326371D01*
X00395867D01*
X00390641Y00324207D01*
X00387605D01*
Y00324279D01*
X00375053Y00329478D01*
X00369854Y0034203D01*
X00369782D01*
Y00371031D01*
X00369875Y00371806D01*
X00370042Y00372694D01*
X00370227Y00373437D01*
X00370415Y00374002D01*
X00370648Y00374517D01*
X00370663Y00374981D01*
X0037084Y00375409D01*
X00370839Y00375414D01*
X00371947Y00378089D01*
Y0038909D01*
X00369094Y00395978D01*
X00362205Y00398831D01*
X00355317Y00395978D01*
X00352464Y0038909D01*
Y00378089D01*
X00353572Y00375414D01*
X0035357Y00375409D01*
X00353748Y00374981D01*
X00353763Y00374517D01*
X00353996Y00374002D01*
X00354184Y00373437D01*
X00354369Y00372694D01*
X00354526Y00371857D01*
X00354629Y00370435D01*
Y0034203D01*
X00354571D01*
X00357085Y00329388D01*
X00364246Y00318671D01*
X00374963Y0031151D01*
X00387605Y00308995D01*
Y00309053D01*
X00390641D01*
X00395867Y00306888D01*
X00406867D01*
X00413756Y00309742D01*
X00414173Y0031075D01*
X00417173Y00310153D01*
Y00298107D01*
X00414173Y0029751D01*
X00413756Y00298518D01*
X00406867Y00301371D01*
X00395867D01*
X00388979Y00298518D01*
X00386126Y0029163D01*
X00388979Y00284742D01*
X00395867Y00281888D01*
X00406867D01*
X00413756Y00284742D01*
X00414973Y0028768D01*
X00418093Y00287373D01*
X00419607Y00279761D01*
X00426679Y00269177D01*
X00429742Y0026713D01*
X00432885Y00264561D01*
X00432916Y00264552D01*
X00432932Y00264524D01*
X00435951Y00262192D01*
X00436011Y00262176D01*
X00436044Y00262124D01*
X0043664Y00261712D01*
X00436725Y00261694D01*
X00436777Y00261625D01*
X00436856Y00261579D01*
X00437362Y00260359D01*
X00440081Y00259233D01*
X00440566Y00258063D01*
X0044975Y00254258D01*
X004501D01*
Y00254186D01*
X00455458Y00251967D01*
X00455862Y00251703D01*
X00457872Y00250206D01*
X00459574Y00248764D01*
X00462439Y00241847D01*
X00462511D01*
Y00209647D01*
X00463004Y00208458D01*
X0046567Y00195054D01*
X00473936Y00182683D01*
X00486307Y00174417D01*
X00499711Y00171751D01*
X005009Y00171259D01*
X00577323D01*
X0058382Y00166917D01*
X00597224Y00164251D01*
X00598413Y00163759D01*
X00668352D01*
X00668949Y00160758D01*
X00661915Y00157845D01*
X00657318Y00146747D01*
X00661915Y00135649D01*
X00673013Y00131053D01*
X00675316Y00132007D01*
X00676246Y0012976D01*
X00677011D01*
Y00063747D01*
X00680816Y00054563D01*
X0069Y00050759D01*
X00699184Y00054563D01*
X00702989Y00063747D01*
Y0012976D01*
X00702179Y00131714D01*
X00700318Y0014107D01*
X00693912Y00150659D01*
X00684476Y00156963D01*
X00684111Y00157845D01*
X00677077Y00160758D01*
X00677674Y00163759D01*
X00694537D01*
X00695Y00163567D01*
X00748409D01*
X00749853Y00164165D01*
X00761906Y00166562D01*
X00769877Y00171889D01*
X00781807Y00163917D01*
X0079231Y00161828D01*
X00792708Y00161236D01*
X00791108Y00158236D01*
X00777533D01*
X00771Y00160942D01*
X00759902Y00156345D01*
X00755306Y00145247D01*
X00759902Y00134149D01*
X00771Y00129552D01*
X00777533Y00132259D01*
X008126D01*
Y00132186D01*
X00821326Y00128572D01*
X0082494Y00119847D01*
X00825012D01*
Y00061747D01*
X00828816Y00052563D01*
X00838Y00048759D01*
X00847185Y00052563D01*
X00850989Y00061747D01*
Y00119847D01*
X00850497Y00121036D01*
X0084783Y0013444D01*
X00839564Y00146811D01*
X00827193Y00155077D01*
X00816691Y00157166D01*
X00816293Y00157759D01*
X00817893Y00160758D01*
X00862869D01*
X00863454Y00157816D01*
X00859902Y00156345D01*
X00855305Y00145247D01*
X00859902Y00134149D01*
X00871Y00129552D01*
X0087331Y0013051D01*
X00874248Y00128247D01*
X00875012D01*
Y00061747D01*
X00878816Y00052563D01*
X00888Y00048759D01*
X00897185Y00052563D01*
X00900989Y00061747D01*
Y00128247D01*
X0090018Y001302D01*
X00898318Y00139562D01*
X00891908Y00149155D01*
X00882462Y00155467D01*
X00882098Y00156345D01*
X00878546Y00157816D01*
X00879131Y00160758D01*
X00892D01*
X00901184Y00164563D01*
X00904989Y00173747D01*
X00901184Y00182932D01*
X00892Y00186736D01*
X007964D01*
Y00186808D01*
X00787675Y00190422D01*
X00784061Y00199147D01*
X00783989D01*
Y00240721D01*
X00786695Y00247254D01*
X00782098Y00258351D01*
X00771Y00262948D01*
X00759902Y00258351D01*
X00755306Y00247254D01*
X00758012Y00240721D01*
Y00199147D01*
X00757708D01*
X00754984Y00192571D01*
X00748409Y00189848D01*
Y00189544D01*
X00695453D01*
X0069499Y00189736D01*
X00598413D01*
Y00189808D01*
X00589688Y00193422D01*
X00586074Y00202147D01*
X00586002D01*
Y00242221D01*
X00588708Y00248754D01*
X00584111Y00259851D01*
X00573013Y00264448D01*
X00561915Y00259851D01*
X00557318Y00248754D01*
X00560024Y00242221D01*
Y00202147D01*
X00560517Y00200958D01*
X00560796Y00199555D01*
X00558893Y00197236D01*
X005009D01*
Y00197308D01*
X00492175Y00200922D01*
X00488561Y00209647D01*
X00488489D01*
Y00241847D01*
X00487996Y00243036D01*
X0048533Y0025644D01*
X00477064Y00268811D01*
X00464693Y00277077D01*
X00464681Y0027708D01*
X00462245Y00279284D01*
X00462091Y00279338D01*
X00462001Y00279475D01*
X00460193Y0028069D01*
X00459519Y00280826D01*
X00459258Y00280919D01*
X00458866Y00282222D01*
X00458858Y00284D01*
X00462138Y00285359D01*
X00464992Y00292247D01*
X00462138Y00299135D01*
X0045525Y00301989D01*
X0044425D01*
X00437362Y00299135D01*
X00435327Y00294223D01*
X00432327Y00294819D01*
Y00314675D01*
X00435327Y00315272D01*
X00437362Y00310359D01*
X0044425Y00307506D01*
X0045525D01*
X00458241Y00308745D01*
X00458768Y00308648D01*
X00459354Y00308416D01*
X00459769Y00308422D01*
X00460284Y00308644D01*
X00460838Y00308723D01*
X00468228Y0031309D01*
X00468274Y00313152D01*
X00468349Y00313168D01*
X0047089Y00314908D01*
X00471104Y00315237D01*
X00474495Y00317502D01*
X00480242Y00326102D01*
X00482197Y00335934D01*
X00482327Y00336247D01*
X00482338D01*
X00480009Y00347953D01*
X00473379Y00357876D01*
X00463456Y00364507D01*
X0045175Y00366835D01*
Y00366824D01*
X00441365D01*
X00440769Y00369824D01*
X00444094Y00371201D01*
X00445681Y00375035D01*
X00446291Y00375351D01*
X00447318Y00375709D01*
X00448634Y00376011D01*
X00448649Y00376013D01*
X00525321D01*
Y00375955D01*
X00537963Y00378469D01*
X00540563Y00380206D01*
X00542391Y00381115D01*
X00543282Y00380746D01*
X00543855Y00380984D01*
X00544Y00380923D01*
X00551654Y00384094D01*
X00554824Y00391747D01*
X00553218Y00395626D01*
X00553212Y0039604D01*
X00553058Y00396401D01*
X00552939Y00396742D01*
X00552834Y00397119D01*
X00552703Y0039778D01*
Y00524732D01*
X00552855Y00525497D01*
X00552703D01*
Y00554282D01*
X00555703Y00556286D01*
X00559Y00554921D01*
X00564358Y0055714D01*
X00566577Y00562497D01*
Y00588704D01*
X00568971Y0059096D01*
X0057156Y00589887D01*
X00581127Y0059385D01*
X0058509Y00603417D01*
X00582387Y00609943D01*
X00584683Y00612239D01*
X0058825Y00610761D01*
Y00610038D01*
X00588633Y0060988D01*
X00588791Y00609497D01*
X00590297D01*
Y00566897D01*
X00590145D01*
X00592543Y00554841D01*
X00599372Y00544619D01*
X00609594Y0053779D01*
X0062165Y00535392D01*
Y00535544D01*
X006621D01*
Y00534113D01*
X00663172Y00533669D01*
X00663615Y00532597D01*
X00665047D01*
Y00401182D01*
X00664921Y00400748D01*
X00664755Y00400312D01*
X00664567Y00399926D01*
X00664552Y003999D01*
X00663346Y00399401D01*
X00660176Y00391747D01*
X00663346Y00384094D01*
X00671Y00380923D01*
X00678654Y00384094D01*
X00681824Y00391747D01*
X00678654Y00399401D01*
X00677448Y003999D01*
X00677433Y00399925D01*
X00677245Y00400312D01*
X00677079Y00400748D01*
X00676953Y00401182D01*
Y00532597D01*
X00677686D01*
X00673121Y00543619D01*
X006621Y00548184D01*
Y0054745D01*
X00652276D01*
X00650271Y0055045D01*
X00650912Y00551997D01*
X00649327Y00555824D01*
X006455Y00557409D01*
Y00558482D01*
X00640716Y00560464D01*
X00638735Y00565247D01*
X00637662D01*
Y00609997D01*
X00637735D01*
X00635814Y00619654D01*
X00630344Y00627841D01*
X00622157Y00633311D01*
X006125Y00635232D01*
Y00635511D01*
X0060102Y00640267D01*
X00596264Y00651747D01*
X00595912D01*
Y00665911D01*
X00598912Y00666206D01*
X00599344Y00664034D01*
X00608273Y00650671D01*
X00612871Y00647599D01*
X00613097Y00647053D01*
X00614652Y00646409D01*
X00621637Y00641741D01*
X00630211Y00640036D01*
X00632132Y00637882D01*
X00632167Y00637796D01*
X0063249Y00637663D01*
X00632619Y00637681D01*
X00635732Y00630165D01*
X00635452Y00629747D01*
X00635452D01*
X00640445Y00617693D01*
X00649993Y00613738D01*
X00649993Y00611984D01*
X0064603Y00602417D01*
X00649993Y0059285D01*
X0065956Y00588887D01*
X00669127Y0059285D01*
X0067309Y00602417D01*
X00669724Y00610544D01*
X00671487Y00613544D01*
X0067475D01*
Y00613163D01*
X0068558Y00608677D01*
X00690066Y00597847D01*
X00690447D01*
Y00401182D01*
X00690321Y00400748D01*
X00690155Y00400312D01*
X00689967Y00399926D01*
X00689952Y003999D01*
X00688746Y00399401D01*
X00685576Y00391747D01*
X00688746Y00384094D01*
X006964Y00380923D01*
X00704054Y00384094D01*
X00707224Y00391747D01*
X00704054Y00399401D01*
X00702848Y003999D01*
X00702833Y00399925D01*
X00702645Y00400312D01*
X00702479Y00400748D01*
X00702353Y00401182D01*
Y00597847D01*
X00702432D01*
X00700325Y00608441D01*
X00694324Y00617421D01*
X00685343Y00623422D01*
X0067475Y00625529D01*
Y0062545D01*
X00657945D01*
X00657348Y0062845D01*
X00657842Y00628655D01*
X00659744Y00633247D01*
Y0065405D01*
X00659773D01*
X00658403Y00657357D01*
Y00662647D01*
X00650403D01*
X00649984Y00662647D01*
X00649837Y00662744D01*
X00649552Y00662732D01*
X00649433Y00662782D01*
X00647403Y00662647D01*
X00644549Y00660892D01*
X006374D01*
Y00660964D01*
X00624083Y0066648D01*
X00618566Y00679798D01*
X00618494D01*
Y00687376D01*
X00621385Y00690235D01*
X00621997Y00690221D01*
X0062253Y00688866D01*
X00622866Y00687831D01*
X00623192Y0068745D01*
X00626448Y00679589D01*
X0063323Y0067678D01*
X00633415Y00676591D01*
X00634438Y00676156D01*
X00635287Y00675739D01*
X00636004Y00675327D01*
X00636587Y00674929D01*
X00637037Y00674554D01*
X00637359Y00674217D01*
X00637568Y00673929D01*
X00637685Y00673696D01*
X00637742Y00673503D01*
X00637779Y00673115D01*
X00637903Y00672881D01*
Y0067114D01*
X00648904D01*
Y00687642D01*
X00640415D01*
X00640213Y00687758D01*
X0064007Y0068772D01*
X00639934Y00687776D01*
X00639609Y00687642D01*
X00638364D01*
X00635632Y00688773D01*
X00632413Y00696545D01*
X0063225D01*
Y00708244D01*
X00627513D01*
X00626916Y00711244D01*
X00631397Y007131D01*
X00633442Y00718037D01*
X0063668Y00719114D01*
X00637098Y00719024D01*
X0063825Y00718147D01*
Y00715496D01*
X0063825Y00714851D01*
X00638116Y00714527D01*
X0063825Y00712496D01*
X00638338Y00709533D01*
Y00708529D01*
X00638281Y00708244D01*
X0063725Y00708244D01*
X00637115Y00706214D01*
X00637174Y00706071D01*
X00637164Y00705759D01*
X0063725Y00705634D01*
Y00703243D01*
X00636215Y00700744D01*
X0063725D01*
Y00692244D01*
X0064925D01*
Y00705244D01*
X0064925Y00705889D01*
X00649384Y00706214D01*
X0064925Y00708244D01*
X00649162Y00711208D01*
Y00712496D01*
X0064925D01*
X00649385Y00714527D01*
X0064925Y00714851D01*
Y00719497D01*
X00650173Y00720747D01*
X00650173D01*
X00650173Y00720747D01*
X00652026Y00725219D01*
X00654809Y00726202D01*
X00657249Y00724475D01*
Y00721841D01*
X00656796Y00720747D01*
X00656796Y00720746D01*
Y00708244D01*
X0065675Y00708244D01*
X00656631Y00706473D01*
X00656632Y00706468D01*
X00656615Y00706214D01*
X0065675Y00705889D01*
Y00692244D01*
X00665398D01*
X00667325Y00690415D01*
X00667689Y00689558D01*
X00665872Y00687776D01*
X00665635Y00687678D01*
X00665381Y0068772D01*
X00665273Y00687642D01*
X00656902D01*
Y00680485D01*
X0065645Y00679391D01*
X00656902Y00678297D01*
Y0067114D01*
X00664903D01*
X0066539Y0067114D01*
X00665591Y00671024D01*
X00665803Y00671035D01*
X00665872Y00671006D01*
X00667903Y0067114D01*
X00667903Y00672688D01*
X00668019Y00672889D01*
X00668051Y00673133D01*
X00668075Y00673197D01*
X00668198Y00673389D01*
X00668461Y00673686D01*
X00668882Y00674061D01*
X00669462Y00674488D01*
X00670176Y00674939D01*
X00672144Y00675965D01*
X00673334Y00676496D01*
X00673397Y00676563D01*
X00679889Y00679252D01*
X00682928Y00686589D01*
X00683173Y00686858D01*
X00683625Y00688114D01*
X00684288Y00689871D01*
X00685271Y00692244D01*
X0068575D01*
Y00693401D01*
X00687132Y00696738D01*
X0068575D01*
Y00705244D01*
X0068575Y00705889D01*
X00685884Y00706214D01*
X00685867Y00706468D01*
X00685868Y00706473D01*
X0068575Y00708244D01*
X00685703Y00711225D01*
Y00732635D01*
X00685775D01*
X0069145Y00746335D01*
X00694271Y00747503D01*
X00696765Y00745836D01*
Y00740735D01*
X00696765Y00740435D01*
Y00737735D01*
X00696765Y00737435D01*
Y00728035D01*
X00696765Y00727735D01*
Y00725035D01*
X00696765Y00724735D01*
Y00715535D01*
X00696765Y00715035D01*
Y00712535D01*
X00696765Y00712035D01*
Y00702535D01*
X00716265D01*
Y00712035D01*
X00716265Y00712535D01*
Y00715035D01*
X00716265Y00715535D01*
Y00724735D01*
X00716265Y00725035D01*
Y00727735D01*
X00716265Y00728035D01*
Y00737435D01*
X00716265Y00737735D01*
Y00740435D01*
X00716265Y00740735D01*
Y00750435D01*
X00716265Y00750435D01*
Y00753035D01*
X00716265D01*
X00716265Y00753435D01*
Y00762735D01*
X00716265Y00763035D01*
Y00765735D01*
X00716265Y00766035D01*
Y00775435D01*
X00716265Y00775735D01*
Y00778435D01*
X00716265Y00778735D01*
Y00788135D01*
X00716265Y00788435D01*
Y00791135D01*
X00716265Y00791435D01*
Y00801135D01*
X00715715D01*
Y00813719D01*
X00715794Y00814085D01*
X00716098Y00815022D01*
X00716417Y00815678D01*
X00716702Y00816065D01*
X00716913Y00816242D01*
X00717076Y00816315D01*
X0071758Y00816382D01*
X0071778Y00816497D01*
X0071985D01*
Y00821651D01*
X0072285Y00822248D01*
X00724066Y00819313D01*
X0073325Y00815508D01*
X00742434Y00819313D01*
X00743027Y00820744D01*
X00743412Y00820991D01*
X00744072Y00821348D01*
X00744745Y00821648D01*
X00745435Y00821893D01*
X00745998Y00822044D01*
X00751D01*
X00751Y00821997D01*
X00752771Y00821878D01*
X00752776Y0082188D01*
X00753031Y00821863D01*
X00753355Y00821997D01*
X00764D01*
X00764645Y00821997D01*
X0076497Y00821863D01*
X00765224Y0082188D01*
X00765229Y00821878D01*
X00767Y00821997D01*
X00769981Y00822044D01*
X00772882D01*
Y00805579D01*
X00771996Y00802747D01*
X00769417Y00801135D01*
X00763015D01*
Y00796135D01*
X00762015D01*
Y00795135D01*
X00752265D01*
Y00791435D01*
X00752265Y00791135D01*
Y00788435D01*
X00752265Y00788135D01*
Y00781318D01*
X00749265Y00779313D01*
X00744714Y00781198D01*
X00740034Y00792497D01*
X00739662D01*
X00738077Y00796324D01*
X0073425Y00797909D01*
X00730423Y00796324D01*
X00728838Y00792497D01*
X00728726D01*
X00730803Y00782055D01*
X00736718Y00773203D01*
X0074557Y00767287D01*
X00752265Y00765956D01*
X00752265Y00765735D01*
Y00763035D01*
X00752265Y00762735D01*
Y00753435D01*
X00752265Y00753035D01*
Y00750435D01*
X00752265Y00750035D01*
Y00740435D01*
X00752265D01*
Y00737735D01*
X00752265D01*
Y0072831D01*
X00752265Y00727735D01*
X00751869Y00724899D01*
X00743749Y00721536D01*
X00739021Y00710122D01*
X00739838D01*
Y00695122D01*
X00739Y00695122D01*
X00738866Y00693098D01*
X00738944Y00692908D01*
X00738935Y00692549D01*
X00739Y00692463D01*
Y00675122D01*
X00741548D01*
X00741773Y00675D01*
X00742185Y00674957D01*
X00742284Y00674921D01*
X00742372Y00674863D01*
X00742506Y00674719D01*
X00742535Y00674672D01*
X00743018Y00671872D01*
X00742895Y0067006D01*
X00742897Y00670051D01*
X00742884Y00669842D01*
X00743018Y00669517D01*
Y00657296D01*
X00742664Y00656876D01*
X0074088Y00656691D01*
X00738018Y00659256D01*
Y00662872D01*
X00733018D01*
Y00655872D01*
X00735233D01*
X0073583Y00652872D01*
X00727831Y00649559D01*
X00722317Y00636247D01*
X00723173D01*
Y00609497D01*
X00723132D01*
X0072551Y00603757D01*
X0073125Y00601379D01*
Y00601421D01*
X00736608Y0060364D01*
X00738827Y00608997D01*
X00739161Y00609497D01*
X0074045D01*
X00738327Y00614624D01*
Y00636247D01*
X00739635D01*
X00740077Y00637313D01*
X00741143Y00637755D01*
Y00639063D01*
X00837035D01*
X00837988Y00638745D01*
X0083894Y00638233D01*
X00839712Y00637602D01*
X00840343Y0063683D01*
X00840855Y00635878D01*
X00841173Y00634924D01*
Y00584783D01*
X0084047D01*
X00845395Y00572892D01*
X00845892Y0057339D01*
X00992982Y00426301D01*
X00991315Y00423806D01*
X00987265Y00425484D01*
Y00408497D01*
X01004251D01*
X01001424Y00415323D01*
X01003743Y00417226D01*
X01009129Y00413627D01*
X01021771Y00411113D01*
Y00411171D01*
X01057981D01*
X01066719Y00408315D01*
X01066781Y0040832D01*
X01066829Y00408283D01*
X01069282Y00407623D01*
X01070299Y00406943D01*
X01081662Y00404683D01*
X01081686Y00404673D01*
X011005D01*
X01100585Y00404709D01*
X0111162Y00406904D01*
X01121047Y00413203D01*
X011241Y00417772D01*
X01124129Y00417779D01*
X01124406Y00418224D01*
X01124802Y00418568D01*
X01125307Y00419578D01*
X01127346Y0042263D01*
X01127684Y00424329D01*
X01128894Y00426747D01*
X011295Y00426747D01*
X01129634Y00428778D01*
X011295Y00429102D01*
X011295Y00429747D01*
Y00433457D01*
X01129541Y00433665D01*
X01129577Y0043375D01*
Y00439747D01*
X011295Y00439932D01*
Y00452747D01*
X011145D01*
Y00439932D01*
X01114423Y00439747D01*
Y0043375D01*
X0111403D01*
X01110067Y00424183D01*
X011005Y0042022D01*
Y00419827D01*
X01081686D01*
Y00420164D01*
X01074Y00423347D01*
Y00424747D01*
X01072397Y00424839D01*
X01072319Y00424824D01*
X01071632Y00424855D01*
X01071456Y00424747D01*
X01069807D01*
X01066Y00426324D01*
X01021771D01*
Y00426396D01*
X01009219Y00431595D01*
X01009168Y00431544D01*
X00858701Y00582011D01*
X00857788Y00584783D01*
X00857641Y00585138D01*
X00856327Y00587744D01*
Y0064664D01*
Y00708497D01*
X00854108Y00713855D01*
X0084875Y00716074D01*
X00843392Y00713855D01*
X00841173Y00708497D01*
Y00658355D01*
X00840855Y00657402D01*
X00840343Y0065645D01*
X00839712Y00655678D01*
X0083894Y00655047D01*
X00837988Y00654535D01*
X00837035Y00654217D01*
X00823832D01*
X00821518Y00655872D01*
X00821518Y00657217D01*
Y00662872D01*
X00809518D01*
Y00657217D01*
X00809518Y00655872D01*
X00807204Y00654217D01*
X00806832D01*
X00804518Y00655872D01*
X00804518Y00657217D01*
Y00668872D01*
X00804518Y00669518D01*
X00804652Y00669842D01*
X00804636Y00670097D01*
X00804637Y00670101D01*
X00804518Y00671872D01*
X00804471Y00674853D01*
Y00676286D01*
X00804563Y00676649D01*
X00804718Y0067712D01*
X00804747Y00677189D01*
X00805422Y00677469D01*
X00808592Y00685122D01*
X00805422Y00692776D01*
X00803325Y00693644D01*
X00803097Y00693811D01*
X00802714Y00694128D01*
X00802346Y00694473D01*
X0080152Y00695379D01*
X00801179Y00695812D01*
X00801178Y00695818D01*
X00800405Y00696974D01*
X00799922Y00697702D01*
X00799529Y00698395D01*
X00799377Y00698513D01*
X00795119Y00704885D01*
X00786051Y00710944D01*
X00775356Y00713072D01*
Y00713072D01*
X00772764Y00714058D01*
X00771765Y00715035D01*
Y00724323D01*
X00771765Y00725035D01*
X00773484Y00727323D01*
X00901513D01*
Y00726125D01*
X00905138Y00724623D01*
X0090664Y00720997D01*
X00906767D01*
X00912474Y00707221D01*
X0092625Y00701514D01*
Y00702585D01*
X0094225D01*
Y0070137D01*
X00957366Y00707631D01*
X00962088Y00719031D01*
X00964654Y00720094D01*
X00967824Y00727747D01*
X00964654Y00735401D01*
X0096261Y00736247D01*
Y00739247D01*
X00964654Y00740094D01*
X00965453Y00742023D01*
X00968453D01*
X00971989Y00733486D01*
X00985Y00728097D01*
Y00727971D01*
X00989401Y00726148D01*
X00991224Y00721747D01*
X00992132D01*
Y00565147D01*
X00992105D01*
X00994659Y0055231D01*
X0100193Y00541428D01*
X01012813Y00534156D01*
X01018414Y00533042D01*
X0102168Y00532076D01*
X01022Y0053197D01*
X01022Y00531497D01*
X01024031Y00531363D01*
X01024182Y00531426D01*
X01024504Y00531415D01*
X0102462Y00531497D01*
X01055D01*
X01055645Y00531497D01*
X01055969Y00531363D01*
X01056195Y00531378D01*
X01056202Y00531375D01*
X01058Y00531497D01*
X01060996Y00531629D01*
X0106925D01*
Y00531051D01*
X01076712Y0052796D01*
X01079583Y00521028D01*
X01079229Y00520497D01*
X01079229D01*
X01086045Y00504042D01*
X011025Y00497226D01*
Y00498379D01*
X01119676D01*
X01122Y00496747D01*
X01122Y00495379D01*
Y00489747D01*
X01128D01*
X01134D01*
Y00496747D01*
X01129549D01*
X01129253Y00499747D01*
X01133577Y00500607D01*
X01136401Y00502494D01*
X01139047Y0050108D01*
Y00496747D01*
X01139Y00496747D01*
X01138881Y00494976D01*
X01138883Y00494972D01*
X01138866Y00494717D01*
X01139Y00494392D01*
Y00483747D01*
X01139Y00483102D01*
X01138866Y00482778D01*
X01138883Y00482523D01*
X01138881Y00482518D01*
X01139Y00480747D01*
X01139047Y00477767D01*
Y00473747D01*
X01139Y00473747D01*
X01138881Y00471976D01*
X01138883Y00471972D01*
X01138866Y00471717D01*
X01139Y00471392D01*
Y00460747D01*
X01139Y00460102D01*
X01138866Y00459778D01*
X01138883Y00459523D01*
X01138881Y00459518D01*
X01139Y00457747D01*
X01139047Y00454767D01*
Y00453599D01*
X01138923Y00453063D01*
X01138815Y00452747D01*
X011375D01*
X01137365Y00450717D01*
X01137414Y004506D01*
X01137402Y00450319D01*
X011375Y00450169D01*
Y00426747D01*
X011525D01*
Y00449747D01*
X011525Y00450169D01*
X01152597Y00450319D01*
X01152586Y004506D01*
X01152634Y00450717D01*
X011525Y00452747D01*
X01151356Y00454894D01*
X01151Y00457747D01*
X01151119Y00459518D01*
X01151117Y00459523D01*
X01151134Y00459778D01*
X01151Y00460102D01*
Y00470747D01*
X01151Y00471393D01*
X01151134Y00471717D01*
X01151117Y00471972D01*
X01151119Y00471976D01*
X01151Y00473747D01*
X01150953Y00476728D01*
Y00480747D01*
X01151Y00480747D01*
X01151119Y00482518D01*
X01151117Y00482523D01*
X01151134Y00482778D01*
X01151Y00483102D01*
Y00493747D01*
X01151Y00494393D01*
X01151134Y00494717D01*
X01151117Y00494972D01*
X01151119Y00494976D01*
X01151Y00496747D01*
X01150953Y00499728D01*
Y00512736D01*
X01151096Y00513536D01*
X01153Y00515747D01*
X01155993Y00515923D01*
X01165043D01*
X0116657Y00515573D01*
X0116807Y0051505D01*
X01169188Y00514467D01*
X01169944Y00513869D01*
X01170403Y00513282D01*
X01170658Y00512667D01*
X01170782Y00511662D01*
X011709Y00511454D01*
Y00509897D01*
X0117293Y00509763D01*
X01172995Y0050979D01*
X01173196Y00509779D01*
X01173404Y00509897D01*
X012131D01*
Y00544197D01*
X011739D01*
X01173392Y00544197D01*
X01173175Y00544318D01*
X01172988Y00544308D01*
X0117293Y00544332D01*
X011709Y00544197D01*
X011709Y00542629D01*
X01170779Y00542411D01*
X0117065Y00541272D01*
X01170368Y0054053D01*
X01169883Y00539855D01*
X01169118Y00539197D01*
X01168007Y00538567D01*
X01166522Y00538004D01*
X0116479Y00537571D01*
X01153D01*
X01153Y00537747D01*
X01151121Y00537876D01*
X0115111Y00537872D01*
X01150969Y00537882D01*
X01150645Y00537747D01*
X01133D01*
Y00528736D01*
X01132176Y00526747D01*
X01132977Y00524814D01*
X01132492Y00523893D01*
X01131564Y00522434D01*
X01127308Y00516999D01*
X01125Y00516043D01*
X01122Y00518048D01*
Y00525747D01*
X01112D01*
X01102D01*
Y00521432D01*
X01099Y00519207D01*
X01098043Y00519498D01*
X01097629Y00520497D01*
X01096618D01*
X01096437Y00520933D01*
X01094448Y00530934D01*
X01088536Y00539783D01*
X01079687Y00545695D01*
X01069686Y00547685D01*
X0106925Y00547865D01*
X01058D01*
X01058Y00547997D01*
X01056202Y00548119D01*
X01056195Y00548117D01*
X01055969Y00548132D01*
X01055645Y00547997D01*
X01025505D01*
X01013481Y00552978D01*
X0100844Y00565147D01*
X01008368D01*
Y00721747D01*
X01009624D01*
X01002412Y00739159D01*
X00985Y00746372D01*
Y00746497D01*
X00985D01*
Y00746497D01*
X00983618D01*
Y00767101D01*
X0098656Y00767687D01*
X00989777Y00759922D01*
X01003701Y00754154D01*
Y00774846D01*
Y00795539D01*
X00989777Y00789771D01*
X00986332Y00781454D01*
X00983212Y00781761D01*
X00981187Y0079194D01*
X0097428Y00802277D01*
X00963943Y00809184D01*
X00951777Y00811604D01*
X0095175Y00811615D01*
X00816404D01*
Y00812098D01*
X00806178Y00807862D01*
X00803418Y008012D01*
X00801949Y00800591D01*
X00801752Y00800115D01*
X0079422D01*
X0079175Y00801394D01*
X00791688Y00802063D01*
X00794507Y00804143D01*
X0079625Y0080342D01*
X00801608Y0080564D01*
X00803827Y00810997D01*
Y00846747D01*
X00801608Y00852105D01*
X0079625Y00854324D01*
X00790892Y00852105D01*
X00790892Y00852105D01*
X00790753Y00851955D01*
X00789Y00850997D01*
X00782D01*
Y00844997D01*
Y00838997D01*
X00788673D01*
Y00833997D01*
X00776D01*
X00775355Y00833997D01*
X00775031Y00834132D01*
X00774776Y00834115D01*
X00774771Y00834116D01*
X00773Y00833997D01*
X00770019Y0083395D01*
X00767D01*
X00767Y00833997D01*
X00765229Y00834116D01*
X00765224Y00834115D01*
X0076497Y00834132D01*
X00764645Y00833997D01*
X00754D01*
X00753355Y00833997D01*
X00753031Y00834132D01*
X00752776Y00834115D01*
X00752771Y00834116D01*
X00751Y00833997D01*
X00748019Y0083395D01*
X00746479D01*
X0074589Y00834126D01*
X00745249Y00834381D01*
X00744632Y00834693D01*
X00744037Y00835065D01*
X00743459Y00835499D01*
X00743268Y0083567D01*
X00742434Y00837682D01*
X0073325Y00841486D01*
X00724066Y00837682D01*
X0072285Y00834747D01*
X0071985Y00835344D01*
Y00840497D01*
X00697077D01*
Y00873716D01*
X006995Y00875335D01*
X00703327Y0087692D01*
X00704912Y00880747D01*
X00703327Y00884574D01*
X006995Y00886159D01*
X00698128Y00885591D01*
X00694858Y00886105D01*
X00693745Y00886566D01*
X006895Y00888324D01*
D02*
G37*
G36*
X00205074Y00833997D02*
X001935D01*
Y00822423D01*
X00201684Y00825813D01*
X00205074Y00833997D01*
D02*
G37*
G36*
X001915D02*
X00179925D01*
X00183316Y00825813D01*
X001915Y00822423D01*
Y00833997D01*
D02*
G37*
G36*
X001425Y00847986D02*
X00133316Y00844182D01*
X00129511Y00834997D01*
X00133316Y00825813D01*
X001425Y00822009D01*
X00151684Y00825813D01*
X00155489Y00834997D01*
X00151684Y00844182D01*
X001425Y00847986D01*
D02*
G37*
G36*
X0129Y00868141D02*
X01279231Y00865999D01*
X01270101Y00859899D01*
X01264001Y00850769D01*
X01261859Y0084D01*
X01264001Y00829231D01*
X01270101Y00820101D01*
X01279231Y00814001D01*
X0129Y00811859D01*
X01300769Y00814001D01*
X01309899Y00820101D01*
X01315999Y00829231D01*
X01318141Y0084D01*
X01315999Y00850769D01*
X01309899Y00859899D01*
X01300769Y00865999D01*
X0129Y00868141D01*
D02*
G37*
G36*
X0006D02*
X00049231Y00865999D01*
X00040101Y00859899D01*
X00034001Y00850769D01*
X00031859Y0084D01*
X00034001Y00829231D01*
X00040101Y00820101D01*
X00049231Y00814001D01*
X0006Y00811859D01*
X00070769Y00814001D01*
X00079899Y00820101D01*
X00085999Y00829231D01*
X00088141Y0084D01*
X00085999Y00850769D01*
X00079899Y00859899D01*
X00070769Y00865999D01*
X0006Y00868141D01*
D02*
G37*
G36*
X002425Y00847986D02*
X00233316Y00844182D01*
X00229511Y00834997D01*
X00233316Y00825813D01*
X00234943Y00825139D01*
X00235161Y00824803D01*
X00235462Y00824232D01*
X00235721Y0082362D01*
X00235936Y00822963D01*
X00236006Y00822676D01*
Y00819991D01*
X00235905Y00819494D01*
X00235761Y00819012D01*
X00235754Y00818997D01*
X002345D01*
X00234366Y00816967D01*
X00234424Y00816825D01*
X00234414Y00816514D01*
X002345Y00816389D01*
Y00806997D01*
X00241306D01*
X002425Y00806503D01*
X00243694Y00806997D01*
X002505D01*
Y00815997D01*
X002505Y00816389D01*
X00250586Y00816514D01*
X00250576Y00816825D01*
X00250634Y00816967D01*
X002505Y00818997D01*
X00248994Y00821893D01*
Y00822676D01*
X00249064Y00822963D01*
X00249279Y0082362D01*
X00249538Y00824232D01*
X00249839Y00824803D01*
X00250057Y00825139D01*
X00251684Y00825813D01*
X00255489Y00834997D01*
X00251684Y00844182D01*
X002425Y00847986D01*
D02*
G37*
G36*
X00761015Y00801135D02*
X00752265D01*
Y00797135D01*
X00761015D01*
Y00801135D01*
D02*
G37*
G36*
X00082781Y00785131D02*
X0008075Y00784997D01*
X00077854Y00783491D01*
X0006475D01*
Y0078413D01*
X00054226Y00779771D01*
X00050261Y00770197D01*
X00047816Y00769184D01*
X00044011Y0076D01*
X00047816Y00750816D01*
X00057Y00747011D01*
X00066185Y00750816D01*
X00069989Y0076D01*
X00066881Y00767503D01*
X00068786Y00770503D01*
X00079756D01*
X00080254Y00770403D01*
X00080735Y00770258D01*
X0008075Y00770251D01*
Y00768997D01*
X00082781Y00768863D01*
X00082922Y00768921D01*
X00083233Y00768911D01*
X00083359Y00768997D01*
X0009275D01*
Y00775804D01*
X00093244Y00776997D01*
X0009275Y00778191D01*
Y00784997D01*
X0008375D01*
X00083359Y00784997D01*
X00083233Y00785083D01*
X00082922Y00785073D01*
X00082781Y00785131D01*
D02*
G37*
G36*
X01005701Y00795539D02*
Y00775846D01*
X01025394D01*
X01019626Y00789771D01*
X01005701Y00795539D01*
D02*
G37*
G36*
X005935Y00805236D02*
X00584316Y00801432D01*
X00580511Y00792247D01*
X00584316Y00783063D01*
X0058725Y00781847D01*
X00586654Y00778847D01*
X005815D01*
Y00754847D01*
X006055D01*
Y00778847D01*
X00600346D01*
X0059975Y00781847D01*
X00602684Y00783063D01*
X00606489Y00792247D01*
X00602684Y00801432D01*
X005935Y00805236D01*
D02*
G37*
G36*
X01025394Y00773846D02*
X01005701D01*
Y00754154D01*
X01019626Y00759922D01*
X01025394Y00773846D01*
D02*
G37*
G36*
X01145Y00791771D02*
X01130841Y00785907D01*
X01124976Y00771747D01*
X01130841Y00757588D01*
X01145Y00751723D01*
X01159159Y00757588D01*
X01165024Y00771747D01*
X01159159Y00785907D01*
X01145Y00791771D01*
D02*
G37*
G36*
X011666Y00877148D02*
X01145D01*
X01139774Y00874983D01*
X01137D01*
X01125519Y00870228D01*
X01120764Y00858747D01*
X01125519Y00847267D01*
X01137Y00842511D01*
X01139774D01*
X01145Y00840347D01*
X011666D01*
Y00840275D01*
X01171498Y00838245D01*
X01173527Y00833347D01*
X01173599D01*
Y00743034D01*
X01172Y00740247D01*
X0117196Y0073885D01*
X01171978Y00738663D01*
X01171884Y00738501D01*
X01171775Y00737675D01*
X01171575Y00737224D01*
X01171187Y0073676D01*
X01170504Y00736256D01*
X01169468Y00735752D01*
X01168067Y00735296D01*
X01166828Y0073503D01*
X01152614D01*
X01151241Y00734461D01*
X01142913Y00732805D01*
X01135852Y00728087D01*
X01134479Y00727518D01*
X01134192Y00727806D01*
X01126661Y00724687D01*
X01126661Y00724687D01*
Y00724687D01*
X01124264Y0072403D01*
X01116D01*
X01116Y00724747D01*
X01113969Y00724882D01*
X01113647Y00724748D01*
X01113221Y00724748D01*
X0111322Y00724747D01*
X01096D01*
Y0071443D01*
X01095717Y00713747D01*
X01096Y00713065D01*
Y00709286D01*
X0109598Y00709278D01*
X01095346Y00707747D01*
Y00683753D01*
X010955Y0068338D01*
Y00681747D01*
X01097126D01*
X01097511Y00681588D01*
X01114471D01*
X01114855Y00681747D01*
X011265D01*
Y00695747D01*
X01116636D01*
Y00703465D01*
X01124264D01*
X01125059Y00703794D01*
X0112525Y00703715D01*
X01126661D01*
X01127491Y00704058D01*
X01138694Y00706286D01*
X01148192Y00712633D01*
X01149021Y00712976D01*
X01149657Y00712341D01*
X01152614Y00713566D01*
Y00714464D01*
X01166828D01*
X01168067Y00714199D01*
X01169468Y00713743D01*
X01170504Y00713239D01*
X01171187Y00712735D01*
X01171575Y0071227D01*
X01171775Y00711819D01*
X01171884Y00710994D01*
X01172Y00710794D01*
Y00709247D01*
X01174031Y00709113D01*
X01174101Y00709142D01*
X01174314Y00709131D01*
X01174514Y00709247D01*
X01212D01*
Y00737247D01*
X01212Y00737893D01*
X01212134Y00738217D01*
X01212Y00740247D01*
X01210917D01*
X01210907Y00740265D01*
X01210599Y00741301D01*
X01210401Y0074431D01*
Y00833347D01*
X01209304Y00835995D01*
X0120654Y00849891D01*
X01197169Y00863916D01*
X01183144Y00873287D01*
X01169248Y00876051D01*
X011666Y00877148D01*
D02*
G37*
G36*
X01085Y00724747D02*
X01076D01*
Y00714747D01*
X01085D01*
Y00724747D01*
D02*
G37*
G36*
X01074D02*
X01065D01*
Y00714747D01*
X01074D01*
Y00724747D01*
D02*
G37*
G36*
X00058Y00722574D02*
Y00711D01*
X00069575D01*
X00066185Y00719184D01*
X00058Y00722574D01*
D02*
G37*
G36*
X00056Y00722574D02*
X00047816Y00719184D01*
X00044426Y00711D01*
X00056D01*
Y00722574D01*
D02*
G37*
G36*
X01085Y00712747D02*
X01076D01*
Y00702747D01*
X01085D01*
Y00712747D01*
D02*
G37*
G36*
X01074D02*
X01065D01*
Y00702747D01*
X01074D01*
Y00712747D01*
D02*
G37*
G36*
X00069575Y00709D02*
X00058D01*
Y00697426D01*
X00066185Y00700816D01*
X00069575Y00709D01*
D02*
G37*
G36*
X00056D02*
X00044426D01*
X00047816Y00700816D01*
X00056Y00697426D01*
Y00709D01*
D02*
G37*
G36*
X0112447Y00669882D02*
X01124465Y0066988D01*
X0112446Y00669882D01*
X01124225Y00669783D01*
X01123416D01*
X0112333Y00669747D01*
X01112D01*
Y00662747D01*
Y00655747D01*
X01120505D01*
X011215Y00655335D01*
X01122495Y00655747D01*
X0112333D01*
X01123416Y00655712D01*
X01124231D01*
X0112447Y00655613D01*
X01124525Y00655636D01*
X01124582Y00655616D01*
X01126419Y00655712D01*
X01159479D01*
Y0065564D01*
X01172Y00650453D01*
Y00628247D01*
X01172Y00627602D01*
X01171866Y00627278D01*
X01171881Y0062704D01*
X0117188Y00627034D01*
X01172Y00625247D01*
X01172517Y00622317D01*
Y00615717D01*
X011709Y00612897D01*
X01170766Y00610867D01*
X011709Y00610542D01*
X011709Y00609897D01*
Y00578597D01*
X01190561D01*
X01192Y00578001D01*
X01193439Y00578597D01*
X012131D01*
Y00609897D01*
X012131Y00610542D01*
X01213234Y00610867D01*
X012131Y00612897D01*
X01211483Y00615717D01*
Y00625247D01*
X01212Y00625247D01*
X01212121Y00627034D01*
X01212119Y0062704D01*
X01212134Y00627278D01*
X01212Y00627602D01*
Y00656247D01*
X0119341D01*
X01192Y00656831D01*
X0119059Y00656247D01*
X0118645D01*
X01182414Y00660283D01*
X01182478Y00660346D01*
X01171926Y00667396D01*
X01159479Y00669872D01*
Y00669783D01*
X01124708D01*
X0112447Y00669882D01*
D02*
G37*
G36*
X00821518Y00671872D02*
X00816518D01*
Y00664872D01*
X00821518D01*
Y00671872D01*
D02*
G37*
G36*
X00814518D02*
X00809518D01*
Y00664872D01*
X00814518D01*
Y00671872D01*
D02*
G37*
G36*
X00738018D02*
X00733018D01*
Y00664872D01*
X00738018D01*
Y00671872D01*
D02*
G37*
G36*
X00731018D02*
X00726018D01*
Y00664872D01*
X00731018D01*
Y00671872D01*
D02*
G37*
G36*
Y00662872D02*
X00726018D01*
Y00655872D01*
X00731018D01*
Y00662872D01*
D02*
G37*
G36*
X0108725Y00670627D02*
X0107443Y00665317D01*
X0106912Y00652497D01*
X01069965D01*
Y00617527D01*
X01069942Y00617391D01*
X01069748Y00616604D01*
X01069549Y00616067D01*
X01069429Y00615853D01*
X01069409Y00615849D01*
X01069248Y00615747D01*
X0106775D01*
Y00614184D01*
X01067631Y0061397D01*
X01067563Y006134D01*
X01067473Y00613171D01*
X01067299Y00612938D01*
X01066959Y00612656D01*
X01066385Y00612342D01*
X01065553Y00612038D01*
X01064664Y00611824D01*
X01058D01*
X01058Y00612497D01*
X01055969Y00612632D01*
X01055645Y00612497D01*
X01055Y00612497D01*
X01022D01*
Y00595997D01*
X01055D01*
X01055645Y00595997D01*
X01055969Y00595863D01*
X01058Y00595997D01*
X01060999Y0059667D01*
X01064465D01*
X01065504Y00596392D01*
X01066321Y00596058D01*
X01066891Y00595711D01*
X01067248Y00595381D01*
X01067458Y00595067D01*
X01067584Y00594713D01*
X01067658Y00594017D01*
X0106775Y00593849D01*
Y00579747D01*
X0108425D01*
Y00612747D01*
X0108425Y00613392D01*
X01084384Y00613717D01*
X0108425Y00615747D01*
X01084036Y00618658D01*
Y00652497D01*
X01085356Y00652497D01*
X0108725Y00654391D01*
X01089776Y00655697D01*
X01097434Y00655653D01*
X01097531Y00655613D01*
X01097604Y00655643D01*
X01097678Y00655618D01*
X01097745Y00655651D01*
X01099601Y0065564D01*
X01099863Y00655747D01*
X0111D01*
Y00662747D01*
Y00669747D01*
X010985D01*
X01097855Y00669747D01*
X01097531Y00669882D01*
X01097428Y00669875D01*
X01097417Y00669879D01*
X010955Y00669747D01*
X01092502Y00669753D01*
X01087291Y00669783D01*
X0108725Y00670627D01*
D02*
G37*
G36*
X00057Y00672989D02*
X00047816Y00669184D01*
X00044011Y0066D01*
X00047816Y00650816D01*
X00057Y00647011D01*
X00066185Y00650816D01*
X00069989Y0066D01*
X00066185Y00669184D01*
X00057Y00672989D01*
D02*
G37*
G36*
X0011872Y00618377D02*
X0010972D01*
Y00609377D01*
X0011872D01*
Y00618377D01*
D02*
G37*
G36*
X0010772D02*
X0009872D01*
Y00609377D01*
X0010772D01*
Y00618377D01*
D02*
G37*
G36*
X0114875Y00615747D02*
X011415D01*
Y00598747D01*
X0114875D01*
Y00615747D01*
D02*
G37*
G36*
X011395D02*
X0113225D01*
Y00598747D01*
X011395D01*
Y00615747D01*
D02*
G37*
G36*
X0011872Y00607377D02*
X0010972D01*
Y00598377D01*
X0011872D01*
Y00607377D01*
D02*
G37*
G36*
X0010772D02*
X0009872D01*
Y00598377D01*
X0010772D01*
Y00607377D01*
D02*
G37*
G36*
X00831716Y00611763D02*
X00811716D01*
Y00591763D01*
X00831716D01*
Y00611763D01*
D02*
G37*
G36*
X0016272Y00611401D02*
X00155066Y0060823D01*
X00151896Y00600577D01*
X00155066Y00592923D01*
X0016272Y00589753D01*
X00170374Y00592923D01*
X00173544Y00600577D01*
X00170374Y0060823D01*
X0016272Y00611401D01*
D02*
G37*
G36*
X0114875Y00596747D02*
X011415D01*
Y00579747D01*
X0114875D01*
Y00596747D01*
D02*
G37*
G36*
X011395D02*
X0113225D01*
Y00579747D01*
X011395D01*
Y00596747D01*
D02*
G37*
G36*
X00295574Y0066625D02*
Y00666228D01*
X00284523Y0066403D01*
X00275154Y0065777D01*
X00268893Y00648401D01*
X00266715Y00637451D01*
X00266673Y00637349D01*
Y00591933D01*
X00266596Y00591901D01*
X00263426Y00584247D01*
X00266596Y00576594D01*
X0027425Y00573423D01*
X00281904Y00576594D01*
X00285074Y00584247D01*
X00281904Y00591901D01*
X00281827Y00591933D01*
Y00637349D01*
X00282235D01*
X00286142Y00646782D01*
X00295574Y00650689D01*
Y00651096D01*
X00300932Y00653316D01*
X00303151Y00658673D01*
X00300932Y00664031D01*
X00295574Y0066625D01*
D02*
G37*
G36*
X00821716Y00587187D02*
X00814062Y00584017D01*
X00810892Y00576363D01*
X00814062Y00568709D01*
X00821716Y00565539D01*
X00829369Y00568709D01*
X0083254Y00576363D01*
X00829369Y00584017D01*
X00821716Y00587187D01*
D02*
G37*
G36*
X0016272Y00586001D02*
X00155066Y0058283D01*
X00151896Y00575177D01*
X00155066Y00567523D01*
X0016272Y00564353D01*
X00170374Y00567523D01*
X00173544Y00575177D01*
X00170374Y0058283D01*
X0016272Y00586001D01*
D02*
G37*
G36*
X007485Y00567909D02*
X00744673Y00566324D01*
X00743088Y00562497D01*
X00744673Y0055867D01*
X007485Y00557085D01*
X00752327Y0055867D01*
X00753912Y00562497D01*
X00752327Y00566324D01*
X007485Y00567909D01*
D02*
G37*
G36*
X0016372Y00559986D02*
Y00550576D01*
X0017313D01*
X00170374Y0055723D01*
X0016372Y00559986D01*
D02*
G37*
G36*
X0016172Y00559986D02*
X00155066Y0055723D01*
X0015231Y00550576D01*
X0016172D01*
Y00559986D01*
D02*
G37*
G36*
X00912088Y00598242D02*
X00907496Y00596339D01*
X00905594Y00591747D01*
Y00579147D01*
X00905473D01*
X0090741Y00569408D01*
X00905Y00567159D01*
X00901173Y00565574D01*
X00899588Y00561747D01*
Y00559147D01*
X00899405D01*
X00901764Y00547286D01*
X00908483Y0053723D01*
X00918539Y00530511D01*
X009304Y00528152D01*
Y00528335D01*
X00966D01*
X00969827Y0052992D01*
X00971412Y00533747D01*
X00969827Y00537574D01*
X00966Y00539159D01*
X009304D01*
Y00539231D01*
X00916317Y00545064D01*
X00912123Y0055519D01*
X00914782Y00556611D01*
X0091485Y00556509D01*
X00925236Y00549569D01*
X00937488Y00547132D01*
Y00547253D01*
X00979D01*
X00983592Y00549155D01*
X00985494Y00553747D01*
X00983592Y00558339D01*
X00979Y00560242D01*
X00937488D01*
Y00560313D01*
X00924171Y0056583D01*
X00918654Y00579147D01*
X00918582D01*
Y00591747D01*
X0091668Y00596339D01*
X00912088Y00598242D01*
D02*
G37*
G36*
X00821716Y00561787D02*
X00814062Y00558617D01*
X00810892Y00550963D01*
X00814062Y00543309D01*
X00821716Y00540139D01*
X00829369Y00543309D01*
X0083254Y00550963D01*
X00829369Y00558617D01*
X00821716Y00561787D01*
D02*
G37*
G36*
X0017313Y00548576D02*
X0016372D01*
Y00539166D01*
X00170374Y00541922D01*
X0017313Y00548576D01*
D02*
G37*
G36*
X0016172D02*
X0015231D01*
X00155066Y00541922D01*
X0016172Y00539166D01*
Y00548576D01*
D02*
G37*
G36*
X01122Y00537747D02*
X01113D01*
Y00527747D01*
X01122D01*
Y00537747D01*
D02*
G37*
G36*
X01111D02*
X01102D01*
Y00527747D01*
X01111D01*
Y00537747D01*
D02*
G37*
G36*
X00822716Y00535973D02*
Y00526563D01*
X00832125D01*
X00829369Y00533217D01*
X00822716Y00535973D01*
D02*
G37*
G36*
X00820716Y00535973D02*
X00814062Y00533217D01*
X00811306Y00526563D01*
X00820716D01*
Y00535973D01*
D02*
G37*
G36*
Y00524563D02*
X00811306D01*
X00814062Y00517909D01*
X00820716Y00515153D01*
Y00524563D01*
D02*
G37*
G36*
X00832125D02*
X00822716D01*
Y00515153D01*
X00829369Y00517909D01*
X00832125Y00524563D01*
D02*
G37*
G36*
X0027525Y00518657D02*
Y00509247D01*
X0028466D01*
X00281904Y00515901D01*
X0027525Y00518657D01*
D02*
G37*
G36*
X0027325Y00518657D02*
X00266596Y00515901D01*
X0026384Y00509247D01*
X0027325D01*
Y00518657D01*
D02*
G37*
G36*
Y00507247D02*
X0026384D01*
X00266596Y00500594D01*
X0027325Y00497838D01*
Y00507247D01*
D02*
G37*
G36*
X0028466D02*
X0027525D01*
Y00497838D01*
X00281904Y00500594D01*
X0028466Y00507247D01*
D02*
G37*
G36*
X0010872Y00593801D02*
X00101067Y0059063D01*
X00100299Y00588776D01*
X0009838Y00588395D01*
X0008936Y00582367D01*
X00083332Y00573347D01*
X00081255Y00562904D01*
X00081173Y00562706D01*
Y00272747D01*
X00081266Y00272522D01*
X00083315Y00262224D01*
X00089276Y00253302D01*
X00098197Y00247342D01*
X0010019Y00246945D01*
X00100339Y0024688D01*
X00101067Y00245123D01*
X00106797Y0024275D01*
X00108165Y00239293D01*
X00107379Y00237645D01*
X00101067Y0023503D01*
X00097896Y00227377D01*
X00101067Y00219723D01*
X0010872Y00216553D01*
X00116374Y00219723D01*
X00119544Y00227377D01*
X00119512Y00227454D01*
X00132668Y0024061D01*
X00132709Y00240569D01*
X0013987Y00251286D01*
X00142385Y00263928D01*
X00142327D01*
Y00361854D01*
X00145327Y00363859D01*
X0014997Y00361935D01*
X00156859Y00364789D01*
X00159712Y00371677D01*
Y00382677D01*
X00156859Y00389565D01*
X0014997Y00392418D01*
X0014687Y00391134D01*
X00144574Y0039343D01*
X00147598Y00400732D01*
X00147547Y00400783D01*
X00153866Y00407101D01*
X00154162Y00407348D01*
X00155115Y00408042D01*
X00155923Y00408558D01*
X00156538Y0040888D01*
X00156899Y00409012D01*
X00157262Y00409066D01*
X00157389Y00409142D01*
X00157537Y00409125D01*
X00158977Y00409177D01*
X00159088Y00411523D01*
X00159025Y00411628D01*
X00159029Y00411799D01*
X00158976Y00411864D01*
Y00420177D01*
X0015574D01*
X00150727Y00422254D01*
X00145713Y00420177D01*
X00144959Y00420177D01*
X00144734Y004203D01*
X00142477Y00420177D01*
X00142477Y00418599D01*
X00142354Y00418373D01*
X00142354Y00418373D01*
X00142315Y00418002D01*
X00142228Y00417693D01*
X0014203Y00417231D01*
X00141709Y00416643D01*
X0014126Y00415948D01*
X00141199Y00415864D01*
X00136832Y00411498D01*
X00136791Y00411539D01*
X0012963Y00400821D01*
X00127115Y0038818D01*
X00127173D01*
Y00263928D01*
X00127101D01*
X00122316Y00252374D01*
X0011939Y0025315D01*
X00116374Y0026043D01*
X0010872Y00263601D01*
X00105428Y00262237D01*
X00100324Y00264351D01*
X00097449Y00271291D01*
X00097476Y00271353D01*
X0010073Y00271334D01*
X00101067Y00270523D01*
X0010872Y00267353D01*
X00116374Y00270523D01*
X00119544Y00278177D01*
X00116374Y0028583D01*
X0010872Y00289001D01*
X00101067Y0028583D01*
X00099327Y0028163D01*
X00096327Y00282227D01*
Y00299527D01*
X00099327Y00300123D01*
X00101067Y00295923D01*
X0010872Y00292753D01*
X00116374Y00295923D01*
X00119544Y00303577D01*
X00116374Y0031123D01*
X0010872Y00314401D01*
X00101067Y0031123D01*
X00099327Y0030703D01*
X00096327Y00307627D01*
Y00324926D01*
X00099327Y00325523D01*
X00101067Y00321323D01*
X0010872Y00318153D01*
X00116374Y00321323D01*
X00119544Y00328977D01*
X00116374Y0033663D01*
X0010872Y00339801D01*
X00101067Y0033663D01*
X00099327Y0033243D01*
X00096327Y00333027D01*
Y00350326D01*
X00099327Y00350923D01*
X00101067Y00346723D01*
X0010872Y00343553D01*
X00116374Y00346723D01*
X00119544Y00354377D01*
X00116374Y0036203D01*
X0010872Y00365201D01*
X00101067Y0036203D01*
X00099327Y0035783D01*
X00096327Y00358427D01*
Y00375727D01*
X00099327Y00376323D01*
X00101067Y00372123D01*
X0010872Y00368953D01*
X00116374Y00372123D01*
X00119544Y00379777D01*
X00116374Y0038743D01*
X0010872Y00390601D01*
X00101067Y0038743D01*
X00099327Y0038323D01*
X00096327Y00383827D01*
Y00401127D01*
X00099327Y00401723D01*
X00101067Y00397523D01*
X0010872Y00394353D01*
X00116374Y00397523D01*
X00119544Y00405177D01*
X00116374Y0041283D01*
X0010872Y00416001D01*
X00101067Y0041283D01*
X00099327Y0040863D01*
X00096327Y00409227D01*
Y00426526D01*
X00099327Y00427123D01*
X00101067Y00422923D01*
X0010872Y00419753D01*
X00116374Y00422923D01*
X00119544Y00430577D01*
X00116374Y0043823D01*
X0010872Y00441401D01*
X00101067Y0043823D01*
X00099327Y0043403D01*
X00096327Y00434627D01*
Y00451926D01*
X00099327Y00452523D01*
X00101067Y00448323D01*
X0010872Y00445153D01*
X00116374Y00448323D01*
X00119544Y00455977D01*
X00116374Y0046363D01*
X0010872Y00466801D01*
X00101067Y0046363D01*
X00099327Y0045943D01*
X00096327Y00460027D01*
Y00477327D01*
X00099327Y00477923D01*
X00101067Y00473723D01*
X0010872Y00470553D01*
X00116374Y00473723D01*
X00119544Y00481377D01*
X00116374Y0048903D01*
X0010872Y00492201D01*
X00101067Y0048903D01*
X00099327Y0048483D01*
X00096327Y00485427D01*
Y00502727D01*
X00099327Y00503323D01*
X00101067Y00499123D01*
X0010872Y00495953D01*
X00116374Y00499123D01*
X00119544Y00506777D01*
X00116374Y0051443D01*
X0010872Y00517601D01*
X00101067Y0051443D01*
X00099327Y0051023D01*
X00096327Y00510827D01*
Y00528126D01*
X00099327Y00528723D01*
X00101067Y00524523D01*
X0010872Y00521353D01*
X00116374Y00524523D01*
X00119544Y00532177D01*
X00116374Y0053983D01*
X0010872Y00543001D01*
X00101067Y0053983D01*
X00099327Y0053563D01*
X00096327Y00536227D01*
Y00553526D01*
X00099327Y00554123D01*
X00101067Y00549923D01*
X0010872Y00546753D01*
X00116374Y00549923D01*
X00119544Y00557577D01*
X00116374Y0056523D01*
X0010872Y00568401D01*
X00101124Y00565254D01*
X00098376Y0056646D01*
X00100394Y00571332D01*
X00105548Y00573467D01*
X0010872Y00572153D01*
X00112636Y00573775D01*
X00121059Y00570286D01*
X00126046Y00558247D01*
X00126173D01*
Y00553668D01*
X00126115D01*
X0012863Y00541026D01*
X00135791Y00530309D01*
X00135832Y0053035D01*
X00165939Y00500243D01*
X00166216Y00499874D01*
X00166777Y00499035D01*
X00167183Y00498323D01*
X00167437Y0049776D01*
X00167552Y00497382D01*
X001676Y0049696D01*
X001676Y0049696D01*
X0016772Y00496744D01*
Y00495177D01*
X00169324Y00495085D01*
X00169352Y00495091D01*
X00169998Y00495056D01*
X00170214Y00495177D01*
X00171914D01*
X0017572Y004936D01*
X00179527Y00495177D01*
X0018372D01*
Y00504582D01*
X00183812Y00504719D01*
X00183808Y0050484D01*
X0018384Y00504899D01*
X0018372Y00507177D01*
X00182117Y00507269D01*
X00182022Y0050725D01*
X00181937Y00507297D01*
X00181515Y00507345D01*
X00181136Y0050746D01*
X00180574Y00507714D01*
X00179862Y0050812D01*
X00179023Y00508681D01*
X00178654Y00508958D01*
X00146547Y00541065D01*
X00146598Y00541116D01*
X00141399Y00553668D01*
X00141327D01*
Y00558247D01*
X00141372D01*
X00138909Y00570628D01*
X00131896Y00581123D01*
X00121401Y00588136D01*
X00118667Y0058868D01*
X00116911Y00589333D01*
X00116374Y0059063D01*
X0010872Y00593801D01*
D02*
G37*
G36*
X01134Y00487747D02*
X01129D01*
Y00480747D01*
X01134D01*
Y00487747D01*
D02*
G37*
G36*
X01127D02*
X01122D01*
Y00480747D01*
X01127D01*
Y00487747D01*
D02*
G37*
G36*
X01134Y00473747D02*
X01129D01*
Y00466747D01*
X01134D01*
Y00473747D01*
D02*
G37*
G36*
X01127D02*
X01122D01*
Y00466747D01*
X01127D01*
Y00473747D01*
D02*
G37*
G36*
X00413205Y00474617D02*
Y00460789D01*
X00421947D01*
Y00465289D01*
X00419094Y00472178D01*
X00413205Y00474617D01*
D02*
G37*
G36*
X00363205D02*
Y00460789D01*
X00371947D01*
Y00465289D01*
X00369094Y00472178D01*
X00363205Y00474617D01*
D02*
G37*
G36*
X00411205Y00474617D02*
X00405317Y00472178D01*
X00402464Y00465289D01*
Y00460789D01*
X00411205D01*
Y00474617D01*
D02*
G37*
G36*
X00361205D02*
X00355317Y00472178D01*
X00352464Y00465289D01*
Y00460789D01*
X00361205D01*
Y00474617D01*
D02*
G37*
G36*
X00388205Y00474617D02*
Y00460789D01*
X00396947D01*
Y00465289D01*
X00394094Y00472178D01*
X00388205Y00474617D01*
D02*
G37*
G36*
X00436205Y0047429D02*
X00428205D01*
Y00460789D01*
X00436205D01*
Y0047429D01*
D02*
G37*
G36*
X00386205Y00474617D02*
X00380317Y00472178D01*
X00377464Y00465289D01*
Y00460789D01*
X00386205D01*
Y00474617D01*
D02*
G37*
G36*
X01134Y00464747D02*
X01129D01*
Y00457747D01*
X01134D01*
Y00464747D01*
D02*
G37*
G36*
X01127D02*
X01122D01*
Y00457747D01*
X01127D01*
Y00464747D01*
D02*
G37*
G36*
X0015097Y00468204D02*
Y00454377D01*
X00159712D01*
Y00458877D01*
X00156859Y00465765D01*
X0015097Y00468204D01*
D02*
G37*
G36*
X0014897Y00468204D02*
X00143082Y00465765D01*
X00140229Y00458877D01*
Y00454377D01*
X0014897D01*
Y00468204D01*
D02*
G37*
G36*
X0033372Y00467877D02*
X0032572D01*
Y00454377D01*
X0033372D01*
Y00467877D01*
D02*
G37*
G36*
X0027572Y00468204D02*
Y00454377D01*
X00284462D01*
Y00458877D01*
X00281609Y00465765D01*
X0027572Y00468204D01*
D02*
G37*
G36*
X0032372Y00467877D02*
X0031572D01*
Y00454377D01*
X0032372D01*
Y00467877D01*
D02*
G37*
G36*
X0027372Y00468204D02*
X00267832Y00465765D01*
X00264979Y00458877D01*
Y00454377D01*
X0027372D01*
Y00468204D01*
D02*
G37*
G36*
X0030072Y00468204D02*
Y00454377D01*
X00309462D01*
Y00458877D01*
X00306609Y00465765D01*
X0030072Y00468204D01*
D02*
G37*
G36*
X0029872Y00468204D02*
X00292832Y00465765D01*
X00289979Y00458877D01*
Y00454377D01*
X0029872D01*
Y00468204D01*
D02*
G37*
G36*
X00436205Y00458789D02*
X00428205D01*
Y00445289D01*
X00436205D01*
Y00458789D01*
D02*
G37*
G36*
X00386205D02*
X00377464D01*
Y0045429D01*
X00380317Y00447401D01*
X00386205Y00444962D01*
Y00458789D01*
D02*
G37*
G36*
X00421947Y00458789D02*
X00413205D01*
Y00444962D01*
X00419094Y00447401D01*
X00421947Y0045429D01*
Y00458789D01*
D02*
G37*
G36*
X00371947D02*
X00363205D01*
Y00444962D01*
X00369094Y00447401D01*
X00371947Y0045429D01*
Y00458789D01*
D02*
G37*
G36*
X00411205D02*
X00402464D01*
Y0045429D01*
X00405317Y00447401D01*
X00411205Y00444962D01*
Y00458789D01*
D02*
G37*
G36*
X00361205D02*
X00352464D01*
Y0045429D01*
X00355317Y00447401D01*
X00361205Y00444962D01*
Y00458789D01*
D02*
G37*
G36*
X00396947Y00458789D02*
X00388205D01*
Y00444962D01*
X00394094Y00447401D01*
X00396947Y0045429D01*
Y00458789D01*
D02*
G37*
G36*
X011065Y00452747D02*
X011D01*
Y00440747D01*
X011065D01*
Y00452747D01*
D02*
G37*
G36*
X01098D02*
X010915D01*
Y00440747D01*
X01098D01*
Y00452747D01*
D02*
G37*
G36*
X0033372Y00452377D02*
X0032572D01*
Y00438877D01*
X0033372D01*
Y00452377D01*
D02*
G37*
G36*
X0032372D02*
X0031572D01*
Y00438877D01*
X0032372D01*
Y00452377D01*
D02*
G37*
G36*
X0029872Y00452377D02*
X00289979D01*
Y00447877D01*
X00292832Y00440989D01*
X0029872Y00438549D01*
Y00452377D01*
D02*
G37*
G36*
X00159712Y00452377D02*
X0015097D01*
Y00438549D01*
X00156859Y00440989D01*
X00159712Y00447877D01*
Y00452377D01*
D02*
G37*
G36*
X00284462Y00452377D02*
X0027572D01*
Y00438549D01*
X00281609Y00440989D01*
X00284462Y00447877D01*
Y00452377D01*
D02*
G37*
G36*
X0027372D02*
X00264979D01*
Y00447877D01*
X00267832Y00440989D01*
X0027372Y00438549D01*
Y00452377D01*
D02*
G37*
G36*
X0014897Y00452377D02*
X00140229D01*
Y00447877D01*
X00143082Y00440989D01*
X0014897Y00438549D01*
Y00452377D01*
D02*
G37*
G36*
X00309462Y00452377D02*
X0030072D01*
Y00438549D01*
X00306609Y00440989D01*
X00309462Y00447877D01*
Y00452377D01*
D02*
G37*
G36*
X0024972Y00468618D02*
X00242832Y00465765D01*
X00239979Y00458877D01*
Y00447877D01*
X00242832Y00440989D01*
X0024972Y00438135D01*
X00256609Y00440989D01*
X00259462Y00447877D01*
Y00458877D01*
X00256609Y00465765D01*
X0024972Y00468618D01*
D02*
G37*
G36*
X0022472D02*
X00217832Y00465765D01*
X00214979Y00458877D01*
Y00447877D01*
X00217832Y00440989D01*
X0022472Y00438135D01*
X00231609Y00440989D01*
X00234462Y00447877D01*
Y00458877D01*
X00231609Y00465765D01*
X0022472Y00468618D01*
D02*
G37*
G36*
X0019972D02*
X00192832Y00465765D01*
X00189979Y00458877D01*
Y00447877D01*
X00192832Y00440989D01*
X0019972Y00438135D01*
X00206609Y00440989D01*
X00209462Y00447877D01*
Y00458877D01*
X00206609Y00465765D01*
X0019972Y00468618D01*
D02*
G37*
G36*
X01074Y00441747D02*
X01067D01*
Y00436747D01*
X01074D01*
Y00441747D01*
D02*
G37*
G36*
X01065D02*
X01058D01*
Y00436747D01*
X01065D01*
Y00441747D01*
D02*
G37*
G36*
X0105D02*
X01043D01*
Y00436747D01*
X0105D01*
Y00441747D01*
D02*
G37*
G36*
X01041D02*
X01034D01*
Y00436747D01*
X01041D01*
Y00441747D01*
D02*
G37*
G36*
X01074Y00434747D02*
X01067D01*
Y00429747D01*
X01074D01*
Y00434747D01*
D02*
G37*
G36*
X01065D02*
X01058D01*
Y00429747D01*
X01065D01*
Y00434747D01*
D02*
G37*
G36*
X0105Y00434747D02*
X01043D01*
Y00429747D01*
X0105D01*
Y00434747D01*
D02*
G37*
G36*
X01041D02*
X01034D01*
Y00429747D01*
X01041D01*
Y00434747D01*
D02*
G37*
G36*
X011065Y00438747D02*
X011D01*
Y00426747D01*
X011065D01*
Y00438747D01*
D02*
G37*
G36*
X01098D02*
X010915D01*
Y00426747D01*
X01098D01*
Y00438747D01*
D02*
G37*
G36*
X0018372Y00490177D02*
X0016772D01*
Y00483155D01*
X00167393Y00482366D01*
Y00465936D01*
X001673Y0046516D01*
X00167134Y00464272D01*
X00166949Y0046353D01*
X00166761Y00462964D01*
X00166528Y00462449D01*
X00166513Y00461986D01*
X00166335Y00461557D01*
X00166337Y00461553D01*
X00165229Y00458877D01*
Y00447877D01*
X00166337Y00445201D01*
X00166335Y00445197D01*
X00166513Y00444768D01*
X00166528Y00444304D01*
X00166761Y00443789D01*
X00166949Y00443224D01*
X00167134Y00442481D01*
X00167291Y00441644D01*
X00167393Y00440222D01*
Y00427788D01*
X00167335Y00427646D01*
X0016736Y00427586D01*
X00167338Y00427525D01*
X00167393Y00427411D01*
Y00425987D01*
X00167469Y00425804D01*
Y00418677D01*
X00174328D01*
X0017497Y00418411D01*
X00175612Y00418677D01*
X00183971D01*
Y00426677D01*
X00183971Y00427008D01*
X00184032Y00427088D01*
X00184024Y00427449D01*
X00184105Y00427646D01*
X00183971Y00429677D01*
X00182547Y00432561D01*
Y00440818D01*
X0018264Y00441593D01*
X00182807Y00442481D01*
X00182992Y00443224D01*
X0018318Y00443789D01*
X00183413Y00444304D01*
X00183428Y00444768D01*
X00183605Y00445197D01*
X00183603Y00445201D01*
X00184712Y00447877D01*
Y00458877D01*
X00183603Y00461553D01*
X00183605Y00461557D01*
X00183428Y00461986D01*
X00183413Y00462449D01*
X0018318Y00462964D01*
X00182992Y0046353D01*
X00182807Y00464272D01*
X0018265Y00465109D01*
X00182547Y00466531D01*
Y00477397D01*
X00182685Y00478054D01*
X00182724Y00478177D01*
X0018372Y00478177D01*
X00183855Y00480207D01*
X00183754Y0048045D01*
X0018376Y00480841D01*
X0018372Y00480889D01*
Y00490177D01*
D02*
G37*
G36*
X00985265Y00425484D02*
X00973254Y00420508D01*
X00968279Y00408497D01*
X00985265D01*
Y00425484D01*
D02*
G37*
G36*
X00183971Y00410678D02*
X0017672D01*
Y00406177D01*
X00183971D01*
Y00410678D01*
D02*
G37*
G36*
X0017472D02*
X00167469D01*
Y00406177D01*
X0017472D01*
Y00410678D01*
D02*
G37*
G36*
X00183971Y00404178D02*
X0017672D01*
Y00399677D01*
X00183971D01*
Y00404178D01*
D02*
G37*
G36*
X0017472D02*
X00167469D01*
Y00399677D01*
X0017472D01*
Y00404178D01*
D02*
G37*
G36*
X005958Y00402157D02*
Y00392747D01*
X0060521D01*
X00602454Y00399401D01*
X005958Y00402157D01*
D02*
G37*
G36*
X005938D02*
X00587146Y00399401D01*
X0058439Y00392747D01*
X005938D01*
Y00402157D01*
D02*
G37*
G36*
X00800235Y00424497D02*
X00766235D01*
Y00390497D01*
X00800235D01*
Y00424497D01*
D02*
G37*
G36*
X01004251Y00406497D02*
X00987265D01*
Y00389511D01*
X00999276Y00394486D01*
X01004251Y00406497D01*
D02*
G37*
G36*
X00985265D02*
X00968279D01*
X00973254Y00394486D01*
X00985265Y00389511D01*
Y00406497D01*
D02*
G37*
G36*
X00413205Y00398417D02*
Y0038459D01*
X00421947D01*
Y0038909D01*
X00419094Y00395978D01*
X00413205Y00398417D01*
D02*
G37*
G36*
X00411205Y00398417D02*
X00405317Y00395978D01*
X00402464Y0038909D01*
Y0038459D01*
X00411205D01*
Y00398417D01*
D02*
G37*
G36*
X007318Y00401747D02*
X007118D01*
Y00381747D01*
X007318D01*
Y00401747D01*
D02*
G37*
G36*
X0060521Y00390747D02*
X005958D01*
Y00381338D01*
X00602454Y00384094D01*
X0060521Y00390747D01*
D02*
G37*
G36*
X005938D02*
X0058439D01*
X00587146Y00384094D01*
X005938Y00381338D01*
Y00390747D01*
D02*
G37*
G36*
X0064575Y00519659D02*
X006456D01*
X00641773Y00518074D01*
X00640188Y00514247D01*
Y00401947D01*
X00640113Y0040166D01*
X00639938Y00401165D01*
X00639727Y00400696D01*
X00639478Y00400248D01*
X00639281Y00399953D01*
X00637946Y00399401D01*
X00634776Y00391747D01*
X00637946Y00384094D01*
X006456Y00380923D01*
X00653254Y00384094D01*
X00656424Y00391747D01*
X00653254Y00399401D01*
X0065192Y00399953D01*
X00651722Y00400248D01*
X00651473Y00400696D01*
X00651262Y00401165D01*
X00651087Y0040166D01*
X00651012Y00401947D01*
Y00513885D01*
X00651162Y00514247D01*
X00649577Y00518074D01*
X0064575Y00519659D01*
D02*
G37*
G36*
X0062Y00523574D02*
X00614642Y00521355D01*
X00612423Y00515997D01*
Y00399104D01*
X00609376Y00391747D01*
X00612546Y00384094D01*
X006202Y00380923D01*
X00627854Y00384094D01*
X00631024Y00391747D01*
X00627854Y00399401D01*
X00627577Y00399516D01*
Y00515997D01*
X00625358Y00521355D01*
X0062Y00523574D01*
D02*
G37*
G36*
X005694Y00402571D02*
X00561746Y00399401D01*
X00558576Y00391747D01*
X00561746Y00384094D01*
X005694Y00380923D01*
X00577054Y00384094D01*
X00580224Y00391747D01*
X00577054Y00399401D01*
X005694Y00402571D01*
D02*
G37*
G36*
X011415Y00390771D02*
X011025D01*
Y00364771D01*
X011415D01*
Y00390771D01*
D02*
G37*
G36*
X0032472Y00392418D02*
X00317832Y00389565D01*
X00314979Y00382677D01*
Y00371677D01*
X00317832Y00364789D01*
X0032472Y00361935D01*
X00331609Y00364789D01*
X00334462Y00371677D01*
Y00382677D01*
X00331609Y00389565D01*
X0032472Y00392418D01*
D02*
G37*
G36*
X0029972D02*
X00292832Y00389565D01*
X00289979Y00382677D01*
Y00371677D01*
X00292832Y00364789D01*
X0029972Y00361935D01*
X00306609Y00364789D01*
X00309462Y00371677D01*
Y00382677D01*
X00306609Y00389565D01*
X0029972Y00392418D01*
D02*
G37*
G36*
X0027472D02*
X00267832Y00389565D01*
X00264979Y00382677D01*
Y00371677D01*
X00267832Y00364789D01*
X0027472Y00361935D01*
X00281609Y00364789D01*
X00284462Y00371677D01*
Y00382677D01*
X00281609Y00389565D01*
X0027472Y00392418D01*
D02*
G37*
G36*
X0024972D02*
X00242832Y00389565D01*
X00239979Y00382677D01*
Y00371677D01*
X00242832Y00364789D01*
X0024972Y00361935D01*
X00256609Y00364789D01*
X00259462Y00371677D01*
Y00382677D01*
X00256609Y00389565D01*
X0024972Y00392418D01*
D02*
G37*
G36*
X0022472D02*
X00217832Y00389565D01*
X00214979Y00382677D01*
Y00371677D01*
X00217832Y00364789D01*
X0022472Y00361935D01*
X00231609Y00364789D01*
X00234462Y00371677D01*
Y00382677D01*
X00231609Y00389565D01*
X0022472Y00392418D01*
D02*
G37*
G36*
X0019972D02*
X00192832Y00389565D01*
X00189979Y00382677D01*
Y00371677D01*
X00192832Y00364789D01*
X0019972Y00361935D01*
X00206609Y00364789D01*
X00209462Y00371677D01*
Y00382677D01*
X00206609Y00389565D01*
X0019972Y00392418D01*
D02*
G37*
G36*
X0017497D02*
X00168082Y00389565D01*
X00165229Y00382677D01*
Y00371677D01*
X00168082Y00364789D01*
X0017497Y00361935D01*
X00181859Y00364789D01*
X00184712Y00371677D01*
Y00382677D01*
X00181859Y00389565D01*
X0017497Y00392418D01*
D02*
G37*
G36*
X0053145Y00351989D02*
X0052695D01*
Y00343247D01*
X00540777D01*
X00538338Y00349136D01*
X0053145Y00351989D01*
D02*
G37*
G36*
X0052495D02*
X0052045D01*
X00513562Y00349136D01*
X00511123Y00343247D01*
X0052495D01*
Y00351989D01*
D02*
G37*
G36*
X00339667Y0035063D02*
X00310667D01*
Y0033263D01*
X00339667D01*
Y0035063D01*
D02*
G37*
G36*
X00540777Y00341247D02*
X0052695D01*
Y00332506D01*
X0053145D01*
X00538338Y00335359D01*
X00540777Y00341247D01*
D02*
G37*
G36*
X0052495D02*
X00511123D01*
X00513562Y00335359D01*
X0052045Y00332506D01*
X0052495D01*
Y00341247D01*
D02*
G37*
G36*
X00330667Y00326371D02*
X00326167D01*
Y0031763D01*
X00339995D01*
X00337556Y00323518D01*
X00330667Y00326371D01*
D02*
G37*
G36*
X00324167D02*
X00319667D01*
X00312779Y00323518D01*
X0031034Y0031763D01*
X00324167D01*
Y00326371D01*
D02*
G37*
G36*
X0053145Y00326989D02*
X0052045D01*
X00513562Y00324136D01*
X00510709Y00317247D01*
X00513562Y00310359D01*
X0052045Y00307506D01*
X0053145D01*
X00538338Y00310359D01*
X00541192Y00317247D01*
X00538338Y00324136D01*
X0053145Y00326989D01*
D02*
G37*
G36*
X00339995Y0031563D02*
X00326167D01*
Y00306888D01*
X00330667D01*
X00337556Y00309742D01*
X00339995Y0031563D01*
D02*
G37*
G36*
X00324167D02*
X0031034D01*
X00312779Y00309742D01*
X00319667Y00306888D01*
X00324167D01*
Y0031563D01*
D02*
G37*
G36*
X00330667Y00301371D02*
X00326167D01*
Y0029263D01*
X00339995D01*
X00337556Y00298518D01*
X00330667Y00301371D01*
D02*
G37*
G36*
X00324167D02*
X00319667D01*
X00312779Y00298518D01*
X0031034Y0029263D01*
X00324167D01*
Y00301371D01*
D02*
G37*
G36*
X00818479Y00378132D02*
Y00378074D01*
X0057D01*
X00564642Y00375855D01*
X00562423Y00370497D01*
X00563738Y00367324D01*
X00561733Y00364324D01*
X0055075D01*
X00545392Y00362105D01*
X00543173Y00356747D01*
X00545392Y0035139D01*
X0055075Y0034917D01*
X006821D01*
Y00348748D01*
X00691399Y00344897D01*
X00695251Y00335597D01*
X00695673D01*
Y0029475D01*
X00697892Y00289392D01*
X0070325Y00287173D01*
X00708607Y00289392D01*
X00710827Y0029475D01*
Y00335597D01*
X00710778Y00335715D01*
X00708617Y00346581D01*
X00702395Y00355892D01*
X00696366Y00359921D01*
X00697276Y0036292D01*
X00818479D01*
Y00362848D01*
X00831031Y00357649D01*
X00831082Y003577D01*
X00897142Y0029164D01*
X009025Y00289421D01*
X00907858Y0029164D01*
X00910077Y00296997D01*
X00907858Y00302355D01*
X00841797Y00368415D01*
X00841838Y00368456D01*
X00831121Y00375617D01*
X00818479Y00378132D01*
D02*
G37*
G36*
X0053145Y00301989D02*
X0052045D01*
X00513562Y00299135D01*
X00510709Y00292247D01*
X00513562Y00285359D01*
X0052045Y00282506D01*
X0053145D01*
X00538338Y00285359D01*
X00541192Y00292247D01*
X00538338Y00299135D01*
X0053145Y00301989D01*
D02*
G37*
G36*
X00339995Y0029063D02*
X00326167D01*
Y00281888D01*
X00330667D01*
X00337556Y00284742D01*
X00339995Y0029063D01*
D02*
G37*
G36*
X00324167D02*
X0031034D01*
X00312779Y00284742D01*
X00319667Y00281888D01*
X00324167D01*
Y0029063D01*
D02*
G37*
G36*
X0054045Y00276247D02*
X0051145D01*
Y00258247D01*
X0054045D01*
Y00276247D01*
D02*
G37*
G36*
X00623Y00289442D02*
X00611902Y00284845D01*
X00607306Y00273747D01*
X00611902Y00262649D01*
X00623Y00258053D01*
X00634098Y00262649D01*
X00638695Y00273747D01*
X00634098Y00284845D01*
X00623Y00289442D01*
D02*
G37*
G36*
X00406867Y00276371D02*
X00395867D01*
X00388979Y00273518D01*
X00386126Y0026663D01*
X00388979Y00259742D01*
X00395867Y00256888D01*
X00406867D01*
X00413756Y00259742D01*
X00416609Y0026663D01*
X00413756Y00273518D01*
X00406867Y00276371D01*
D02*
G37*
G36*
X00330667D02*
X00319667D01*
X00312779Y00273518D01*
X00309926Y0026663D01*
X00312779Y00259742D01*
X00319667Y00256888D01*
X00330667D01*
X00337556Y00259742D01*
X00340409Y0026663D01*
X00337556Y00273518D01*
X00330667Y00276371D01*
D02*
G37*
G36*
X00820987Y00287942D02*
X0080989Y00283345D01*
X00805293Y00272247D01*
X0080989Y00261149D01*
X00820987Y00256553D01*
X00832085Y00261149D01*
X00836682Y00272247D01*
X00832085Y00283345D01*
X00820987Y00287942D01*
D02*
G37*
G36*
X00673013Y00264448D02*
X00661915Y00259851D01*
X00657318Y00248754D01*
X00661915Y00237656D01*
X00673013Y00233059D01*
X00677394Y00234874D01*
X0067764Y00234842D01*
X00679019Y00234676D01*
Y00234996D01*
X00682098Y0023517D01*
X00728253D01*
X00733611Y0023739D01*
X0073583Y00242747D01*
X00733611Y00248105D01*
X00728253Y00250324D01*
X00689736D01*
X00689284Y00250469D01*
X00688701Y00250741D01*
X00688235Y00251046D01*
X00687866Y00251381D01*
X00687569Y00251758D01*
X00687326Y00252199D01*
X00687082Y00252874D01*
X00686934Y00253036D01*
X00684111Y00259851D01*
X00673013Y00264448D01*
D02*
G37*
G36*
X00406867Y00251371D02*
X00395867D01*
X00388979Y00248518D01*
X00386126Y0024163D01*
X00388979Y00234742D01*
X00395867Y00231888D01*
X00406867D01*
X00413756Y00234742D01*
X00416609Y0024163D01*
X00413756Y00248518D01*
X00406867Y00251371D01*
D02*
G37*
G36*
X00330667D02*
X00319667D01*
X00312779Y00248518D01*
X00309926Y0024163D01*
X00312779Y00234742D01*
X00319667Y00231888D01*
X00330667D01*
X00337556Y00234742D01*
X00340409Y0024163D01*
X00337556Y00248518D01*
X00330667Y00251371D01*
D02*
G37*
G36*
X00871Y00262948D02*
X00859902Y00258351D01*
X00855305Y00247254D01*
X00859902Y00236156D01*
X00871Y00231559D01*
X00874337Y00232941D01*
X00875206Y00232919D01*
X00878506Y00231552D01*
Y00232171D01*
X00922D01*
X00927358Y0023439D01*
X00929577Y00239747D01*
X00927358Y00245105D01*
X00922Y00247324D01*
X00887433D01*
X00887088Y00247432D01*
X00886576Y00247671D01*
X008865Y00247723D01*
X00882098Y00258351D01*
X00871Y00262948D01*
D02*
G37*
G36*
X0051675Y00244907D02*
X00510627Y0024237D01*
X00508091Y00236247D01*
Y00232247D01*
X00510627Y00226124D01*
X0051675Y00223588D01*
X00522873Y00226124D01*
X0052325Y00227035D01*
X0052625D01*
X00526627Y00226124D01*
X0053275Y00223588D01*
X00538873Y00226124D01*
X00541409Y00232247D01*
Y00236247D01*
X00538873Y0024237D01*
X0053275Y00244906D01*
X00526627Y0024237D01*
X0052625Y0024146D01*
X0052325D01*
X00522873Y0024237D01*
X0051675Y00244907D01*
D02*
G37*
G36*
X00406867Y00226371D02*
X00395867D01*
X00388979Y00223518D01*
X00386126Y0021663D01*
X00388979Y00209742D01*
X00395867Y00206888D01*
X00406867D01*
X00413756Y00209742D01*
X00416609Y0021663D01*
X00413756Y00223518D01*
X00406867Y00226371D01*
D02*
G37*
G36*
X00330667D02*
X00319667D01*
X00312779Y00223518D01*
X00309926Y0021663D01*
X00312779Y00209742D01*
X00319667Y00206888D01*
X00330667D01*
X00337556Y00209742D01*
X00340409Y0021663D01*
X00337556Y00223518D01*
X00330667Y00226371D01*
D02*
G37*
G36*
X01145Y00235771D02*
X01130841Y00229906D01*
X01124976Y00215747D01*
X01130841Y00201588D01*
X01145Y00195723D01*
X01159159Y00201588D01*
X01165024Y00215747D01*
X01159159Y00229906D01*
X01145Y00235771D01*
D02*
G37*
G36*
X00406867Y00201621D02*
X00395867D01*
X00388979Y00198768D01*
X00386126Y0019188D01*
X00388979Y00184992D01*
X00395867Y00182138D01*
X00406867D01*
X00413756Y00184992D01*
X00416609Y0019188D01*
X00413756Y00198768D01*
X00406867Y00201621D01*
D02*
G37*
G36*
X00330667D02*
X00319667D01*
X00312779Y00198768D01*
X00309926Y0019188D01*
X00312779Y00184992D01*
X00319667Y00182138D01*
X00330667D01*
X00337556Y00184992D01*
X00340409Y0019188D01*
X00337556Y00198768D01*
X00330667Y00201621D01*
D02*
G37*
G36*
Y00176621D02*
X00326167D01*
Y0016788D01*
X00339995D01*
X00337556Y00173768D01*
X00330667Y00176621D01*
D02*
G37*
G36*
X00324167D02*
X00319667D01*
X00312779Y00173768D01*
X0031034Y0016788D01*
X00324167D01*
Y00176621D01*
D02*
G37*
G36*
X00406867D02*
X00395867D01*
X00388979Y00173768D01*
X00386126Y0016688D01*
X00388979Y00159992D01*
X00395867Y00157138D01*
X00406867D01*
X00413756Y00159992D01*
X00416609Y0016688D01*
X00413756Y00173768D01*
X00406867Y00176621D01*
D02*
G37*
G36*
X00339995Y0016588D02*
X00326167D01*
Y00157138D01*
X00330667D01*
X00337556Y00159992D01*
X00339995Y0016588D01*
D02*
G37*
G36*
X00324167D02*
X0031034D01*
X00312779Y00159992D01*
X00319667Y00157138D01*
X00324167D01*
Y0016588D01*
D02*
G37*
G36*
X01153Y00145983D02*
X01137D01*
X01125519Y00141228D01*
X01120764Y00129747D01*
X01125519Y00118267D01*
X01137Y00113511D01*
X01153D01*
X01164481Y00118267D01*
X01169236Y00129747D01*
X01164481Y00141228D01*
X01153Y00145983D01*
D02*
G37*
G36*
X0028152Y00132177D02*
X0026152D01*
Y00112177D01*
X0028152D01*
Y00132177D01*
D02*
G37*
G36*
X0044932Y00133001D02*
X00441667Y00129831D01*
X00438496Y00122177D01*
X00441667Y00114523D01*
X0044932Y00111353D01*
X00456974Y00114523D01*
X00460144Y00122177D01*
X00456974Y00129831D01*
X0044932Y00133001D01*
D02*
G37*
G36*
X0042392D02*
X00416267Y00129831D01*
X00413096Y00122177D01*
X00416267Y00114523D01*
X0042392Y00111353D01*
X00431574Y00114523D01*
X00434744Y00122177D01*
X00431574Y00129831D01*
X0042392Y00133001D01*
D02*
G37*
G36*
X0039852D02*
X00390867Y00129831D01*
X00387696Y00122177D01*
X00390867Y00114523D01*
X0039852Y00111353D01*
X00406174Y00114523D01*
X00409344Y00122177D01*
X00406174Y00129831D01*
X0039852Y00133001D01*
D02*
G37*
G36*
X0037312D02*
X00365467Y00129831D01*
X00362296Y00122177D01*
X00365467Y00114523D01*
X0037312Y00111353D01*
X00380774Y00114523D01*
X00383944Y00122177D01*
X00380774Y00129831D01*
X0037312Y00133001D01*
D02*
G37*
G36*
X0034772D02*
X00340067Y00129831D01*
X00336896Y00122177D01*
X00340067Y00114523D01*
X0034772Y00111353D01*
X00355374Y00114523D01*
X00358544Y00122177D01*
X00355374Y00129831D01*
X0034772Y00133001D01*
D02*
G37*
G36*
X0032232D02*
X00314667Y00129831D01*
X00311496Y00122177D01*
X00314667Y00114523D01*
X0032232Y00111353D01*
X00329974Y00114523D01*
X00333144Y00122177D01*
X00329974Y00129831D01*
X0032232Y00133001D01*
D02*
G37*
G36*
X0029692D02*
X00289267Y00129831D01*
X00286096Y00122177D01*
X00289267Y00114523D01*
X0029692Y00111353D01*
X00304574Y00114523D01*
X00307744Y00122177D01*
X00304574Y00129831D01*
X0029692Y00133001D01*
D02*
G37*
G36*
X0059Y00076736D02*
X00580816Y00072932D01*
X00577011Y00063747D01*
X00580816Y00054563D01*
X0059Y00050759D01*
X00599184Y00054563D01*
X00602989Y00063747D01*
X00599184Y00072932D01*
X0059Y00076736D01*
D02*
G37*
G36*
X00573013Y00162442D02*
X00561915Y00157845D01*
X00557318Y00146747D01*
X00561915Y00135649D01*
X00573013Y00131053D01*
X00579546Y00133759D01*
X006146D01*
Y00133687D01*
X00623325Y00130072D01*
X00626939Y00121347D01*
X00627011D01*
Y00063747D01*
X00630816Y00054563D01*
X0064Y00050759D01*
X00649185Y00054563D01*
X00652989Y00063747D01*
Y00121347D01*
X00652496Y00122536D01*
X0064983Y0013594D01*
X00641564Y00148311D01*
X00629193Y00156577D01*
X00615789Y00159243D01*
X006146Y00159736D01*
X00579546D01*
X00573013Y00162442D01*
D02*
G37*
G36*
X00788Y00074736D02*
X00778816Y00070932D01*
X00775012Y00061747D01*
X00778816Y00052563D01*
X00788Y00048759D01*
X00797185Y00052563D01*
X00800989Y00061747D01*
X00797185Y00070932D01*
X00788Y00074736D01*
D02*
G37*
G36*
X0129Y00088141D02*
X01279231Y00085999D01*
X01270101Y00079899D01*
X01264001Y00070769D01*
X01261859Y0006D01*
X01264001Y00049231D01*
X01270101Y00040101D01*
X01279231Y00034001D01*
X0129Y00031859D01*
X01300769Y00034001D01*
X01309899Y00040101D01*
X01315999Y00049231D01*
X01318141Y0006D01*
X01315999Y00070769D01*
X01309899Y00079899D01*
X01300769Y00085999D01*
X0129Y00088141D01*
D02*
G37*
G36*
X0006D02*
X00049231Y00085999D01*
X00040101Y00079899D01*
X00034001Y00070769D01*
X00031859Y0006D01*
X00034001Y00049231D01*
X00040101Y00040101D01*
X00049231Y00034001D01*
X0006Y00031859D01*
X00070769Y00034001D01*
X00079899Y00040101D01*
X00085999Y00049231D01*
X00088141Y0006D01*
X00085999Y00070769D01*
X00079899Y00079899D01*
X00070769Y00085999D01*
X0006Y00088141D01*
D02*
G37*
%LPD*%
G36*
X00661411Y00857685D02*
X00661143Y00857394D01*
X00660903Y00857024D01*
X00660692Y00856576D01*
X00660508Y0085605D01*
X00660353Y00855446D01*
X00660226Y00854763D01*
X00660127Y00854003D01*
X00660014Y00852247D01*
X0066Y00851252D01*
X0065Y00851804D01*
X00649988Y00852804D01*
X00649812Y00855331D01*
X00649706Y00856017D01*
X00649577Y00856623D01*
X00649424Y00857151D01*
X00649248Y008576D01*
X00649048Y00857971D01*
X00648825Y00858263D01*
X00661411Y00857685D01*
D02*
G37*
G36*
X00638901Y00859345D02*
X00638807Y00859039D01*
X00638724Y00858643D01*
X00638652Y00858159D01*
X00638542Y00856924D01*
X00638459Y00854406D01*
X00638453Y00853389D01*
X00628453Y00850495D01*
X00628436Y00851487D01*
X00628299Y00853223D01*
X00628178Y00853968D01*
X00628024Y0085463D01*
X00627835Y0085521D01*
X00627611Y00855708D01*
X00627353Y00856123D01*
X00627061Y00856456D01*
X00626734Y00856706D01*
X00639006Y00859563D01*
X00638901Y00859345D01*
D02*
G37*
G36*
X00660423Y00834942D02*
X00648484D01*
X00648772Y00835042D01*
X0064903Y00835342D01*
X00649257Y00835842D01*
X00649454Y00836542D01*
X00649621Y00837442D01*
X00649758Y00838542D01*
X00649939Y00841342D01*
X0065Y00844942D01*
X0066D01*
X00660423Y00834942D01*
D02*
G37*
G36*
X00638463Y00843042D02*
X00638928Y00835842D01*
X00639074Y00835342D01*
X00639239Y00835042D01*
X00639423Y00834942D01*
X00627484D01*
X00627668Y00835042D01*
X00627833Y00835342D01*
X00627978Y00835842D01*
X00628104Y00836542D01*
X00628211Y00837442D01*
X00628366Y00839842D01*
X00628453Y00844942D01*
X00638453D01*
X00638463Y00843042D01*
D02*
G37*
G36*
X00775031Y00824028D02*
X0078697D01*
X0078688Y00823918D01*
X00786801Y00823588D01*
X0078673Y00823038D01*
X00786618Y00821278D01*
X007865Y00813028D01*
X007755D01*
X00775031Y00824028D01*
X00774961Y00824117D01*
X00774751Y00824197D01*
X00774401Y00824267D01*
X00773911Y00824328D01*
X00772511Y00824422D01*
X00770174Y00824461D01*
X0076504Y00824117D01*
X0076497Y00824028D01*
Y00831967D01*
X0076504Y00831878D01*
X0076525Y00831798D01*
X007656Y00831727D01*
X0076609Y00831666D01*
X0076749Y00831572D01*
X00769826Y00831533D01*
X00774961Y00831878D01*
X00775031Y00831967D01*
Y00824028D01*
D02*
G37*
G36*
X00606531Y00827028D02*
X00606461Y00827117D01*
X00606251Y00827197D01*
X00605901Y00827267D01*
X0060541Y00827328D01*
X00604011Y00827422D01*
X00599531Y00827497D01*
Y00834497D01*
X0060086Y00834502D01*
X00606461Y00834877D01*
X00606531Y00834967D01*
Y00827028D01*
D02*
G37*
G36*
X00681493Y00834853D02*
X00681703Y00834773D01*
X00682053Y00834702D01*
X00682543Y00834641D01*
X00683943Y00834548D01*
X00688423Y00834472D01*
Y00827472D01*
X00687093Y00827468D01*
X00681493Y00827092D01*
X00681423Y00827003D01*
Y00834942D01*
X00681493Y00834853D01*
D02*
G37*
G36*
X00741393Y00834441D02*
X00742086Y00833823D01*
X00742811Y00833278D01*
X00743568Y00832805D01*
X00744358Y00832406D01*
X0074518Y00832079D01*
X00746034Y00831824D01*
X0074692Y00831643D01*
X00747836Y00831534D01*
X00752961Y00831878D01*
X00753031Y00831967D01*
Y00824028D01*
X00752961Y00824117D01*
X00752751Y00824197D01*
X00752401Y00824267D01*
X00751911Y00824328D01*
X00750511Y00824422D01*
X00747652Y0082447D01*
X00747476Y00824464D01*
X00746558Y00824363D01*
X00745664Y00824196D01*
X00744792Y00823961D01*
X00743942Y0082366D01*
X00743115Y00823292D01*
X00742311Y00822857D01*
X00741529Y00822354D01*
X00740769Y00821785D01*
X00740033Y00821149D01*
X00740733Y00835131D01*
X00741393Y00834441D01*
D02*
G37*
G36*
X00716482Y0081842D02*
X00715755Y00818096D01*
X00715113Y00817557D01*
X00714556Y00816803D01*
X00714085Y00815833D01*
X007137Y00814647D01*
X007134Y00813245D01*
X00713186Y00811628D01*
X00713058Y00809796D01*
X00713015Y00807747D01*
X00700015D01*
X00699994Y00809796D01*
X00699673Y00814647D01*
X00699481Y00815833D01*
X00699247Y00816803D01*
X00698969Y00817557D01*
X00698649Y00818096D01*
X00698286Y0081842D01*
X0069788Y00818528D01*
X00717296D01*
X00716482Y0081842D01*
D02*
G37*
G36*
X00659585Y00809961D02*
X0065899Y00809749D01*
X00658465Y00809397D01*
X0065801Y00808904D01*
X00657625Y00808271D01*
X0065731Y00807498D01*
X00657065Y00806584D01*
X0065689Y00805531D01*
X00656785Y00804337D01*
X0065675Y00803003D01*
X0064975D01*
X00649737Y00804333D01*
X00649433Y00808253D01*
X00649294Y00808883D01*
X00649129Y00809373D01*
X0064894Y00809723D01*
X00648724Y00809933D01*
X00648484Y00810003D01*
X0066025Y00810033D01*
X00659585Y00809961D01*
D02*
G37*
G36*
X00248585Y00791996D02*
X00248743Y007919D01*
X00248945Y00791741D01*
X0024919Y00791518D01*
X0024981Y00790882D01*
X00251063Y00789449D01*
X00251568Y00788844D01*
X00243538Y00786993D01*
X0024327Y00786346D01*
X00236469Y00786627D01*
X00236481Y00786709D01*
X00236491Y00786894D01*
X0023653Y00792028D01*
X0024847D01*
X00248585Y00791996D01*
D02*
G37*
G36*
X00342647Y00782249D02*
X00284947Y00782747D01*
Y00788747D01*
X00342647Y00789246D01*
Y00782249D01*
D02*
G37*
G36*
X0095175Y00795171D02*
X00962656Y00790654D01*
X00967174Y00779747D01*
X00967382D01*
Y00756592D01*
X00964519Y00755562D01*
X00963112Y00757247D01*
X00958832Y0076758D01*
X009485Y0077186D01*
Y00771159D01*
X009225D01*
Y00771633D01*
X00914272Y00768225D01*
X00910864Y00759997D01*
X00910373D01*
X00907976Y00754209D01*
X00902188Y00751812D01*
Y00750847D01*
X00884175D01*
X00883578Y00753847D01*
X0089562Y00758835D01*
X00901388Y00772759D01*
X00860004D01*
X00865771Y00758835D01*
X00877814Y00753847D01*
X00877217Y00750847D01*
X00809773D01*
X0080725Y00751997D01*
X0080725Y00753847D01*
Y00763997D01*
X0079425D01*
X00793998Y00763997D01*
X00793975Y00764017D01*
X00793564Y00764014D01*
X00793281Y00764132D01*
X0079125Y00763997D01*
Y00763997D01*
X00790699Y00763447D01*
X00773484D01*
X00771765Y00765735D01*
X00771765Y00766447D01*
Y00775023D01*
X00771765Y00775735D01*
X00773484Y00778023D01*
X00775124D01*
X00780313Y00775873D01*
Y0077771D01*
X007805Y00777835D01*
X00784327Y0077942D01*
X00785529Y00782323D01*
X00787513Y00783543D01*
X0079074Y00782378D01*
X0079125Y00780997D01*
X0079125Y00780201D01*
Y00775997D01*
X0080725D01*
Y00780997D01*
X00806907D01*
X00806311Y00783997D01*
X0081496Y0078758D01*
X0081772Y00794242D01*
X00819189Y00794851D01*
X00819408Y00795379D01*
X00874096D01*
X00874693Y00792379D01*
X00865771Y00788684D01*
X00860004Y00774759D01*
X00901388D01*
X0089562Y00788684D01*
X00886699Y00792379D01*
X00887296Y00795379D01*
X0095175D01*
Y00795171D01*
D02*
G37*
G36*
X0010778Y00782402D02*
X0010796Y00781898D01*
X00108259Y00781452D01*
X0010868Y00781066D01*
X0010922Y00780739D01*
X0010988Y00780472D01*
X0011066Y00780264D01*
X00111559Y00780116D01*
X00112579Y00780027D01*
X0011372Y00779997D01*
Y00773997D01*
X00112579Y00773967D01*
X00111559Y00773878D01*
X0011066Y0077373D01*
X0010988Y00773522D01*
X0010922Y00773255D01*
X0010868Y00772928D01*
X00108259Y00772542D01*
X0010796Y00772097D01*
X0010778Y00771592D01*
X00107719Y00771028D01*
Y00782967D01*
X0010778Y00782402D01*
D02*
G37*
G36*
X00711871Y00755096D02*
X00710908Y00755415D01*
X00709765Y00755584D01*
X0070844Y00755604D01*
X00706936Y00755474D01*
X0070525Y00755194D01*
X00703383Y00754764D01*
X00699107Y00753455D01*
X00696698Y00752576D01*
X00694108Y00751547D01*
X00692219Y0075848D01*
X00698795Y00761004D01*
X00711871Y00755096D01*
D02*
G37*
G36*
X00793281Y00754028D02*
X00793221Y00754219D01*
X00793041Y0075439D01*
X00792741Y00754541D01*
X00792321Y00754672D01*
X00791781Y00754783D01*
X00791121Y00754874D01*
X00789441Y00754994D01*
X00787281Y00755035D01*
Y00761035D01*
X00788421Y00761044D01*
X00791781Y00761268D01*
X00792321Y0076137D01*
X00792741Y00761491D01*
X00793041Y00761631D01*
X00793221Y0076179D01*
X00793281Y00761967D01*
Y00754028D01*
D02*
G37*
G36*
X00650397Y00728929D02*
X00649393Y00727624D01*
X0064784Y00725285D01*
X00647292Y00724252D01*
X00646895Y00723309D01*
X0064665Y00722456D01*
X00646557Y00721694D01*
X00646616Y00721022D01*
X00646827Y00720441D01*
X00647189Y00719951D01*
X0064028Y00726968D01*
X00640455Y00727019D01*
X00640697Y00727171D01*
X00641007Y00727425D01*
X00641383Y00727781D01*
X00642338Y00728798D01*
X00645054Y00732053D01*
X00650397Y00728929D01*
D02*
G37*
G36*
X009485Y00758871D02*
X0094952Y00755813D01*
X00949346Y00755401D01*
X00946176Y00747747D01*
X00949346Y00740094D01*
X0095139Y00739247D01*
Y00736247D01*
X00949346Y00735401D01*
X00946176Y00727747D01*
X00949346Y00720094D01*
X00949511Y00720025D01*
X00948182Y00716816D01*
X0094225Y00714359D01*
Y00713409D01*
X0092625D01*
Y00714503D01*
X00921658Y00716405D01*
X00919756Y00720997D01*
X00919629D01*
X00914323Y00733808D01*
X00905822Y00737328D01*
Y00740329D01*
X0091716Y00745025D01*
X00918406Y00748032D01*
X00921356Y00747316D01*
X00924348Y00740094D01*
X00926391Y00739247D01*
Y00736247D01*
X00924348Y00735401D01*
X00921178Y00727747D01*
X00924348Y00720094D01*
X00932001Y00716923D01*
X00939655Y00720094D01*
X00942825Y00727747D01*
X00939655Y00735401D01*
X00937612Y00736247D01*
Y00739247D01*
X00939655Y00740094D01*
X00942411Y00746747D01*
X00932002D01*
Y00748747D01*
X00942411D01*
X00939655Y00755401D01*
X00934985Y00757335D01*
X00935582Y00760335D01*
X00946107D01*
X009485Y00758871D01*
D02*
G37*
G36*
X00683254Y00711884D02*
X0068363Y00706284D01*
X00683719Y00706214D01*
X0067578D01*
X00675869Y00706284D01*
X00675949Y00706494D01*
X0067602Y00706843D01*
X00676081Y00707334D01*
X00676174Y00708734D01*
X0067625Y00713214D01*
X0068325D01*
X00683254Y00711884D01*
D02*
G37*
G36*
X00666254D02*
X0066663Y00706284D01*
X00666719Y00706214D01*
X0065878D01*
X00658869Y00706284D01*
X00658949Y00706494D01*
X0065902Y00706843D01*
X00659081Y00707334D01*
X00659174Y00708734D01*
X0065925Y00713214D01*
X0066625D01*
X00666254Y00711884D01*
D02*
G37*
G36*
X00647131Y00714467D02*
X00647051Y00714287D01*
X0064698Y00713987D01*
X00646919Y00713567D01*
X00646825Y00712367D01*
X00646789Y00710533D01*
X0064705Y00706454D01*
X0064713Y00706273D01*
X00647219Y00706214D01*
X0063928D01*
X00639559Y00706273D01*
X00639809Y00706454D01*
X0064003Y00706754D01*
X00640221Y00707173D01*
X00640383Y00707713D01*
X00640515Y00708373D01*
X00640618Y00709154D01*
X00640696Y00710434D01*
X0064045Y00714287D01*
X0064037Y00714467D01*
X0064028Y00714527D01*
X0064722D01*
X00647131Y00714467D01*
D02*
G37*
G36*
X0074828Y00697948D02*
X0074837Y00696924D01*
X0074852Y0069602D01*
X0074873Y00695237D01*
X00749Y00694574D01*
X0074933Y00694031D01*
X0074972Y00693608D01*
X0075017Y00693306D01*
X0075068Y00693123D01*
X0075125Y00693061D01*
X0074103Y00693092D01*
X00741262Y00693152D01*
X00741469Y00693332D01*
X00741652Y00693632D01*
X00741811Y00694052D01*
X00741945Y00694592D01*
X00742055Y00695252D01*
X0074214Y00696032D01*
X00742238Y00697952D01*
X0074225Y00699092D01*
X0074825D01*
X0074828Y00697948D01*
D02*
G37*
G36*
X00798077Y00696567D02*
X0079941Y00694559D01*
X00799868Y00693978D01*
X00800804Y00692951D01*
X00801282Y00692504D01*
X00801767Y00692101D01*
X00802259Y00691743D01*
X00791238Y00689744D01*
X00791651Y0069039D01*
X00791974Y00691035D01*
X00792207Y00691679D01*
X0079235Y00692321D01*
X00792404Y00692963D01*
X00792367Y00693604D01*
X00792242Y00694244D01*
X00792026Y00694883D01*
X00791721Y00695521D01*
X00791326Y00696159D01*
X00797646Y00697326D01*
X00798077Y00696567D01*
D02*
G37*
G36*
X00630165Y00694219D02*
X00630154Y00694053D01*
X00630185Y00693775D01*
X00630259Y00693387D01*
X00630536Y00692278D01*
X00631603Y00688729D01*
X00624925Y006885D01*
X00624568Y00689597D01*
X00623092Y00693351D01*
X00622858Y00693755D01*
X00622645Y00694044D01*
X00622452Y00694217D01*
X0062228Y00694275D01*
X00630219D01*
X00630165Y00694219D01*
D02*
G37*
G36*
X0068366Y00694208D02*
X00683556Y00694007D01*
X00683408Y00693673D01*
X00681593Y00688861D01*
X00681136Y00687591D01*
X00673131Y00687984D01*
X0067578Y00694275D01*
X00683719D01*
X0068366Y00694208D01*
D02*
G37*
G36*
X00672452Y00678473D02*
X00671202Y00677915D01*
X00669096Y00676817D01*
X00668241Y00676278D01*
X00667517Y00675744D01*
X00666925Y00675217D01*
X00666464Y00674696D01*
X00666135Y00674182D01*
X00665938Y00673673D01*
X00665872Y00673171D01*
Y00685611D01*
X00665933Y00685351D01*
X00666115Y00685173D01*
X00666417Y00685076D01*
X00666842Y00685061D01*
X00667387Y00685128D01*
X00668053Y00685277D01*
X0066884Y00685508D01*
X00670779Y00686214D01*
X0067193Y0068669D01*
X00672452Y00678473D01*
D02*
G37*
G36*
X00639934Y00673321D02*
X00639877Y00673915D01*
X00639707Y00674494D01*
X00639423Y00675058D01*
X00639026Y00675606D01*
X00638516Y0067614D01*
X00637892Y00676658D01*
X00637155Y00677162D01*
X00636304Y00677651D01*
X0063534Y00678124D01*
X00634263Y00678583D01*
X00634597Y00685465D01*
X00635611Y00685084D01*
X00637319Y00684586D01*
X00638012Y00684469D01*
X006386Y0068444D01*
X0063908Y00684499D01*
X00639453Y00684645D01*
X0063972Y00684879D01*
X0063988Y00685201D01*
X00639934Y00685611D01*
Y00673321D01*
D02*
G37*
G36*
X00803525Y00679499D02*
X00803209Y00678998D01*
X0080293Y00678457D01*
X00802688Y00677876D01*
X00802483Y00677254D01*
X00802316Y00676593D01*
X00802186Y00675891D01*
X00802093Y00675149D01*
X00802069Y00674821D01*
X00802398Y00669912D01*
X00802487Y00669842D01*
X00794548D01*
X00794638Y00669912D01*
X00794717Y00670122D01*
X00794788Y00670472D01*
X00794849Y00670962D01*
X00794943Y00672362D01*
X00794969Y00673928D01*
X00794927Y00674411D01*
X00794812Y0067514D01*
X00794652Y00675822D01*
X00794446Y00676456D01*
X00794194Y00677042D01*
X00793896Y0067758D01*
X00793553Y00678071D01*
X00793163Y00678514D01*
X00792728Y00678909D01*
X00803879Y00679959D01*
X00803525Y00679499D01*
D02*
G37*
G36*
X00755335Y00677083D02*
X0075474Y00676873D01*
X00754215Y00676523D01*
X0075376Y00676033D01*
X00753375Y00675403D01*
X0075306Y00674633D01*
X00752815Y00673723D01*
X0075266Y00672792D01*
X00752812Y00670122D01*
X00752895Y00669912D01*
X00752988Y00669842D01*
X00745049D01*
X00745134Y00669912D01*
X00745211Y00670122D01*
X00745279Y00670472D01*
X00745338Y00670962D01*
X00745411Y00672098D01*
X0074536Y00672673D01*
X00745185Y00673723D01*
X0074494Y00674633D01*
X00744625Y00675403D01*
X0074424Y00676033D01*
X00743785Y00676523D01*
X0074326Y00676873D01*
X00742665Y00677083D01*
X00742Y00677153D01*
X00756D01*
X00755335Y00677083D01*
D02*
G37*
G36*
X00649433Y00648178D02*
X00649353Y006486D01*
X00649113Y00648977D01*
X00648713Y0064931D01*
X00648153Y00649598D01*
X00647433Y00649843D01*
X00646553Y00650042D01*
X00645513Y00650198D01*
X00644313Y00650309D01*
X00641433Y00650397D01*
Y00658398D01*
X00642953Y0065842D01*
X00645513Y00658597D01*
X00646553Y00658753D01*
X00647433Y00658952D01*
X00648153Y00659196D01*
X00648713Y00659485D01*
X00649113Y00659818D01*
X00649353Y00660195D01*
X00649433Y00660617D01*
Y00648178D01*
D02*
G37*
G36*
X0085375Y0064664D02*
X0084375Y0063164D01*
X0084365Y0063354D01*
X0084335Y0063524D01*
X0084285Y0063674D01*
X0084215Y0063804D01*
X0084125Y0063914D01*
X0084015Y0064004D01*
X0083885Y0064074D01*
X0083735Y0064124D01*
X0083565Y0064154D01*
X0083375Y0064164D01*
Y0065164D01*
X0083565Y0065174D01*
X0083735Y0065204D01*
X0083885Y0065254D01*
X0084015Y0065324D01*
X0084125Y0065414D01*
X0084215Y0065524D01*
X0084285Y0065654D01*
X0084335Y0065804D01*
X0084365Y0065974D01*
X0084375Y0066164D01*
X0085375Y0064664D01*
D02*
G37*
G36*
X00349642Y0064064D02*
X00355Y0063842D01*
X00383039D01*
X00384945Y0063542D01*
X00383423Y00631747D01*
Y00589747D01*
X00383576Y00589379D01*
X00381032Y0058768D01*
X00350671Y00618041D01*
X00350722Y00618092D01*
X00345523Y00630644D01*
X00345451D01*
Y0064292D01*
X00348451Y00643517D01*
X00349642Y0064064D01*
D02*
G37*
G36*
X00411677Y0063542D02*
X00410673Y00632997D01*
Y00588247D01*
X00412892Y0058289D01*
X0041825Y00580671D01*
X00423608Y0058289D01*
X00425827Y00588247D01*
Y00626699D01*
X00428827Y00627295D01*
X00431601Y00620597D01*
X00431673D01*
Y00606647D01*
X00431615D01*
X0043413Y00594005D01*
X00441291Y00583288D01*
X00452008Y00576127D01*
X0046416Y0057371D01*
X0046675Y00572721D01*
X0046675Y00572721D01*
X0046675Y00572721D01*
X00471151Y00570898D01*
X00472974Y00566497D01*
X00473923D01*
Y00495943D01*
X00470923Y00495033D01*
X00465209Y00503585D01*
X00465168Y00503544D01*
X00388933Y0057978D01*
X00390632Y00582323D01*
X00391Y0058217D01*
X00396358Y0058439D01*
X00398577Y00589747D01*
Y00631747D01*
X00397055Y0063542D01*
X00398962Y0063842D01*
X00409673D01*
X00411677Y0063542D01*
D02*
G37*
G36*
X0117293Y00511928D02*
X0117277Y00513223D01*
X0117229Y00514383D01*
X0117149Y00515406D01*
X0117037Y00516292D01*
X01168931Y00517042D01*
X0116717Y00517656D01*
X0116509Y00518134D01*
X01162691Y00518474D01*
X01161306Y00518579D01*
X0115113Y00517962D01*
X01150969Y00517778D01*
Y00535717D01*
X0115113Y00535532D01*
X01151609Y00535368D01*
X0115241Y00535222D01*
X0115353Y00535096D01*
X0115881Y00534835D01*
X01159977Y00534822D01*
X01162691Y00535044D01*
X0116509Y00535415D01*
X0116717Y00535934D01*
X01168931Y00536602D01*
X0117037Y00537418D01*
X0117149Y00538383D01*
X0117229Y00539496D01*
X0117277Y00540757D01*
X0117293Y00542167D01*
Y00511928D01*
D02*
G37*
G36*
X01056079Y0054583D02*
X0105641Y00545708D01*
X0105696Y005456D01*
X01057729Y00545506D01*
X0105993Y00545362D01*
X0106697Y00545247D01*
Y00534247D01*
X0106488Y0053424D01*
X01056079Y00533664D01*
X01055969Y00533528D01*
Y00545967D01*
X01056079Y0054583D01*
D02*
G37*
G36*
X01024031Y00545967D02*
Y00533528D01*
X01023924Y00533595D01*
X01023604Y0053372D01*
X01022326Y00534142D01*
X01013378Y00536789D01*
X01013858Y00549117D01*
X01024031Y00545967D01*
D02*
G37*
G36*
X01150969Y00517778D02*
X01150558Y00517686D01*
X01150017Y0051741D01*
X01149345Y0051695D01*
X01148544Y00516307D01*
X0114655Y00514468D01*
X01142584Y0051033D01*
X01141002Y00508583D01*
X01126227Y00512413D01*
X0112845Y00514947D01*
X01133334Y00521183D01*
X01134366Y00522806D01*
X011351Y00524201D01*
X01135537Y00525368D01*
X01135676Y00526308D01*
X01135517Y0052702D01*
X01135061Y00527504D01*
X01150969Y00517778D01*
D02*
G37*
G36*
X005081Y00590598D02*
X00511242Y00589297D01*
X00510645Y00586297D01*
X00507D01*
Y00577297D01*
X00516D01*
Y00583297D01*
X00518574Y00585107D01*
X0052112Y00584268D01*
X00525851Y00572847D01*
X00525923D01*
Y00546747D01*
X00528143Y0054139D01*
X005335Y0053917D01*
X00537797Y0054095D01*
X00540797Y00539409D01*
Y00525497D01*
X00540725D01*
X0053505Y00511797D01*
X0052135Y00506122D01*
Y0050605D01*
X00515435D01*
X00515001Y00506176D01*
X00514565Y00506342D01*
X00514178Y0050653D01*
X00514153Y00506545D01*
X00513654Y00507751D01*
X00506Y00510921D01*
X00498346Y00507751D01*
X00495176Y00500097D01*
X00498346Y00492444D01*
X00506Y00489273D01*
X00513654Y00492444D01*
X00514153Y00493649D01*
X00514178Y00493664D01*
X00514565Y00493852D01*
X00515001Y00494018D01*
X00515435Y00494144D01*
X0052135D01*
Y00493992D01*
X00533407Y0049639D01*
X00538151Y0049956D01*
X00540797Y00498146D01*
Y00434891D01*
X00537797Y00434294D01*
X00537358Y00435355D01*
X00532Y00437574D01*
X00511668D01*
X00511071Y00440574D01*
X00513654Y00441643D01*
X00516824Y00449297D01*
X00513654Y00456951D01*
X00506Y00460121D01*
X00498346Y00456951D01*
X00495176Y00449297D01*
X00498346Y00441643D01*
X00500929Y00440574D01*
X00500332Y00437574D01*
X0049575D01*
Y00438565D01*
X00491732Y00440229D01*
X00490067Y00444247D01*
X00489077D01*
Y00566497D01*
X00490292D01*
X00483397Y00583144D01*
X00472469Y00587671D01*
X00473065Y00590671D01*
X005081D01*
Y00590598D01*
D02*
G37*
G36*
X01148505Y00500387D02*
X0114888Y00494787D01*
X01148969Y00494717D01*
X01141031D01*
X0114112Y00494787D01*
X01141199Y00494997D01*
X0114127Y00495347D01*
X01141331Y00495837D01*
X01141425Y00497237D01*
X011415Y00501717D01*
X011485D01*
X01148505Y00500387D01*
D02*
G37*
G36*
X00512146Y00505298D02*
X00512623Y00504941D01*
X00513143Y00504626D01*
X00513706Y00504353D01*
X00514313Y00504122D01*
X00514962Y00503933D01*
X00515655Y00503786D01*
X00516391Y00503681D01*
X00517171Y00503618D01*
X00517994Y00503597D01*
Y00496597D01*
X00517171Y00496576D01*
X00516391Y00496513D01*
X00515655Y00496408D01*
X00514962Y00496261D01*
X00514313Y00496072D01*
X00513706Y00495841D01*
X00513143Y00495568D01*
X00512623Y00495253D01*
X00512146Y00494896D01*
X00511713Y00494497D01*
Y00505697D01*
X00512146Y00505298D01*
D02*
G37*
G36*
X0114888Y00482708D02*
X01148801Y00482498D01*
X0114873Y00482148D01*
X01148669Y00481658D01*
X01148575Y00480258D01*
X01148522Y00477121D01*
X0114888Y00471787D01*
X01148969Y00471717D01*
X01141031D01*
X0114112Y00471787D01*
X01141199Y00471997D01*
X0114127Y00472347D01*
X01141331Y00472837D01*
X01141425Y00474237D01*
X01141478Y00477374D01*
X0114112Y00482708D01*
X01141031Y00482778D01*
X01148969D01*
X0114888Y00482708D01*
D02*
G37*
G36*
Y00459708D02*
X01148801Y00459498D01*
X0114873Y00459148D01*
X01148669Y00458658D01*
X01148575Y00457258D01*
X01148553Y00455918D01*
X01148677Y00454147D01*
X01148815Y00453237D01*
X01148992Y00452467D01*
X01149209Y00451837D01*
X01149465Y00451347D01*
X0114976Y00450997D01*
X01150095Y00450787D01*
X01150469Y00450717D01*
X0113953D01*
X01139905Y00450787D01*
X01140239Y00450997D01*
X01140535Y00451347D01*
X01140791Y00451837D01*
X01141008Y00452467D01*
X01141185Y00453237D01*
X01141323Y00454147D01*
X01141421Y00455197D01*
X01141422Y00455207D01*
X0114112Y00459708D01*
X01141031Y00459778D01*
X01148969D01*
X0114888Y00459708D01*
D02*
G37*
G36*
X0111648Y00429196D02*
X0111653Y00428778D01*
X0112747D01*
X01127431Y00428685D01*
X01127074Y00427946D01*
X01122866Y00419537D01*
X01111449Y00421406D01*
X01112414Y00423299D01*
X01115717Y0042891D01*
X01116073Y00429262D01*
X01116327Y00429357D01*
X0111648Y00429196D01*
D02*
G37*
G36*
X01072063Y00422122D02*
X01072345Y00421538D01*
X01072815Y00420965D01*
X01073472Y00420403D01*
X01074317Y00419851D01*
X0107535Y0041931D01*
X0107657Y0041878D01*
X01077979Y0041826D01*
X01081359Y00417253D01*
X01071234Y0040934D01*
X01067392Y00410373D01*
X01058072Y00413418D01*
X01057254Y00413908D01*
X01057041Y00414288D01*
X01057433Y0041456D01*
X01058429Y00414723D01*
X01060031Y00414778D01*
X0107197Y00422717D01*
X01072063Y00422122D01*
D02*
G37*
G36*
X00699921Y00402918D02*
X00699984Y00402139D01*
X00700089Y00401402D01*
X00700236Y00400709D01*
X00700425Y0040006D01*
X00700656Y00399453D01*
X00700929Y0039889D01*
X00701244Y0039837D01*
X00701601Y00397894D01*
X00702Y0039746D01*
X006908D01*
X00691199Y00397894D01*
X00691556Y0039837D01*
X00691871Y0039889D01*
X00692144Y00399453D01*
X00692375Y0040006D01*
X00692564Y00400709D01*
X00692711Y00401402D01*
X00692816Y00402139D01*
X00692879Y00402918D01*
X006929Y00403741D01*
X006999D01*
X00699921Y00402918D01*
D02*
G37*
G36*
X00674521D02*
X00674584Y00402139D01*
X00674689Y00401402D01*
X00674836Y00400709D01*
X00675025Y0040006D01*
X00675256Y00399453D01*
X00675529Y0039889D01*
X00675844Y0039837D01*
X00676201Y00397894D01*
X006766Y0039746D01*
X006654D01*
X00665799Y00397894D01*
X00666156Y0039837D01*
X00666471Y0039889D01*
X00666744Y00399453D01*
X00666975Y0040006D01*
X00667164Y00400709D01*
X00667311Y00401402D01*
X00667416Y00402139D01*
X00667479Y00402918D01*
X006675Y00403741D01*
X006745D01*
X00674521Y00402918D01*
D02*
G37*
G36*
X0055025Y00401541D02*
X0055026Y00400701D01*
X00550406Y00398455D01*
X00550493Y00397797D01*
X00550727Y00396617D01*
X00550873Y00396095D01*
X00551038Y00395618D01*
X00551223Y00395187D01*
X00540705Y00399037D01*
X00541189Y00399299D01*
X00541621Y00399624D01*
X00542003Y00400013D01*
X00542334Y00400465D01*
X00542614Y00400981D01*
X00542843Y0040156D01*
X00543021Y00402203D01*
X00543148Y00402909D01*
X00543225Y00403679D01*
X0054325Y00404512D01*
X0055025Y00401541D01*
D02*
G37*
G36*
X00539716Y00387952D02*
X00542958Y00383815D01*
X00538318Y00381508D01*
X00538133Y00381733D01*
X00535Y00380171D01*
X00528409Y00388825D01*
X00529575Y00389044D01*
X0053066Y00389333D01*
X00531666Y00389693D01*
X00532592Y00390122D01*
X00533438Y00390621D01*
X00534204Y0039119D01*
X0053489Y00391828D01*
X00535496Y00392537D01*
X00536022Y00393315D01*
X00536468Y00394164D01*
X00539716Y00387952D01*
D02*
G37*
G36*
X00442622Y00392624D02*
X00442973Y00391777D01*
X00443558Y0039103D01*
X00444377Y00390382D01*
X00445431Y00389835D01*
X00446718Y00389386D01*
X0044824Y00389038D01*
X00449995Y00388789D01*
X00451985Y00388639D01*
X00454209Y0038859D01*
Y0037859D01*
X00451985Y0037854D01*
X00449995Y0037839D01*
X0044824Y00378141D01*
X00446718Y00377793D01*
X00445431Y00377344D01*
X00444377Y00376796D01*
X00443558Y00376149D01*
X00442973Y00375402D01*
X00442622Y00374555D01*
X00442505Y00373609D01*
Y0039357D01*
X00442622Y00392624D01*
D02*
G37*
G36*
X00393583Y00381675D02*
X00393248Y0038077D01*
X00393174Y00379715D01*
X0039336Y00378509D01*
X00393807Y00377153D01*
X00394514Y00375645D01*
X00395482Y00373988D01*
X00396711Y00372179D01*
X003982Y0037022D01*
X00399949Y00368111D01*
X00390362Y00363289D01*
X00383315Y00372267D01*
X00394178Y00382429D01*
X00393583Y00381675D01*
D02*
G37*
G36*
X00368396Y00374792D02*
X00368146Y00374041D01*
X00367926Y00373155D01*
X00367735Y00372135D01*
X0036744Y00369692D01*
X00367264Y00366713D01*
X00367205Y00363196D01*
X00357205D01*
X00357191Y00365021D01*
X00356676Y00372135D01*
X00356485Y00373155D01*
X00356264Y00374041D01*
X00356015Y00374792D01*
X00355735Y00375409D01*
X00368675D01*
X00368396Y00374792D01*
D02*
G37*
G36*
X00412168Y00347121D02*
X00413044Y00346803D01*
X00414301Y00346235D01*
X00420352Y00343037D01*
X00426287Y00339659D01*
X00418279Y00333669D01*
X00417334Y00334169D01*
X00416376Y00334582D01*
X00415405Y00334908D01*
X0041442Y00335148D01*
X00413422Y003353D01*
X00412411Y00335366D01*
X00411386Y00335345D01*
X00410349Y00335237D01*
X00409298Y00335043D01*
X00408234Y00334761D01*
X00411819Y00346582D01*
X00411555Y00347011D01*
X00411671Y00347191D01*
X00412168Y00347121D01*
D02*
G37*
G36*
X00469667Y00316694D02*
X00467126Y00314954D01*
X00459736Y00310586D01*
X00459321Y0031058D01*
X00459261Y00310863D01*
X00459554Y00311434D01*
X00460202Y00312295D01*
X0045525Y0032425D01*
X0045632Y003242D01*
X00457422Y00324255D01*
X00458558Y00324417D01*
X00459726Y00324686D01*
X00460928Y0032506D01*
X00462162Y00325541D01*
X00463429Y00326127D01*
X00464729Y0032682D01*
X00467428Y00328526D01*
X00469667Y00316694D01*
D02*
G37*
G36*
X00436226Y00278108D02*
X00440055Y00275448D01*
X00440322Y00275421D01*
X00441138Y00275426D01*
X0044203Y00275511D01*
X00442996Y00275676D01*
X00444038Y00275921D01*
X00446347Y00276651D01*
X004453Y00273282D01*
X00445887Y00273199D01*
X00446956Y00273282D01*
X00447871Y00273622D01*
X00448631Y0027422D01*
X00444089Y00269384D01*
X00441616Y0026143D01*
X00441311Y00261818D01*
X00440943Y00262215D01*
X00440514Y00262621D01*
X00440023Y00263035D01*
X00438898Y00263858D01*
X00438427Y00263356D01*
X00438447Y00263219D01*
X00438261Y00263265D01*
X0043787Y00263494D01*
X00437274Y00263905D01*
X00434255Y00266237D01*
X0042939Y00270214D01*
X00434074Y00279827D01*
X00436226Y00278108D01*
D02*
G37*
G36*
X00460792Y00277678D02*
X00463531Y00275201D01*
X00467202Y00271461D01*
X00483805Y0025267D01*
X00464763Y00246556D01*
X0046305Y00248441D01*
X00461202Y00250223D01*
X00459219Y00251902D01*
X00457102Y00253479D01*
X0045485Y00254952D01*
X00452464Y00256323D01*
X00449942Y00257591D01*
X00447286Y00258756D01*
X0044157Y00260777D01*
X00461073Y00271138D01*
X00459154Y0027497D01*
X00458166Y0027754D01*
X00458109Y00278848D01*
X00458985Y00278894D01*
X00460792Y00277678D01*
D02*
G37*
%LPC*%
G36*
X0080725Y00773997D02*
X0080025D01*
Y00768997D01*
X0080725D01*
Y00773997D01*
D02*
G37*
G36*
X0079825D02*
X0079125D01*
Y00768997D01*
X0079825D01*
Y00773997D01*
D02*
G37*
G36*
X00505Y00586297D02*
X00496D01*
Y00577297D01*
X00505D01*
Y00586297D01*
D02*
G37*
G36*
X00516Y00575297D02*
X00507D01*
Y00566297D01*
X00516D01*
Y00575297D01*
D02*
G37*
G36*
X00505D02*
X00496D01*
Y00566297D01*
X00505D01*
Y00575297D01*
D02*
G37*
G36*
X00506Y00561721D02*
X00498346Y00558551D01*
X00495176Y00550897D01*
X00498346Y00543243D01*
X00506Y00540073D01*
X00513654Y00543243D01*
X00516824Y00550897D01*
X00513654Y00558551D01*
X00506Y00561721D01*
D02*
G37*
G36*
Y00536321D02*
X00498346Y00533151D01*
X00495176Y00525497D01*
X00498346Y00517844D01*
X00506Y00514673D01*
X00513654Y00517844D01*
X00516824Y00525497D01*
X00513654Y00533151D01*
X00506Y00536321D01*
D02*
G37*
G36*
Y00485521D02*
X00498346Y00482351D01*
X00495176Y00474697D01*
X00498346Y00467043D01*
X00506Y00463873D01*
X00513654Y00467043D01*
X00516824Y00474697D01*
X00513654Y00482351D01*
X00506Y00485521D01*
D02*
G37*
%LPD*%
G36*
X002495Y00827856D02*
X0024893Y00827246D01*
X0024842Y00826594D01*
X0024797Y00825899D01*
X0024758Y00825161D01*
X0024725Y0082438D01*
X0024698Y00823556D01*
X0024677Y00822689D01*
X00246644Y00821927D01*
X00246815Y00819847D01*
X00246992Y00818967D01*
X00247209Y00818247D01*
X00247465Y00817687D01*
X00247761Y00817287D01*
X00248095Y00817047D01*
X0024847Y00816967D01*
X0023653D01*
X00236905Y00817047D01*
X00237239Y00817287D01*
X00237535Y00817687D01*
X00237791Y00818247D01*
X00238008Y00818967D01*
X00238185Y00819847D01*
X00238323Y00820887D01*
X00238378Y0082179D01*
X0023823Y00822689D01*
X0023802Y00823556D01*
X0023775Y0082438D01*
X0023742Y00825161D01*
X0023703Y00825899D01*
X0023658Y00826594D01*
X0023607Y00827246D01*
X002355Y00827856D01*
X002495Y00827856D01*
D02*
G37*
G36*
X00082781Y00771028D02*
X00082701Y00771402D01*
X0008246Y00771737D01*
X0008206Y00772032D01*
X00081501Y00772288D01*
X0008078Y00772505D01*
X000799Y00772682D01*
X00078861Y0077282D01*
X00076301Y00772977D01*
X00074781Y00772997D01*
Y00780997D01*
X00076301Y00781017D01*
X000799Y00781312D01*
X0008078Y00781489D01*
X00081501Y00781706D01*
X0008206Y00781962D01*
X0008246Y00782258D01*
X00082701Y00782592D01*
X00082781Y00782967D01*
Y00771028D01*
D02*
G37*
G36*
X0120703Y00762517D02*
X01208455Y00740917D01*
X01208901Y00739417D01*
X01209405Y00738517D01*
X01209969Y00738217D01*
X01174031D01*
X01174595Y00738517D01*
X01175099Y00739417D01*
X01175545Y00740917D01*
X01175931Y00743017D01*
X01176258Y00745717D01*
X01176733Y00752917D01*
X01177Y00768217D01*
X01207D01*
X0120703Y00762517D01*
D02*
G37*
G36*
X01174031Y00711278D02*
X0117388Y00712412D01*
X0117343Y00713427D01*
X01172681Y00714322D01*
X0117163Y00715098D01*
X01170281Y00715755D01*
X01168631Y00716292D01*
X01166681Y0071671D01*
X0116443Y00717008D01*
X0116188Y00717188D01*
X01159031Y00717247D01*
Y00732247D01*
X0116188Y00732307D01*
X01166681Y00732785D01*
X01168631Y00733202D01*
X01170281Y0073374D01*
X0117163Y00734396D01*
X01172681Y00735172D01*
X0117343Y00736068D01*
X0117388Y00737083D01*
X01174031Y00738217D01*
Y00711278D01*
D02*
G37*
G36*
X01106939Y00704802D02*
X01113969Y00704778D01*
X01113975Y00704718D01*
X0111398Y00704538D01*
X01113997Y00699717D01*
X01114D01*
X01114005Y00698577D01*
X01114301Y00693957D01*
X0111438Y00693777D01*
X0111447Y00693717D01*
X01107531D01*
X0110762Y00693777D01*
X011077Y00693957D01*
X0110777Y00694257D01*
X01107831Y00694677D01*
X01107925Y00695877D01*
X0110799Y00699179D01*
X0110797Y00699922D01*
X0110788Y00700945D01*
X0110773Y00701849D01*
X0110752Y00702632D01*
X0110725Y00703295D01*
X0110692Y00703838D01*
X0110653Y00704261D01*
X0110608Y00704564D01*
X01106Y00704592D01*
X0110592Y00704564D01*
X0110547Y00704261D01*
X0110508Y00703838D01*
X0110475Y00703295D01*
X0110448Y00702632D01*
X0110427Y00701849D01*
X0110412Y00700945D01*
X0110403Y00699922D01*
X01104003Y00698905D01*
X01104005Y00698577D01*
X01104301Y00693957D01*
X0110438Y00693777D01*
X0110447Y00693717D01*
X01097531D01*
X0109762Y00693777D01*
X010977Y00693957D01*
X0109777Y00694257D01*
X01097831Y00694677D01*
X01097925Y00695877D01*
X01098Y00699717D01*
X01098005D01*
X0109803Y00704778D01*
X01105061Y00704802D01*
X01105Y00704808D01*
X01106Y00704805D01*
X01107Y00704808D01*
X01106939Y00704802D01*
D02*
G37*
G36*
X01114072Y00722438D02*
X01114381Y00722188D01*
X01114896Y00721967D01*
X01115617Y00721776D01*
X01116543Y00721615D01*
X01117675Y00721482D01*
X01120558Y00721306D01*
X01124264Y00721247D01*
Y00706247D01*
X01122308Y00706233D01*
X01116543Y0070588D01*
X01115617Y00705718D01*
X01114896Y00705527D01*
X01114381Y00705307D01*
X01114072Y00705057D01*
X01113969Y00704778D01*
Y00722717D01*
X01114072Y00722438D01*
D02*
G37*
G36*
X01124559Y00667627D02*
X01124829Y00667548D01*
X01125279Y00667477D01*
X0112591Y00667416D01*
X01128879Y00667289D01*
X01133469Y00667247D01*
Y00658247D01*
X0112447Y00657778D01*
Y00667717D01*
X01124559Y00667627D01*
D02*
G37*
G36*
X01208031Y00632317D02*
X01208345Y00627278D01*
X01209969D01*
X01209595Y0062698D01*
X0120926Y00626086D01*
X01208965Y00624596D01*
X01208709Y00622511D01*
X01208675Y00621995D01*
X01209105Y00615104D01*
X01209504Y0061325D01*
X01209965Y00611926D01*
X01210486Y00611131D01*
X0121107Y00610867D01*
X01208221D01*
X01208Y00597484D01*
X01176D01*
X0117598Y00603145D01*
X0117547Y00610867D01*
X0117293D01*
X01173514Y00611131D01*
X01174035Y00611926D01*
X01174496Y0061325D01*
X01174895Y00615104D01*
X01175096Y00616523D01*
X01174405Y0062698D01*
X01174031Y00627278D01*
X01175794D01*
X01176Y00637348D01*
X01208D01*
X01208031Y00632317D01*
D02*
G37*
G36*
X01097531Y00657778D02*
X0109744Y00657856D01*
X0109717Y00657927D01*
X01096721Y00657992D01*
X01095281Y00658098D01*
X01088531Y0065824D01*
Y0066724D01*
X01090241Y00667235D01*
X0109744Y00667617D01*
X01097531Y00667717D01*
Y00657778D01*
D02*
G37*
G36*
X01081507Y00621007D02*
X01081961Y00614077D01*
X01082083Y00613807D01*
X01082219Y00613717D01*
X01069781D01*
X01070297Y00613807D01*
X0107076Y00614077D01*
X01071168Y00614527D01*
X01071521Y00615157D01*
X0107182Y00615967D01*
X01072065Y00616957D01*
X01072255Y00618127D01*
X01072391Y00619477D01*
X010725Y00622717D01*
X010815D01*
X01081507Y00621007D01*
D02*
G37*
G36*
X01069811Y00594247D02*
X01069709Y00595197D01*
X01069407Y00596047D01*
X01068905Y00596797D01*
X01068202Y00597447D01*
X01067299Y00597997D01*
X01066196Y00598447D01*
X01064893Y00598797D01*
X01063389Y00599047D01*
X01062458Y00599129D01*
X0105757Y00598808D01*
X0105687Y0059865D01*
X01056369Y00598467D01*
X01056069Y00598259D01*
X01055969Y00598028D01*
Y00610467D01*
X01056069Y00610235D01*
X01056369Y00610028D01*
X0105687Y00609845D01*
X0105757Y00609686D01*
X01058469Y00609552D01*
X0106087Y00609357D01*
X01062155Y00609329D01*
X01063381Y00609426D01*
X01064881Y0060965D01*
X0106618Y00609962D01*
X01067281Y00610365D01*
X0106818Y00610856D01*
X0106888Y00611437D01*
X0106938Y00612108D01*
X0106968Y00612868D01*
X01069781Y00613717D01*
X01069811Y00594247D01*
D02*
G37*
G36*
X00279256Y00594385D02*
X00279466Y00591096D01*
X00279544Y00590687D01*
X00279634Y00590362D01*
X00279736Y00590119D01*
X0027985Y0058996D01*
X0026865D01*
X00268764Y00590119D01*
X00268866Y00590362D01*
X00268956Y00590687D01*
X00269034Y00591096D01*
X002691Y00591587D01*
X00269196Y0059282D01*
X0026925Y00595292D01*
X0027925D01*
X00279256Y00594385D01*
D02*
G37*
G36*
X00120053Y00585854D02*
X00118734Y0057542D01*
X00117988Y00575824D01*
X00116647Y0057644D01*
X00116051Y00576652D01*
X00115506Y00576801D01*
X0011501Y00576885D01*
X00114565Y00576906D01*
X0011417Y00576862D01*
X00113824Y00576755D01*
X00113529Y00576583D01*
X00115209Y00587657D01*
X00120053Y00585854D01*
D02*
G37*
G36*
X00173123Y00510874D02*
X00176735Y00507692D01*
X00177771Y00506914D01*
X00178723Y00506278D01*
X00179591Y00505783D01*
X00180374Y00505429D01*
X00181074Y00505217D01*
X0018169Y00505146D01*
X00169751Y00497207D01*
X0016968Y00497823D01*
X00169468Y00498522D01*
X00169114Y00499306D01*
X00168619Y00500174D01*
X00167983Y00501126D01*
X00167205Y00502162D01*
X00165225Y00504486D01*
X0016268Y00507146D01*
X00171751Y00512217D01*
X00173123Y00510874D01*
D02*
G37*
G36*
X00156946Y00411208D02*
X00156363Y00411121D01*
X00155659Y00410863D01*
X00154837Y00410433D01*
X00153894Y00409831D01*
X00152832Y00409057D01*
X00150348Y00406992D01*
X00147386Y00404239D01*
X00145725Y00402605D01*
X00138654Y00409676D01*
X00139766Y00410814D01*
X001424Y0041384D01*
X00143044Y0041472D01*
X00143571Y00415535D01*
X0014398Y00416285D01*
X00144273Y0041697D01*
X00144449Y00417591D01*
X00144507Y00418147D01*
X00156946Y00411208D01*
D02*
G37*
G36*
X00101926Y00259415D02*
X00102229Y00259289D01*
X0010252Y00259195D01*
X001028Y00259132D01*
X00103069Y002591D01*
X00103327Y00259099D01*
X00103573Y00259129D01*
X00103808Y00259191D01*
X00104032Y00259284D01*
X00104244Y00259408D01*
X00102001Y00248435D01*
X00101956Y00248482D01*
X00101874Y00248541D01*
X00101757Y00248609D01*
X00101604Y00248687D01*
X00100931Y00248984D01*
X00099936Y00249373D01*
X00101612Y00259572D01*
X00101926Y00259415D01*
D02*
G37*
G36*
X00120066Y00231651D02*
X00119429Y00231005D01*
X00117251Y00228531D01*
X00117017Y00228187D01*
X00116851Y00227893D01*
X00116752Y0022765D01*
X0011672Y00227457D01*
X001088Y00235376D01*
X00108993Y00235408D01*
X00109237Y00235508D01*
X00109531Y00235674D01*
X00109875Y00235908D01*
X00110269Y00236209D01*
X00111208Y00237012D01*
X00112995Y00238722D01*
X00120066Y00231651D01*
D02*
G37*
G36*
X00181363Y00480107D02*
X00181071Y00479807D01*
X00180813Y00479307D01*
X00180589Y00478607D01*
X001804Y00477707D01*
X00180245Y00476607D01*
X00180039Y00473807D01*
X0018Y00471743D01*
X00180499Y00464831D01*
X00180691Y00463811D01*
X00180911Y00462925D01*
X00181161Y00462174D01*
X0018144Y00461557D01*
X001685D01*
X00168779Y00462174D01*
X00169029Y00462925D01*
X0016925Y00463811D01*
X00169441Y00464831D01*
X00169735Y00467274D01*
X00169911Y00470254D01*
X00169936Y00471748D01*
X00169751Y00480207D01*
X0018169D01*
X00181363Y00480107D01*
D02*
G37*
G36*
X00181161Y0044458D02*
X00180911Y00443828D01*
X00180691Y00442942D01*
X00180499Y00441922D01*
X00180205Y0043948D01*
X00180029Y004365D01*
X00180011Y00435425D01*
X00180285Y00431246D01*
X00180463Y00430146D01*
X0018068Y00429246D01*
X00180936Y00428546D01*
X00181231Y00428046D01*
X00181566Y00427746D01*
X00181941Y00427646D01*
X001695D01*
X00169589Y00427746D01*
X00169669Y00428046D01*
X0016974Y00428546D01*
X00169801Y00429246D01*
X00169951Y00434046D01*
X00169955Y0043481D01*
X00169441Y00441922D01*
X0016925Y00442942D01*
X00169029Y00443828D01*
X00168779Y0044458D01*
X001685Y00445197D01*
X0018144D01*
X00181161Y0044458D01*
D02*
G37*
G36*
X00648626Y00403186D02*
X00648704Y00402438D01*
X00648834Y00401717D01*
X00649016Y00401025D01*
X0064925Y0040036D01*
X00649536Y00399724D01*
X00649874Y00399116D01*
X00650264Y00398536D01*
X00650706Y00397984D01*
X006512Y0039746D01*
X0064D01*
X00640494Y00397984D01*
X00640936Y00398536D01*
X00641326Y00399116D01*
X00641664Y00399724D01*
X0064195Y0040036D01*
X00642184Y00401025D01*
X00642366Y00401717D01*
X00642496Y00402438D01*
X00642574Y00403186D01*
X006426Y00403963D01*
X006486D01*
X00648626Y00403186D01*
D02*
G37*
G36*
X00625007Y00402041D02*
X00625236Y00398748D01*
X00625321Y00398337D01*
X0062542Y00398008D01*
X00625531Y00397762D01*
X00625656Y00397598D01*
X00614459Y00397319D01*
X00614562Y00397472D01*
X00614654Y00397709D01*
X00614735Y0039803D01*
X00614805Y00398436D01*
X00614913Y00399497D01*
X00614978Y00400894D01*
X00615Y00402627D01*
X00625Y00402947D01*
X00625007Y00402041D01*
D02*
G37*
G36*
X00685348Y00251304D02*
X00685758Y00250557D01*
X00686278Y00249899D01*
X00686907Y00249328D01*
X00687645Y00248845D01*
X00688492Y0024845D01*
X00689448Y00248142D01*
X00690514Y00247923D01*
X00691689Y00247791D01*
X00692972Y00247747D01*
X00691475Y00237747D01*
X00689166Y00237739D01*
X00677645Y00237087D01*
X00677073Y00236931D01*
X00685046Y00252138D01*
X00685348Y00251304D01*
D02*
G37*
G36*
X00883565Y00248102D02*
X00883862Y00247398D01*
X00884284Y00246777D01*
X00884832Y00246238D01*
X00885504Y00245783D01*
X00886302Y0024541D01*
X00887225Y0024512D01*
X00888274Y00244913D01*
X00889447Y00244789D01*
X00890746Y00244747D01*
X00888495Y00234747D01*
X00873987Y00235116D01*
X00883392Y0024889D01*
X00883565Y00248102D01*
D02*
G37*
D10*
X002425Y00795997D02*
G03*
X0025275Y00785747I0001025J0D01*
G01*
X002235Y00776997D02*
G03*
X002425Y00795997I0J00019D01*
G01*
X0063225Y00565247D02*
G03*
X006455Y00551997I0001325J0D01*
G01*
X0063225Y00609997D02*
G03*
X006125Y00629747I-0001975J0D01*
G01*
X005905Y00684125D02*
G03*
X00579955Y0069467I-00010545J0D01*
G01*
X005905Y00651747D02*
G03*
X006125Y00629747I00022J0D01*
G01*
X00905Y00559147D02*
G03*
X009304Y00533747I000254J0D01*
G01*
X00673737Y00770735D02*
G03*
X006685Y00765497I0J-00005237D01*
G01*
X0066125Y00734747D02*
G03*
X006685Y00741997I0J0000725D01*
G01*
X00655759Y00734491D02*
G03*
X00654258Y00734305I-00000017J-00006D01*
G01*
X0065675Y00734491D02*
G03*
X00657823Y00734607I0J00005D01*
G01*
X00659128Y00734747D02*
G03*
X00657823Y00734607I-00000017J-00006D01*
G01*
X00654258Y00734305D02*
G03*
X0064375Y00720747I00003492J-00013557D01*
G01*
X0064325Y00700244D02*
G03*
X0064375Y00700744I0J000005D01*
G01*
X0062625Y00696545D02*
G03*
X00643403Y00679391I00017154J0D01*
G01*
X007805Y00783247D02*
G03*
X00780313Y00783435I-00000187J0D01*
G01*
X0073425Y00792497D02*
G03*
X00756013Y00770735I00021763J0D01*
G01*
X00957Y00757247D02*
G03*
X009485Y00765747I-000085J0D01*
G01*
X009225D02*
G03*
X0091675Y00759997I0J-0000575D01*
G01*
X00902188Y00745435D02*
G03*
X0091675Y00759997I0J00014563D01*
G01*
X0094225Y00707997D02*
G03*
X00957Y00722747I0J0001475D01*
G01*
X0091325Y00720997D02*
G03*
X0092625Y00707997I00013J0D01*
G01*
X0091325Y00720997D02*
G03*
X00901513Y00732735I-00011737J0D01*
G01*
X00797768Y00685122D02*
G03*
X00775356Y00707535I-00022412J0D01*
G01*
X0074525Y00688872D02*
G03*
X00749Y00685122I0000375J0D01*
G01*
X00755162Y00720035D02*
G03*
X0074525Y00710122I0J-00009912D01*
G01*
X0010375Y00776997D02*
X002235D01*
X0025275Y00785747D02*
X0034275D01*
X0010375Y00776997D02*
Y00779247D01*
X006456Y00391747D02*
Y00514247D01*
X005905Y00651747D02*
Y00684125D01*
X0063225Y00565247D02*
Y00609997D01*
X006456Y00514247D02*
X0064575D01*
X009304Y00533747D02*
X00966D01*
X00905Y00559147D02*
Y00561747D01*
X00762015Y00758035D02*
X0079925D01*
Y00757997D02*
Y00758035D01*
X00673737Y00770735D02*
X00706515D01*
X006685Y00741997D02*
Y00765497D01*
X00655759Y00734491D02*
X0065675D01*
X00657823Y00734607D02*
X00657823Y00734607D01*
X00659128Y00734747D02*
X0066125D01*
X0064375Y00700744D02*
Y00720747D01*
X0062625Y00696545D02*
Y00700244D01*
X00762015Y00783435D02*
X00780313D01*
X00756013Y00770735D02*
X00762015D01*
X00957Y00747747D02*
Y00757247D01*
X009225Y00765747D02*
X009485D01*
X00762015Y00745435D02*
X00902188D01*
X0092625Y00707997D02*
X0094225D01*
X00957Y00722747D02*
Y00727747D01*
X00762015Y00732735D02*
X00901513D01*
X0074525Y00688872D02*
Y00710122D01*
X00755162Y00720035D02*
X00762015D01*
Y00707535D02*
X00775356D01*
X01121Y00661247D02*
X011215Y00660747D01*
X01099642Y00662676D02*
X011005Y00662247D01*
X01121Y00661247D02*
Y00662747D01*
X01101Y00688747D02*
Y00707747D01*
X01106Y00712747D01*
X01111Y00688747D02*
Y00707747D01*
D11*
X011005Y0041225D02*
G03*
X01122Y0043375I0J000215D01*
G01*
X01066Y00418747D02*
G03*
X01081686Y0041225I00015686J00015686D01*
G01*
X01003811Y00426187D02*
G03*
X01021771Y00418747I0001796J0001796D01*
G01*
X0070325Y00335597D02*
G03*
X006821Y00356747I-0002115J0D01*
G01*
X004535Y00470229D02*
G03*
X00446061Y00488189I-000254J0D01*
G01*
X0031975Y00656878D02*
G03*
X00312311Y00674839I-000254J0D01*
G01*
X0031975Y006245D02*
G03*
X00326821Y00607429I00024142J0D01*
G01*
X00337874Y00630644D02*
G03*
X00345313Y00612684I000254J0D01*
G01*
X0046725Y00480226D02*
G03*
X00459811Y00498187I-000254J0D01*
G01*
X00741143Y0064664D02*
G03*
X0073075Y00636247I0J-00010393D01*
G01*
Y00609497D02*
G03*
X0073125Y00608997I000005J0D01*
G01*
X0084875Y00584783D02*
G03*
X0085125Y00578747I00008536J0D01*
G01*
X00525321Y0038359D02*
G03*
X00543282Y00391029I0J000254D01*
G01*
X005411Y00772997D02*
G03*
X005665Y00798397I0J000254D01*
G01*
X0013375Y00558247D02*
G03*
X00109021Y00582977I-00024729J0D01*
G01*
D02*
G03*
X0010872Y00582975I0J-0002027D01*
G01*
D02*
G03*
X0008875Y00562706I000003J-00020268D01*
G01*
X0013375Y00553668D02*
G03*
X00141189Y00535707I000254J0D01*
G01*
X0042475Y00329247D02*
G03*
X00412367Y0034163I-00012383J0D01*
G01*
X0042475Y00292247D02*
G03*
X0044975Y00267247I00025J0D01*
G01*
X0008875Y00272747D02*
G03*
X0010872Y00252777I0001997J0D01*
G01*
X0083644Y00363058D02*
G03*
X00818479Y00370497I-0001796J-0001796D01*
G01*
X0046725Y00425997D02*
G03*
X0047875Y00414497I000115J0D01*
G01*
X004535Y00421268D02*
G03*
X00474521Y00400247I00021021J0D01*
G01*
X0047475Y00336247D02*
G03*
X0045175Y00359247I-00023J0D01*
G01*
X004815Y00444247D02*
G03*
X0049575Y00429997I0001425J0D01*
G01*
X00295574Y00658673D02*
G03*
X0027425Y00637349I0J-00021324D01*
G01*
X004434Y00734873D02*
G03*
X00418Y00709473I0J-000254D01*
G01*
X00362205Y0034203D02*
G03*
X00387605Y0031663I000254J0D01*
G01*
X0045575Y00317247D02*
G03*
X0047475Y00336247I0J00019D01*
G01*
X004164Y00756497D02*
G03*
X00391Y00731097I0J-000254D01*
G01*
X00387205Y0038359D02*
G03*
X00411548Y00359247I00024342J0D01*
G01*
X0043925Y00620597D02*
G03*
X0041385Y00645997I-000254J0D01*
G01*
D02*
G03*
X00413156Y00645973I0J-0001D01*
G01*
X005335Y00572847D02*
G03*
X005081Y00598247I-000254J0D01*
G01*
X004815Y00566497D02*
G03*
X0046675Y00581247I-0001475J0D01*
G01*
X0043925Y00606647D02*
G03*
X0046465Y00581247I000254J0D01*
G01*
X00633453Y00849794D02*
G03*
X0063325Y00849997I-00000203J0D01*
G01*
X00871Y00247254D02*
G03*
X00878506Y00239747I00007506J0D01*
G01*
X00673013Y00248754D02*
G03*
X00679019Y00242747I00006007J0D01*
G01*
X00127311Y00245967D02*
G03*
X0013475Y00263928I-0001796J0001796D01*
G01*
X0014219Y0040614D02*
G03*
X0013475Y0038818I0001796J-0001796D01*
G01*
X00821716Y00550963D02*
G03*
X0082075Y00551363I-00000966J-00000966D01*
G01*
X01042Y00418747D02*
X01066D01*
X01081686Y0041225D02*
X011005D01*
X01122Y0043375D02*
Y00439747D01*
X0085125Y00578747D02*
X01003811Y00426187D01*
X01021771Y00418747D02*
X01042D01*
X0055075Y00356747D02*
X006821D01*
X0070325Y0029475D02*
Y00335597D01*
X00679019Y00242747D02*
X00728253D01*
X0083644Y00363058D02*
X009025Y00296997D01*
X00878506Y00239747D02*
X00922D01*
X004535Y00421268D02*
Y00470229D01*
X00303076Y00684073D02*
X00312311Y00674839D01*
X0031975Y006245D02*
Y00656878D01*
X00326821Y00607429D02*
X00446061Y00488189D01*
X004815Y00444247D02*
Y00566497D01*
X00345313Y00612684D02*
X00459811Y00498187D01*
X00741143Y0064664D02*
X0084875D01*
Y00584783D02*
Y0064664D01*
X0073075Y00609497D02*
Y00636247D01*
X00437205Y0038359D02*
X00525321D01*
X005665Y00798397D02*
Y00816747D01*
X00341Y00772997D02*
X005411D01*
X0013375Y00553668D02*
Y00558247D01*
X00141189Y00535707D02*
X0017572Y00501177D01*
X00401367Y0034163D02*
X00412367D01*
X0008875Y00272747D02*
Y00562706D01*
X0042475Y00292247D02*
Y00329247D01*
X00474521Y00400247D02*
X0051125D01*
X0057Y00370497D02*
X00818479D01*
X0047875Y00414497D02*
X0052725D01*
X0046725Y00425997D02*
Y00480226D01*
X00337874Y00630644D02*
Y00671373D01*
X0049575Y00429997D02*
X00532D01*
X0027425Y00584247D02*
Y00637349D01*
X004434Y00734873D02*
X00489438D01*
X00418Y00658247D02*
Y00709473D01*
X0041825Y00588247D02*
Y00632997D01*
X00387605Y0031663D02*
X00401367D01*
X00362205Y0034203D02*
Y0038359D01*
X0079625Y00810997D02*
Y00846747D01*
X0044975Y00317247D02*
X0045575D01*
X004164Y00756497D02*
X0048725D01*
X00391Y00659497D02*
Y00731097D01*
X00411548Y00359247D02*
X0045175D01*
X00355Y00645997D02*
X00413156D01*
Y00645973D02*
Y00645997D01*
X00391Y00589747D02*
Y00631747D01*
X0062Y00391747D02*
Y00515997D01*
X0047175Y00598247D02*
X005081D01*
X005335Y00546747D02*
Y00572847D01*
X0046465Y00581247D02*
X0046675D01*
X0043925Y00606647D02*
Y00620597D01*
X00559Y00562497D02*
Y00589497D01*
X0084875Y0064664D02*
Y00708497D01*
X006895Y00831637D02*
Y00880747D01*
X00655Y00832322D02*
Y00864395D01*
X00633453Y00849794D02*
Y00862354D01*
Y00833093D02*
Y00849794D01*
X00631413Y00864395D02*
X00633453Y00862354D01*
X005935Y00766847D02*
X005958Y00769147D01*
X005935Y00792247D02*
X005946Y00791147D01*
X0107475Y00604247D02*
X01076Y00605497D01*
X0017497Y00453377D02*
Y00482366D01*
Y00425987D02*
Y00453377D01*
X0013475Y00263928D02*
Y0038818D01*
X0010872Y00227377D02*
X00127311Y00245967D01*
X0014219Y0040614D02*
X00150727Y00414677D01*
X0010872Y00227377D02*
X00111359D01*
X0104Y00604247D02*
X0107475D01*
D12*
X0057Y0083055D02*
G03*
X00555219Y00815769I0J-00014781D01*
G01*
X00529819Y00785747D02*
G03*
X00555219Y00811147I0J000254D01*
G01*
X0054675Y00658997D02*
G03*
X005345Y00671247I-0001225J0D01*
G01*
X0052135Y00500097D02*
G03*
X0054675Y00525497I0J000254D01*
G01*
X00544Y00391747D02*
G03*
X0054675Y00394497I0J0000275D01*
G01*
X0064225Y00629747D02*
G03*
X0063826Y00642228I-00021515J0D01*
G01*
X006964Y00597847D02*
G03*
X0067475Y00619497I-0002165J0D01*
G01*
X0064225Y00629747D02*
G03*
X006525Y00619497I0001025J0D01*
G01*
X006025Y00692845D02*
G03*
X00601751Y00695994I-00007J0D01*
G01*
X006025Y00679798D02*
G03*
X00617307Y00651262I000349J0D01*
G01*
X0059625Y00609497D02*
G03*
X0058825Y00617497I-00008J0D01*
G01*
X00671Y00532597D02*
G03*
X006621Y00541497I-000089J0D01*
G01*
X0059625Y00566897D02*
G03*
X0062165Y00541497I000254J0D01*
G01*
X0057875Y00626997D02*
G03*
X0058825Y00617497I000095J0D01*
G01*
X0045875Y00631747D02*
G03*
X00475Y00615497I0001625J0D01*
G01*
X00617307Y00651262D02*
G03*
X0063336Y00645132I00020094J00028535D01*
G01*
X0063826Y00642228D02*
G03*
X0063336Y00645132I-0000571J-00004049D01*
G01*
X00532Y00632997D02*
G03*
X0051925Y00645747I-0001275J0D01*
G01*
X00653268Y00812978D02*
G03*
X0065325Y00812768I00001186J-00000209D01*
G01*
X00653322Y0081318D02*
G03*
X00653268Y00812978I00001131J-00000412D01*
G01*
X00653411Y0081337D02*
G03*
X00653322Y0081318I00001042J-00000602D01*
G01*
X00653531Y00813542D02*
G03*
X00653411Y0081337I00000922J-00000774D01*
G01*
X0065368Y00813691D02*
G03*
X00653531Y00813542I00000774J-00000922D01*
G01*
X00653851Y00813811D02*
G03*
X0065368Y00813691I00000602J-00001042D01*
G01*
X00654042Y008139D02*
G03*
X00653851Y00813811I00000412J-00001131D01*
G01*
X00654244Y00813954D02*
G03*
X00654042Y008139I00000209J-00001186D01*
G01*
X00654454Y00813972D02*
G03*
X00654244Y00813954I0J-00001204D01*
G01*
X00688904Y00831041D02*
G03*
X006895Y00831637I0J00000596D01*
G01*
X0070515Y00758035D02*
G03*
X0067975Y00732635I0J-000254D01*
G01*
X00662403Y00679391D02*
G03*
X0067975Y00696738I0J00017347D01*
G01*
X00798518Y00684372D02*
G03*
X00797768Y00685122I-0000075J0D01*
G01*
X00532Y00612497D02*
Y00632997D01*
X0057Y0083055D02*
X00598444D01*
X00555219Y00811147D02*
Y00815769D01*
X00675453Y00830972D02*
X0068925D01*
X005985Y00830997D02*
X006125D01*
X004535Y00785747D02*
X00529819D01*
X0054675Y00525497D02*
Y00658997D01*
X004535Y00671247D02*
X005345D01*
X00506Y00500097D02*
X0052135D01*
X00598444Y0083055D02*
X00598729Y00830835D01*
X0073375Y00827997D02*
X00759D01*
X0034275Y00785747D02*
X004535D01*
X0054675Y00394497D02*
Y00525497D01*
X006025Y00679798D02*
Y00692845D01*
X006964Y00391747D02*
Y00597847D01*
X006525Y00619497D02*
X0067475D01*
X0060175Y00695997D02*
X00601751Y00695994D01*
X00671Y00391747D02*
Y00532597D01*
X0059625Y00566897D02*
Y00609497D01*
X0062165Y00541497D02*
X006621D01*
X0057875Y00626997D02*
Y00660247D01*
X00759Y00827997D02*
X00781D01*
X0065325Y00745741D02*
Y00812768D01*
X004605Y00659507D02*
X00533227D01*
X00475Y00615497D02*
X0050725D01*
X0068925Y00830972D02*
Y00830997D01*
X0070515Y00758035D02*
X00706515D01*
X0067975Y00700244D02*
Y00732635D01*
X0066275Y00700244D02*
Y00720747D01*
X00662749D02*
X0066275D01*
X00798518Y00663872D02*
Y00684372D01*
X00749Y00663872D02*
Y00685122D01*
Y00663872D02*
X00749018D01*
X01145Y00488747D02*
Y00517505D01*
X01145Y00465747D02*
X01145Y00465747D01*
X01145Y00439747D02*
Y00465747D01*
X01145Y00465747D02*
Y00488747D01*
D13*
X0108725Y00662747D02*
G03*
X01077Y00652497I0J-0001025D01*
G01*
X01076Y00605497D02*
G03*
X01077Y00606497I0J00001D01*
G01*
X01177439Y00655308D02*
G03*
X01159479Y00662747I-0001796J-0001796D01*
G01*
X00706688Y00827335D02*
X0070785Y00828497D01*
X0108725Y00662747D02*
X01099642Y00662676D01*
X01077Y00606497D02*
Y00652497D01*
X01123416Y00662747D02*
X01159479D01*
X01177439Y00655308D02*
X01192Y00640747D01*
D14*
X00771Y00199147D02*
G03*
X007964Y00173747I000254J0D01*
G01*
X00748409Y00176555D02*
G03*
X00771Y00199147I0J00022592D01*
G01*
X00573013Y00202147D02*
G03*
X00598413Y00176747I000254J0D01*
G01*
X004755Y00241847D02*
G03*
X004501Y00267247I-000254J0D01*
G01*
X004755Y00209647D02*
G03*
X005009Y00184247I000254J0D01*
G01*
X00888Y00128247D02*
G03*
X00871Y00145247I-00017J0D01*
G01*
X00838Y00119847D02*
G03*
X008126Y00145247I-000254J0D01*
G01*
X0069Y0012976D02*
G03*
X00673013Y00146747I-00016987J0D01*
G01*
X0064Y00121347D02*
G03*
X006146Y00146747I-000254J0D01*
G01*
X00771Y00199147D02*
Y00247254D01*
X007964Y00173747D02*
X00892D01*
X00573013Y00202147D02*
Y00248754D01*
X004755Y00209647D02*
Y00241847D01*
X00598413Y00176747D02*
X0069499D01*
X005009Y00184247D02*
X005795D01*
X00695Y00176555D02*
X00748409D01*
X0044975Y00267247D02*
X004501D01*
X00888Y00061747D02*
Y00128247D01*
X00838Y00061747D02*
Y00119847D01*
X00771Y00145247D02*
X008126D01*
X0069Y00063747D02*
Y0012976D01*
X0064Y00063747D02*
Y00121347D01*
X00573013Y00146747D02*
X006146D01*
D15*
X01152614Y00724747D02*
G03*
X0114175Y00720247I0J-00015364D01*
G01*
X01126661Y00713997D02*
G03*
X0114175Y00720247I0J00021339D01*
G01*
X01191518Y00724747D02*
X01192D01*
X01111Y00713747D02*
X01124264D01*
X00543282Y00391029D02*
X00544Y00391747D01*
X01152614Y00724747D02*
X01191518D01*
X01106Y00713747D02*
X01111D01*
X0112525Y00713997D02*
X01126661D01*
D16*
X00912088Y00579147D02*
G03*
X00937488Y00553747I000254J0D01*
G01*
X0006475Y00776997D02*
G03*
X00057Y00769247I0J-0000775D01*
G01*
X0065325Y0065405D02*
G03*
X00652903Y00654398I-00000347J0D01*
G01*
X00612Y00679798D02*
G03*
X006374Y00654398I000254J0D01*
G01*
X0061825Y00716247D02*
G03*
X00612Y00709997I0J-0000625D01*
G01*
X00633453Y00813972D02*
G03*
X0062825Y00808769I0J-00005203D01*
G01*
X00622091Y00716247D02*
G03*
X0062825Y00722406I0J00006159D01*
G01*
X00937488Y00553747D02*
X00979D01*
X00912088Y00579147D02*
Y00591747D01*
X002425Y00812997D02*
Y00834997D01*
X002425D01*
X0006475Y00776997D02*
X0008675D01*
X00057Y0076D02*
Y00769247D01*
X0065325Y00633247D02*
Y0065405D01*
X0061825Y00716247D02*
X00622091D01*
X00612Y00679798D02*
Y00709997D01*
X006374Y00654398D02*
X00652903D01*
X0062825Y00722406D02*
Y00808769D01*
X00633453Y00813972D02*
Y00813997D01*
X006125D02*
X00633453D01*
X00654454Y00813972D02*
X00675453D01*
D18*
X011917Y00526747D02*
G03*
X01192Y00527047I0J000003D01*
G01*
X01143Y00526747D02*
X011917D01*
D25*
X00643403Y00679391D02*
D03*
X00662403D02*
D03*
X00662749Y00720747D02*
D03*
X0064375D02*
D03*
D26*
X00652903Y00654398D02*
D03*
X0065325Y00745741D02*
D03*
D27*
X0017572Y00424177D02*
D03*
Y00405177D02*
D03*
D28*
X00150727Y00414677D02*
D03*
D31*
X0008675Y00776997D02*
D03*
X0010375D02*
D03*
X00798518Y00663872D02*
D03*
X00815518D02*
D03*
X00749018D02*
D03*
X00732018D02*
D03*
X0062625Y00700244D02*
D03*
X0064325D02*
D03*
X0066275D02*
D03*
X0067975D02*
D03*
X01145Y00465747D02*
D03*
X01128D02*
D03*
Y00488747D02*
D03*
X01145D02*
D03*
D35*
X01042Y00418747D02*
D03*
Y00435747D02*
D03*
X00759Y00844997D02*
D03*
Y00827997D02*
D03*
X00781Y00844997D02*
D03*
Y00827997D02*
D03*
X0079925Y00774997D02*
D03*
Y00757997D02*
D03*
X00654454Y00830972D02*
D03*
Y00813972D02*
D03*
X00675453Y00830972D02*
D03*
Y00813972D02*
D03*
X006125Y00830997D02*
D03*
Y00813997D02*
D03*
X00633453Y00830972D02*
D03*
Y00813972D02*
D03*
X0017572Y00501177D02*
D03*
Y00484177D02*
D03*
X002425Y00812997D02*
D03*
Y00795997D02*
D03*
X01066Y00418747D02*
D03*
Y00435747D02*
D03*
D36*
X00762015Y00758035D02*
D03*
Y00770735D02*
D03*
Y00783435D02*
D03*
Y00796135D02*
D03*
Y00720035D02*
D03*
Y00732735D02*
D03*
Y00745435D02*
D03*
Y00707535D02*
D03*
X00706515Y00758035D02*
D03*
Y00770735D02*
D03*
Y00783435D02*
D03*
Y00796135D02*
D03*
Y00720035D02*
D03*
Y00732735D02*
D03*
Y00745435D02*
D03*
Y00707535D02*
D03*
D37*
X009755Y00746497D02*
G03*
X00985Y00736997I000095J0D01*
G01*
X0100025Y00721747D02*
G03*
X00985Y00736997I-0001525J0D01*
G01*
X009755Y00779747D02*
G03*
X0095175Y00803497I-0002375J0D01*
G01*
X0100025Y00565147D02*
G03*
X0102565Y00539747I000254J0D01*
G01*
X00816404Y00803497D02*
G03*
X00810543Y00797636I0J-00005861D01*
G01*
X00804904Y00791997D02*
G03*
X00810543Y00797636I0J00005638D01*
G01*
X00781Y00802747D02*
G03*
X0079175Y00791997I0001075J0D01*
G01*
X0112275Y00506497D02*
G03*
X01143Y00526747I0J0002025D01*
G01*
X010885Y00520497D02*
G03*
X011025Y00506497I00014J0D01*
G01*
X010885Y00520497D02*
G03*
X0106925Y00539747I-0001925J0D01*
G01*
X0073325Y00828497D02*
G03*
X0073375Y00827997I000005J0D01*
G01*
X009755Y00746497D02*
Y00779747D01*
X0100025Y00565147D02*
Y00721747D01*
X00816404Y00803497D02*
X0095175D01*
X0104Y00539747D02*
X0106925D01*
X0102565D02*
X0104D01*
X00781Y00825279D02*
X00781071D01*
X00781Y00802747D02*
Y00825279D01*
X0079175Y00791997D02*
X00804904D01*
X011025Y00506497D02*
X0112275D01*
D43*
X01145Y00129747D02*
D03*
Y00858747D02*
D03*
D44*
X0053275Y00234247D02*
D03*
X0051675Y00234247D02*
D03*
D45*
X00797768Y00685122D02*
D03*
X00544Y00391747D02*
D03*
X005694D02*
D03*
X005948D02*
D03*
X006202D02*
D03*
X006456D02*
D03*
X00671D02*
D03*
X006964D02*
D03*
X00821716Y00576363D02*
D03*
Y00550963D02*
D03*
Y00525563D02*
D03*
X00506Y00550897D02*
D03*
Y00525497D02*
D03*
Y00500097D02*
D03*
Y00474697D02*
D03*
Y00449297D02*
D03*
X00957Y00727747D02*
D03*
Y00747747D02*
D03*
X00932001D02*
D03*
Y00727747D02*
D03*
X0044932Y00122177D02*
D03*
X0042392D02*
D03*
X0039852D02*
D03*
X0037312D02*
D03*
X0034772D02*
D03*
X0032232D02*
D03*
X0029692D02*
D03*
X0010872Y00227377D02*
D03*
Y00252777D02*
D03*
Y00278177D02*
D03*
Y00303577D02*
D03*
Y00328977D02*
D03*
Y00354377D02*
D03*
Y00379777D02*
D03*
Y00405177D02*
D03*
Y00430577D02*
D03*
Y00455977D02*
D03*
Y00481377D02*
D03*
Y00506777D02*
D03*
Y00532177D02*
D03*
Y00557577D02*
D03*
Y00582977D02*
D03*
X0027425Y00584247D02*
D03*
Y00508247D02*
D03*
X0016272Y00549576D02*
D03*
Y00600577D02*
D03*
Y00575177D02*
D03*
D46*
X00749Y00685122D02*
D03*
X007218Y00391747D02*
D03*
X0027152Y00122177D02*
D03*
D47*
X0059Y00063747D02*
D03*
X0064D02*
D03*
X0069D02*
D03*
X00788Y00061747D02*
D03*
X00838D02*
D03*
X00888D02*
D03*
X002425Y00834997D02*
D03*
X001925D02*
D03*
X001425D02*
D03*
X00057Y0076D02*
D03*
Y0071D02*
D03*
Y0066D02*
D03*
D48*
X00821716Y00601763D02*
D03*
X00506Y00576297D02*
D03*
X0010872Y00608377D02*
D03*
D49*
X00880696Y00773759D02*
D03*
X01004701Y00774846D02*
D03*
D50*
X00573013Y00146747D02*
D03*
X00673013D02*
D03*
Y00248754D02*
D03*
X00573013D02*
D03*
X00623Y00273747D02*
D03*
X00771Y00145247D02*
D03*
X00871D02*
D03*
Y00247254D02*
D03*
X00771D02*
D03*
X00820987Y00272247D02*
D03*
D51*
X0129Y0084D02*
D03*
X0006D02*
D03*
Y0006D02*
D03*
X0129D02*
D03*
D52*
X0014997Y00377177D02*
D03*
X0017497D02*
D03*
X0014997Y00453377D02*
D03*
X0017497D02*
D03*
X0019972Y00377177D02*
D03*
X0022472D02*
D03*
X0019972Y00453377D02*
D03*
X0022472D02*
D03*
X0024972Y00377177D02*
D03*
X0027472D02*
D03*
X0029972D02*
D03*
X0032472D02*
D03*
X0024972Y00453377D02*
D03*
X0027472D02*
D03*
X0029972D02*
D03*
X00412205Y0045979D02*
D03*
X00387205D02*
D03*
X00362205D02*
D03*
X00437205Y0038359D02*
D03*
X00412205D02*
D03*
X00387205D02*
D03*
X00362205D02*
D03*
D53*
X0032472Y00453377D02*
D03*
X00437205Y0045979D02*
D03*
D54*
X00401367Y0016688D02*
D03*
Y0019188D02*
D03*
X00325167Y0016688D02*
D03*
Y0019188D02*
D03*
X00401367Y0021663D02*
D03*
Y0024163D02*
D03*
X00325167Y0021663D02*
D03*
Y0024163D02*
D03*
X00401367Y0026663D02*
D03*
Y0029163D02*
D03*
Y0031663D02*
D03*
Y0034163D02*
D03*
X00325167Y0026663D02*
D03*
Y0029163D02*
D03*
Y0031663D02*
D03*
X0052595Y00292247D02*
D03*
Y00317247D02*
D03*
Y00342247D02*
D03*
X0044975Y00267247D02*
D03*
Y00292247D02*
D03*
Y00317247D02*
D03*
Y00342247D02*
D03*
D55*
X00325167Y0034163D02*
D03*
X0052595Y00267247D02*
D03*
D56*
X00986265Y00407497D02*
D03*
D57*
X00783235D02*
D03*
D58*
X005935Y00792247D02*
D03*
X0073325Y00828497D02*
D03*
D59*
X005935Y00766847D02*
D03*
D60*
X0070785Y00828497D02*
D03*
D61*
X00631413Y00864395D02*
D03*
X00569412D02*
D03*
X00655413D02*
D03*
X00717412D02*
D03*
D62*
X01257001Y00751747D02*
D03*
X01287Y00691747D02*
D03*
X01257001Y00631747D02*
D03*
X01287Y00571747D02*
D03*
X01257001Y00511747D02*
D03*
X01287Y00451747D02*
D03*
X01257001Y00391747D02*
D03*
X01287Y00331747D02*
D03*
X01257001Y00271747D02*
D03*
X01287Y00211747D02*
D03*
X01257001Y00151747D02*
D03*
X01287Y00091747D02*
D03*
X01257001Y00031747D02*
D03*
X01227001Y00811747D02*
D03*
Y00691747D02*
D03*
Y00571747D02*
D03*
Y00451747D02*
D03*
X01197001Y00391747D02*
D03*
X01227001Y00331747D02*
D03*
X01197001Y00271747D02*
D03*
X01227001Y00211747D02*
D03*
X01197001Y00151747D02*
D03*
X01227001Y00091747D02*
D03*
X01197001Y00031747D02*
D03*
X01167001Y00811747D02*
D03*
Y00691747D02*
D03*
X01137001Y00631747D02*
D03*
X01167001Y00571747D02*
D03*
Y00451747D02*
D03*
Y00331747D02*
D03*
X01137001Y00271747D02*
D03*
X01167001Y00211747D02*
D03*
Y00091747D02*
D03*
X01137001Y00031747D02*
D03*
X01107001Y00811747D02*
D03*
X01077001Y00751747D02*
D03*
X01107001Y00571747D02*
D03*
X01077001Y00511747D02*
D03*
Y00391747D02*
D03*
Y00271747D02*
D03*
Y00151747D02*
D03*
X01107001Y00091747D02*
D03*
X01077001Y00031747D02*
D03*
X01047Y00811747D02*
D03*
X01017001Y00751747D02*
D03*
X01047Y00691747D02*
D03*
Y00571747D02*
D03*
X01017001Y00511747D02*
D03*
X01047Y00451747D02*
D03*
X01017001Y00391747D02*
D03*
X01047Y00331747D02*
D03*
X01017001Y00271747D02*
D03*
X01047Y00211747D02*
D03*
X01017001Y00151747D02*
D03*
X01047Y00091747D02*
D03*
X01017001Y00031747D02*
D03*
X00987Y00811747D02*
D03*
X00957Y00511747D02*
D03*
Y00391747D02*
D03*
X00987Y00331747D02*
D03*
X00957Y00271747D02*
D03*
X00987Y00211747D02*
D03*
X00957Y00151747D02*
D03*
X00987Y00091747D02*
D03*
X00957Y00031747D02*
D03*
X00897Y00631747D02*
D03*
Y00511747D02*
D03*
X00927Y00451747D02*
D03*
X00897Y00391747D02*
D03*
X00927Y00331747D02*
D03*
Y00091747D02*
D03*
X00897Y00031747D02*
D03*
X00837Y00631747D02*
D03*
Y00511747D02*
D03*
Y00391747D02*
D03*
X00867Y00211747D02*
D03*
Y00091747D02*
D03*
X00837Y00031747D02*
D03*
X00807Y00811747D02*
D03*
X00777Y00631747D02*
D03*
X00807Y00571747D02*
D03*
X00777Y00511747D02*
D03*
X00807Y00451747D02*
D03*
X00777Y00031747D02*
D03*
X00747Y00811747D02*
D03*
X00717Y00631747D02*
D03*
Y00511747D02*
D03*
X00747Y00451747D02*
D03*
Y00331747D02*
D03*
Y00091747D02*
D03*
X00717Y00031747D02*
D03*
X00687Y00811747D02*
D03*
X00657Y00511747D02*
D03*
X00687Y00451747D02*
D03*
Y00331747D02*
D03*
X00657Y00271747D02*
D03*
X00687Y00211747D02*
D03*
X00657Y00031747D02*
D03*
X00597Y00751747D02*
D03*
Y00511747D02*
D03*
X00627Y00331747D02*
D03*
X00597Y00271747D02*
D03*
Y00031747D02*
D03*
X00567Y00451747D02*
D03*
X00537Y00151747D02*
D03*
X00567Y00091747D02*
D03*
X00537Y00031747D02*
D03*
X00507Y00331747D02*
D03*
Y00211747D02*
D03*
X00477Y00151747D02*
D03*
X00507Y00091747D02*
D03*
X00477Y00031747D02*
D03*
X00447Y00571747D02*
D03*
Y00091747D02*
D03*
X00417Y00031747D02*
D03*
X00357Y00751747D02*
D03*
Y00631747D02*
D03*
Y00511747D02*
D03*
Y00271747D02*
D03*
X00387Y00091747D02*
D03*
X00357Y00031747D02*
D03*
X00297Y00751747D02*
D03*
X00327Y00571747D02*
D03*
X00297Y00511747D02*
D03*
X00327Y00091747D02*
D03*
X00297Y00031747D02*
D03*
X00267Y00811747D02*
D03*
Y00691747D02*
D03*
X00237Y00631747D02*
D03*
X00267Y00571747D02*
D03*
X00237Y00511747D02*
D03*
Y00391747D02*
D03*
X00267Y00331747D02*
D03*
X00237Y00151747D02*
D03*
X00267Y00091747D02*
D03*
X00237Y00031747D02*
D03*
X00207Y00811747D02*
D03*
Y00691747D02*
D03*
X00177Y00631747D02*
D03*
X00207Y00571747D02*
D03*
Y00211747D02*
D03*
X00177Y00151747D02*
D03*
X00207Y00091747D02*
D03*
X00177Y00031747D02*
D03*
X00117Y00751747D02*
D03*
X00147Y00691747D02*
D03*
X00117Y00631747D02*
D03*
Y00391747D02*
D03*
X00147Y00211747D02*
D03*
X00117Y00151747D02*
D03*
X00147Y00091747D02*
D03*
X00117Y00031747D02*
D03*
X00087Y00811747D02*
D03*
Y00691747D02*
D03*
X00057Y00631747D02*
D03*
Y00511747D02*
D03*
Y00391747D02*
D03*
Y00271747D02*
D03*
X00087Y00211747D02*
D03*
X00057Y00151747D02*
D03*
X00087Y00091747D02*
D03*
X00912088Y00591747D02*
D03*
X005665Y00816747D02*
D03*
X00821716Y00803381D02*
D03*
X0057Y00370497D02*
D03*
X0051125Y00400247D02*
D03*
X0052725Y00414497D02*
D03*
X0070325Y0029475D02*
D03*
X0055075Y00356747D02*
D03*
X00295574Y00658673D02*
D03*
X009025Y00296997D02*
D03*
X00303076Y00684073D02*
D03*
X00337874Y00671373D02*
D03*
X00418Y00632997D02*
D03*
X00391Y00659497D02*
D03*
X004535Y00671247D02*
D03*
X00489438Y00734873D02*
D03*
X00418Y00658247D02*
D03*
X00391Y00631747D02*
D03*
X0041825Y00588247D02*
D03*
X00391Y00589747D02*
D03*
X00532Y00430247D02*
D03*
X0064575Y00514247D02*
D03*
X0062Y00515997D02*
D03*
X0045875Y00631747D02*
D03*
X00355Y00645997D02*
D03*
X006455Y00551997D02*
D03*
X00579955Y0069467D02*
D03*
X0057875Y00660247D02*
D03*
X0065325Y00633247D02*
D03*
X0060175Y00695997D02*
D03*
X0047175Y00598247D02*
D03*
X005335Y00546747D02*
D03*
X007805Y00783247D02*
D03*
X00559Y00562497D02*
D03*
X00533227Y00659507D02*
D03*
X0051925Y00645747D02*
D03*
X00532Y00612497D02*
D03*
X0050775Y00615497D02*
D03*
X00559Y00589497D02*
D03*
X007485Y00562497D02*
D03*
X0073125Y00608997D02*
D03*
X004535Y00785747D02*
D03*
X004605Y00659507D02*
D03*
X0048725Y00756497D02*
D03*
X005345Y00671247D02*
D03*
X006995Y00880747D02*
D03*
X0084875Y00708497D02*
D03*
X00905Y00561747D02*
D03*
X0079675Y00811497D02*
D03*
X0034275Y00785747D02*
D03*
X00341Y00772997D02*
D03*
X00653427Y0080424D02*
D03*
X00688904Y00831041D02*
D03*
X00598729Y00830835D02*
D03*
X0079625Y00846747D02*
D03*
X00979Y00553747D02*
D03*
X00966Y00533747D02*
D03*
X0073425Y00792497D02*
D03*
X00922Y00239747D02*
D03*
X00728253Y00242747D02*
D03*
D63*
X0112525Y00713997D02*
D03*
X00892Y00173747D02*
D03*
X00695Y00176555D02*
D03*
D64*
X01192Y00833347D02*
G03*
X011666Y00858747I-000254J0D01*
G01*
X01191518Y00728896D02*
G03*
X01192Y00729379I0J00000482D01*
G01*
X01145Y00858747D02*
X011666D01*
X01192Y00729379D02*
Y00833347D01*
D65*
X01143Y00526747D02*
D03*
X01112D02*
D03*
X01106Y00713747D02*
D03*
X01075D02*
D03*
D66*
X01192Y00595747D02*
D03*
D67*
Y00527047D02*
D03*
D68*
X01099Y00439747D02*
D03*
X01145D02*
D03*
D69*
X01122D02*
D03*
D70*
Y00377771D02*
D03*
D71*
X01121Y00688747D02*
D03*
X01111D02*
D03*
X01101D02*
D03*
X01121Y00662747D02*
D03*
X01111D02*
D03*
X01101D02*
D03*
D72*
X01192Y00724747D02*
D03*
Y00640747D02*
D03*
D73*
X011405Y00597747D02*
D03*
X01076D02*
D03*
D74*
X0104Y00539747D02*
D03*
Y00604247D02*
D03*
D75*
X00706515Y00807747D02*
Y00827335D01*
Y00799605D02*
Y00807747D01*
X007065D02*
X00706515D01*
D76*
X01192Y00597484D02*
Y00637348D01*
D77*
X01105991Y0069575D02*
D03*
M02*
