M48
;Layer_Color=9474304
;FILE_FORMAT=4:4
METRIC,LZ
;TYPE=PLATED
T1F00S00C0.3000
T2F00S00C0.6000
T3F00S00C0.8000
T4F00S00C1.0000
T5F00S00C1.1000
T6F00S00C1.2000
T7F00S00C1.3000
T9F00S00C1.6000
T10F00S00C2.0000
T11F00S00C2.5000
T12F00S00C3.1000
T13F00S00C3.2000
%
T01
X00117Y00031747
X00177
X00237
X00207Y00091747
X00147
X00087
X00057Y00151747
X00117
X00177
X00237
X00207Y00211747
X00147
X00087
X00267Y00091747
X00327
X00387
X00447
X00507
X00567
X00537Y00151747
X00477
X00507Y00211747
X00477Y00031747
X00537
X00597
X00417
X00357
X00297
X00657
X00717
X00777
X00837
X00897
X00957
X01017001
X01047Y00091747
X00987
X00927
X00867
Y00211747
X00922Y00239747
X00987Y00211747
X01047
X01017001Y00151747
X00957
X00747Y00091747
X00728253Y00242747
X00687Y00211747
X01077001Y00151747
X01107001Y00091747
X01167001
X01227001
X01287
X01257001Y00151747
X01197001
X01227001Y00211747
X01287
X01167001
X01137001Y00031747
X01197001
X01257001
X01077001
Y00271747
X01137001
X01197001
X01257001
X01287Y00331747
X01227001
X01167001
X01197001Y00391747
X01257001
X01287Y00451747
X01227001
X01167001
Y00571747
X01227001
X01287
X01257001Y00631747
Y00511747
X01077001
X01107001Y00571747
X01137001Y00631747
X01077001Y00391747
X01017001
X00957
X00897
X00837
X00807Y00451747
X00747
X00687
X00657Y00511747
X00717
X00777
X00837
X00897
X00905Y00561747
X00912088Y00591747
X00897Y00631747
X00837
X00777
X00717
X0073125Y00608997
X007485Y00562497
X00807Y00571747
X00979Y00553747
X00966Y00533747
X00957Y00511747
X01017001
X01047Y00571747
Y00451747
Y00331747
X00987
X00927
X009025Y00296997
X00957Y00271747
X01017001
X00927Y00451747
X00747Y00331747
X00687
X0070325Y0029475
X00657Y00271747
X0065325Y00633247
X006455Y00551997
X0064575Y00514247
X0062Y00515997
X00597Y00511747
X00559Y00562497
Y00589497
X00532Y00612497
X0050775Y00615497
X0047175Y00598247
X0045875Y00631747
X00418Y00632997
X00391Y00631747
X00357Y00631747
X00391Y00589747
X0041825Y00588247
X00447Y00571747
X005335Y00546747
X00532Y00430247
X0052725Y00414497
X0051125Y00400247
X00507Y00331747
X0055075Y00356747
X0057Y00370497
X00567Y00451747
X00627Y00331747
X00597Y00271747
X00357
X00267Y00331747
X00297Y00511747
X00357
X00327Y00571747
X00267
X00207
X00177Y00631747
X00237
Y00511747
Y00391747
X00117
X00057
Y00511747
Y00631747
X00117
X00057Y00271747
X00087Y00691747
X00147
X00207
Y00811747
X00087
X00117Y00751747
X00297
X00357
X00341Y00772997
X0034275Y00785747
X00267Y00811747
Y00691747
X00303076Y00684073
X00295574Y00658673
X00337874Y00671373
X00355Y00645997
X00391Y00659497
X00418Y00658247
X004605Y00659507
X004535Y00671247
X005345
X00533227Y00659507
X0051925Y00645747
X0057875Y00660247
X00579955Y0069467
X0060175Y00695997
X00597Y00751747
X00598729Y00830835
X005665Y00816747
X0048725Y00756497
X00489438Y00734873
X004535Y00785747
X00653427Y0080424
X00687Y00811747
X00688904Y00831041
X006995Y00880747
X00747Y00811747
X0073425Y00792497
X007805Y00783247
X0079675Y00811497
X00807Y00811747
X00821716Y00803381
X0079625Y00846747
X0084875Y00708497
X01017001Y00751747
X01047Y00811747
X00987
X01047Y00691747
X01077001Y00751747
X01107001Y00811747
X01167001
X01227001
X01257001Y00751747
X01287Y00691747
X01227001
X01167001
T02
X00695Y00176555
X00892Y00173747
X0112525Y00713997
T03
X0051675Y00234247
X0053275
T04
X0010872Y00227377
X00325167Y0021663
Y0019188
Y0016688
X0032232Y00122177
X0034772
X0037312
X0039852
X0042392
X0044932
X00401367Y0016688
Y0019188
Y0021663
Y0024163
X00325167
X0029692Y00122177
X0027152
X00671Y00391747
X006964
X007218
X00821716Y00525563
Y00550963
Y00576363
Y00601763
X00506Y00576297
Y00550897
Y00525497
Y00500097
Y00474697
Y00449297
X00437205Y0045979
X00412205
X00387205
X00362205
X0032472Y00453377
X0029972
X0027472
X0027425Y00508247
Y00584247
X0027472Y00377177
X0029972
X0032472
X00325167Y0034163
Y0031663
Y0029163
Y0026663
X00401367
Y0029163
Y0031663
Y0034163
X0044975Y00342247
Y00317247
Y00292247
Y00267247
X0052595
Y00292247
Y00317247
Y00342247
X00544Y00391747
X005694
X005948
X006202
X006456
X00437205Y0038359
X00412205
X00387205
X00362205
X0024972Y00377177
X0022472
X0019972
X0017497
X0014997
X0010872Y00379777
Y00354377
Y00328977
Y00303577
Y00278177
Y00252777
Y00405177
Y00430577
Y00455977
Y00481377
Y00506777
Y00532177
Y00557577
Y00582977
Y00608377
X0016272Y00600577
Y00575177
Y00549576
X0017497Y00453377
X0019972
X0022472
X0024972
X0014997
X00749Y00685122
X00797768
X00932001Y00727747
Y00747747
X00957
Y00727747
T05
X005935Y00766847
Y00792247
X0070785Y00828497
X0073325
T06
X00569412Y00864395
X00631413
X00655413
X00717412
T07
X0059Y00063747
X0064
X0069
X00788Y00061747
X00838
X00888
X002425Y00834997
X001925
X001425
X00057Y0076
Y0071
Y0066
T09
X00573013Y00146747
X00673013
X00771Y00145247
X00871
Y00247254
X00771
X00820987Y00272247
X00673013Y00248754
X00623Y00273747
X00573013Y00248754
T10
X00783235Y00407497
X00986265
X0065956Y00602417
X0057156Y00603417
T11
X00880696Y00773759
X01004701Y00774846
T12
X0006Y0006
X0129
X0006Y0084
X0129
T13
X01145Y00215747
Y00771747
M30
